%TF.GenerationSoftware,KiCad,Pcbnew,(5.1.5)-3*%
%TF.CreationDate,2020-04-11T16:30:29+01:00*%
%TF.ProjectId,EPCTest2,45504354-6573-4743-922e-6b696361645f,rev?*%
%TF.SameCoordinates,Original*%
%TF.FileFunction,Legend,Bot*%
%TF.FilePolarity,Positive*%
%FSLAX46Y46*%
G04 Gerber Fmt 4.6, Leading zero omitted, Abs format (unit mm)*
G04 Created by KiCad (PCBNEW (5.1.5)-3) date 2020-04-11 16:30:29*
%MOMM*%
%LPD*%
G04 APERTURE LIST*
%ADD10C,0.150000*%
%TA.AperFunction,Profile*%
%ADD11C,0.100000*%
%TD*%
G04 APERTURE END LIST*
D10*
X71665619Y-103258047D02*
X71665619Y-102686619D01*
X70665619Y-102972333D02*
X71665619Y-102972333D01*
X70665619Y-102353285D02*
X71665619Y-102353285D01*
X70665619Y-101924714D02*
X71189428Y-101924714D01*
X71284666Y-101972333D01*
X71332285Y-102067571D01*
X71332285Y-102210428D01*
X71284666Y-102305666D01*
X71237047Y-102353285D01*
X70665619Y-101448523D02*
X71332285Y-101448523D01*
X71665619Y-101448523D02*
X71618000Y-101496142D01*
X71570380Y-101448523D01*
X71618000Y-101400904D01*
X71665619Y-101448523D01*
X71570380Y-101448523D01*
X70713238Y-101019952D02*
X70665619Y-100924714D01*
X70665619Y-100734238D01*
X70713238Y-100639000D01*
X70808476Y-100591380D01*
X70856095Y-100591380D01*
X70951333Y-100639000D01*
X70998952Y-100734238D01*
X70998952Y-100877095D01*
X71046571Y-100972333D01*
X71141809Y-101019952D01*
X71189428Y-101019952D01*
X71284666Y-100972333D01*
X71332285Y-100877095D01*
X71332285Y-100734238D01*
X71284666Y-100639000D01*
X70665619Y-99400904D02*
X71332285Y-99400904D01*
X71665619Y-99400904D02*
X71618000Y-99448523D01*
X71570380Y-99400904D01*
X71618000Y-99353285D01*
X71665619Y-99400904D01*
X71570380Y-99400904D01*
X70713238Y-98972333D02*
X70665619Y-98877095D01*
X70665619Y-98686619D01*
X70713238Y-98591380D01*
X70808476Y-98543761D01*
X70856095Y-98543761D01*
X70951333Y-98591380D01*
X70998952Y-98686619D01*
X70998952Y-98829476D01*
X71046571Y-98924714D01*
X71141809Y-98972333D01*
X71189428Y-98972333D01*
X71284666Y-98924714D01*
X71332285Y-98829476D01*
X71332285Y-98686619D01*
X71284666Y-98591380D01*
X70665619Y-96924714D02*
X71189428Y-96924714D01*
X71284666Y-96972333D01*
X71332285Y-97067571D01*
X71332285Y-97258047D01*
X71284666Y-97353285D01*
X70713238Y-96924714D02*
X70665619Y-97019952D01*
X70665619Y-97258047D01*
X70713238Y-97353285D01*
X70808476Y-97400904D01*
X70903714Y-97400904D01*
X70998952Y-97353285D01*
X71046571Y-97258047D01*
X71046571Y-97019952D01*
X71094190Y-96924714D01*
X71332285Y-95686619D02*
X70332285Y-95686619D01*
X71284666Y-95686619D02*
X71332285Y-95591380D01*
X71332285Y-95400904D01*
X71284666Y-95305666D01*
X71237047Y-95258047D01*
X71141809Y-95210428D01*
X70856095Y-95210428D01*
X70760857Y-95258047D01*
X70713238Y-95305666D01*
X70665619Y-95400904D01*
X70665619Y-95591380D01*
X70713238Y-95686619D01*
X70665619Y-94781857D02*
X71332285Y-94781857D01*
X71141809Y-94781857D02*
X71237047Y-94734238D01*
X71284666Y-94686619D01*
X71332285Y-94591380D01*
X71332285Y-94496142D01*
X70665619Y-94019952D02*
X70713238Y-94115190D01*
X70760857Y-94162809D01*
X70856095Y-94210428D01*
X71141809Y-94210428D01*
X71237047Y-94162809D01*
X71284666Y-94115190D01*
X71332285Y-94019952D01*
X71332285Y-93877095D01*
X71284666Y-93781857D01*
X71237047Y-93734238D01*
X71141809Y-93686619D01*
X70856095Y-93686619D01*
X70760857Y-93734238D01*
X70713238Y-93781857D01*
X70665619Y-93877095D01*
X70665619Y-94019952D01*
X71332285Y-93400904D02*
X71332285Y-93019952D01*
X71665619Y-93258047D02*
X70808476Y-93258047D01*
X70713238Y-93210428D01*
X70665619Y-93115190D01*
X70665619Y-93019952D01*
X70665619Y-92543761D02*
X70713238Y-92639000D01*
X70760857Y-92686619D01*
X70856095Y-92734238D01*
X71141809Y-92734238D01*
X71237047Y-92686619D01*
X71284666Y-92639000D01*
X71332285Y-92543761D01*
X71332285Y-92400904D01*
X71284666Y-92305666D01*
X71237047Y-92258047D01*
X71141809Y-92210428D01*
X70856095Y-92210428D01*
X70760857Y-92258047D01*
X70713238Y-92305666D01*
X70665619Y-92400904D01*
X70665619Y-92543761D01*
X71332285Y-91924714D02*
X71332285Y-91543761D01*
X71665619Y-91781857D02*
X70808476Y-91781857D01*
X70713238Y-91734238D01*
X70665619Y-91639000D01*
X70665619Y-91543761D01*
X71332285Y-91305666D02*
X70665619Y-91067571D01*
X71332285Y-90829476D02*
X70665619Y-91067571D01*
X70427523Y-91162809D01*
X70379904Y-91210428D01*
X70332285Y-91305666D01*
X71332285Y-90448523D02*
X70332285Y-90448523D01*
X71284666Y-90448523D02*
X71332285Y-90353285D01*
X71332285Y-90162809D01*
X71284666Y-90067571D01*
X71237047Y-90019952D01*
X71141809Y-89972333D01*
X70856095Y-89972333D01*
X70760857Y-90019952D01*
X70713238Y-90067571D01*
X70665619Y-90162809D01*
X70665619Y-90353285D01*
X70713238Y-90448523D01*
X70713238Y-89162809D02*
X70665619Y-89258047D01*
X70665619Y-89448523D01*
X70713238Y-89543761D01*
X70808476Y-89591380D01*
X71189428Y-89591380D01*
X71284666Y-89543761D01*
X71332285Y-89448523D01*
X71332285Y-89258047D01*
X71284666Y-89162809D01*
X71189428Y-89115190D01*
X71094190Y-89115190D01*
X70998952Y-89591380D01*
X67365619Y-113400904D02*
X68365619Y-113400904D01*
X68032285Y-113067571D02*
X68032285Y-112686619D01*
X68365619Y-112924714D02*
X67508476Y-112924714D01*
X67413238Y-112877095D01*
X67365619Y-112781857D01*
X67365619Y-112686619D01*
X67365619Y-111591380D02*
X68032285Y-111591380D01*
X68365619Y-111591380D02*
X68318000Y-111639000D01*
X68270380Y-111591380D01*
X68318000Y-111543761D01*
X68365619Y-111591380D01*
X68270380Y-111591380D01*
X67413238Y-111162809D02*
X67365619Y-111067571D01*
X67365619Y-110877095D01*
X67413238Y-110781857D01*
X67508476Y-110734238D01*
X67556095Y-110734238D01*
X67651333Y-110781857D01*
X67698952Y-110877095D01*
X67698952Y-111019952D01*
X67746571Y-111115190D01*
X67841809Y-111162809D01*
X67889428Y-111162809D01*
X67984666Y-111115190D01*
X68032285Y-111019952D01*
X68032285Y-110877095D01*
X67984666Y-110781857D01*
X68032285Y-109543761D02*
X67365619Y-109543761D01*
X67937047Y-109543761D02*
X67984666Y-109496142D01*
X68032285Y-109400904D01*
X68032285Y-109258047D01*
X67984666Y-109162809D01*
X67889428Y-109115190D01*
X67365619Y-109115190D01*
X67365619Y-108496142D02*
X67413238Y-108591380D01*
X67460857Y-108639000D01*
X67556095Y-108686619D01*
X67841809Y-108686619D01*
X67937047Y-108639000D01*
X67984666Y-108591380D01*
X68032285Y-108496142D01*
X68032285Y-108353285D01*
X67984666Y-108258047D01*
X67937047Y-108210428D01*
X67841809Y-108162809D01*
X67556095Y-108162809D01*
X67460857Y-108210428D01*
X67413238Y-108258047D01*
X67365619Y-108353285D01*
X67365619Y-108496142D01*
X68032285Y-107877095D02*
X68032285Y-107496142D01*
X68365619Y-107734238D02*
X67508476Y-107734238D01*
X67413238Y-107686619D01*
X67365619Y-107591380D01*
X67365619Y-107496142D01*
X68032285Y-106543761D02*
X68032285Y-106162809D01*
X68365619Y-106400904D02*
X67508476Y-106400904D01*
X67413238Y-106353285D01*
X67365619Y-106258047D01*
X67365619Y-106162809D01*
X67365619Y-105686619D02*
X67413238Y-105781857D01*
X67460857Y-105829476D01*
X67556095Y-105877095D01*
X67841809Y-105877095D01*
X67937047Y-105829476D01*
X67984666Y-105781857D01*
X68032285Y-105686619D01*
X68032285Y-105543761D01*
X67984666Y-105448523D01*
X67937047Y-105400904D01*
X67841809Y-105353285D01*
X67556095Y-105353285D01*
X67460857Y-105400904D01*
X67413238Y-105448523D01*
X67365619Y-105543761D01*
X67365619Y-105686619D01*
X67365619Y-104162809D02*
X68365619Y-104162809D01*
X67984666Y-104162809D02*
X68032285Y-104067571D01*
X68032285Y-103877095D01*
X67984666Y-103781857D01*
X67937047Y-103734238D01*
X67841809Y-103686619D01*
X67556095Y-103686619D01*
X67460857Y-103734238D01*
X67413238Y-103781857D01*
X67365619Y-103877095D01*
X67365619Y-104067571D01*
X67413238Y-104162809D01*
X67413238Y-102877095D02*
X67365619Y-102972333D01*
X67365619Y-103162809D01*
X67413238Y-103258047D01*
X67508476Y-103305666D01*
X67889428Y-103305666D01*
X67984666Y-103258047D01*
X68032285Y-103162809D01*
X68032285Y-102972333D01*
X67984666Y-102877095D01*
X67889428Y-102829476D01*
X67794190Y-102829476D01*
X67698952Y-103305666D01*
X68032285Y-101210428D02*
X67365619Y-101210428D01*
X68032285Y-101639000D02*
X67508476Y-101639000D01*
X67413238Y-101591380D01*
X67365619Y-101496142D01*
X67365619Y-101353285D01*
X67413238Y-101258047D01*
X67460857Y-101210428D01*
X67413238Y-100781857D02*
X67365619Y-100686619D01*
X67365619Y-100496142D01*
X67413238Y-100400904D01*
X67508476Y-100353285D01*
X67556095Y-100353285D01*
X67651333Y-100400904D01*
X67698952Y-100496142D01*
X67698952Y-100639000D01*
X67746571Y-100734238D01*
X67841809Y-100781857D01*
X67889428Y-100781857D01*
X67984666Y-100734238D01*
X68032285Y-100639000D01*
X68032285Y-100496142D01*
X67984666Y-100400904D01*
X67413238Y-99543761D02*
X67365619Y-99639000D01*
X67365619Y-99829476D01*
X67413238Y-99924714D01*
X67508476Y-99972333D01*
X67889428Y-99972333D01*
X67984666Y-99924714D01*
X68032285Y-99829476D01*
X68032285Y-99639000D01*
X67984666Y-99543761D01*
X67889428Y-99496142D01*
X67794190Y-99496142D01*
X67698952Y-99972333D01*
X67365619Y-98639000D02*
X68365619Y-98639000D01*
X67413238Y-98639000D02*
X67365619Y-98734238D01*
X67365619Y-98924714D01*
X67413238Y-99019952D01*
X67460857Y-99067571D01*
X67556095Y-99115190D01*
X67841809Y-99115190D01*
X67937047Y-99067571D01*
X67984666Y-99019952D01*
X68032285Y-98924714D01*
X68032285Y-98734238D01*
X67984666Y-98639000D01*
X68032285Y-97543761D02*
X68032285Y-97162809D01*
X67365619Y-97400904D02*
X68222761Y-97400904D01*
X68318000Y-97353285D01*
X68365619Y-97258047D01*
X68365619Y-97162809D01*
X67365619Y-96686619D02*
X67413238Y-96781857D01*
X67460857Y-96829476D01*
X67556095Y-96877095D01*
X67841809Y-96877095D01*
X67937047Y-96829476D01*
X67984666Y-96781857D01*
X68032285Y-96686619D01*
X68032285Y-96543761D01*
X67984666Y-96448523D01*
X67937047Y-96400904D01*
X67841809Y-96353285D01*
X67556095Y-96353285D01*
X67460857Y-96400904D01*
X67413238Y-96448523D01*
X67365619Y-96543761D01*
X67365619Y-96686619D01*
X67365619Y-95924714D02*
X68032285Y-95924714D01*
X67841809Y-95924714D02*
X67937047Y-95877095D01*
X67984666Y-95829476D01*
X68032285Y-95734238D01*
X68032285Y-95639000D01*
X67413238Y-94115190D02*
X67365619Y-94210428D01*
X67365619Y-94400904D01*
X67413238Y-94496142D01*
X67460857Y-94543761D01*
X67556095Y-94591380D01*
X67841809Y-94591380D01*
X67937047Y-94543761D01*
X67984666Y-94496142D01*
X68032285Y-94400904D01*
X68032285Y-94210428D01*
X67984666Y-94115190D01*
X67365619Y-93543761D02*
X67413238Y-93639000D01*
X67460857Y-93686619D01*
X67556095Y-93734238D01*
X67841809Y-93734238D01*
X67937047Y-93686619D01*
X67984666Y-93639000D01*
X68032285Y-93543761D01*
X68032285Y-93400904D01*
X67984666Y-93305666D01*
X67937047Y-93258047D01*
X67841809Y-93210428D01*
X67556095Y-93210428D01*
X67460857Y-93258047D01*
X67413238Y-93305666D01*
X67365619Y-93400904D01*
X67365619Y-93543761D01*
X67365619Y-92781857D02*
X68032285Y-92781857D01*
X67937047Y-92781857D02*
X67984666Y-92734238D01*
X68032285Y-92639000D01*
X68032285Y-92496142D01*
X67984666Y-92400904D01*
X67889428Y-92353285D01*
X67365619Y-92353285D01*
X67889428Y-92353285D02*
X67984666Y-92305666D01*
X68032285Y-92210428D01*
X68032285Y-92067571D01*
X67984666Y-91972333D01*
X67889428Y-91924714D01*
X67365619Y-91924714D01*
X67365619Y-91448523D02*
X68032285Y-91448523D01*
X67937047Y-91448523D02*
X67984666Y-91400904D01*
X68032285Y-91305666D01*
X68032285Y-91162809D01*
X67984666Y-91067571D01*
X67889428Y-91019952D01*
X67365619Y-91019952D01*
X67889428Y-91019952D02*
X67984666Y-90972333D01*
X68032285Y-90877095D01*
X68032285Y-90734238D01*
X67984666Y-90639000D01*
X67889428Y-90591380D01*
X67365619Y-90591380D01*
X67413238Y-89734238D02*
X67365619Y-89829476D01*
X67365619Y-90019952D01*
X67413238Y-90115190D01*
X67508476Y-90162809D01*
X67889428Y-90162809D01*
X67984666Y-90115190D01*
X68032285Y-90019952D01*
X68032285Y-89829476D01*
X67984666Y-89734238D01*
X67889428Y-89686619D01*
X67794190Y-89686619D01*
X67698952Y-90162809D01*
X67365619Y-89258047D02*
X68032285Y-89258047D01*
X67841809Y-89258047D02*
X67937047Y-89210428D01*
X67984666Y-89162809D01*
X68032285Y-89067571D01*
X68032285Y-88972333D01*
X67413238Y-88210428D02*
X67365619Y-88305666D01*
X67365619Y-88496142D01*
X67413238Y-88591380D01*
X67460857Y-88639000D01*
X67556095Y-88686619D01*
X67841809Y-88686619D01*
X67937047Y-88639000D01*
X67984666Y-88591380D01*
X68032285Y-88496142D01*
X68032285Y-88305666D01*
X67984666Y-88210428D01*
X67365619Y-87781857D02*
X68032285Y-87781857D01*
X68365619Y-87781857D02*
X68318000Y-87829476D01*
X68270380Y-87781857D01*
X68318000Y-87734238D01*
X68365619Y-87781857D01*
X68270380Y-87781857D01*
X67365619Y-86877095D02*
X67889428Y-86877095D01*
X67984666Y-86924714D01*
X68032285Y-87019952D01*
X68032285Y-87210428D01*
X67984666Y-87305666D01*
X67413238Y-86877095D02*
X67365619Y-86972333D01*
X67365619Y-87210428D01*
X67413238Y-87305666D01*
X67508476Y-87353285D01*
X67603714Y-87353285D01*
X67698952Y-87305666D01*
X67746571Y-87210428D01*
X67746571Y-86972333D01*
X67794190Y-86877095D01*
X67365619Y-86258047D02*
X67413238Y-86353285D01*
X67508476Y-86400904D01*
X68365619Y-86400904D01*
X68032285Y-85115190D02*
X67032285Y-85115190D01*
X67984666Y-85115190D02*
X68032285Y-85019952D01*
X68032285Y-84829476D01*
X67984666Y-84734238D01*
X67937047Y-84686619D01*
X67841809Y-84639000D01*
X67556095Y-84639000D01*
X67460857Y-84686619D01*
X67413238Y-84734238D01*
X67365619Y-84829476D01*
X67365619Y-85019952D01*
X67413238Y-85115190D01*
X68032285Y-83781857D02*
X67365619Y-83781857D01*
X68032285Y-84210428D02*
X67508476Y-84210428D01*
X67413238Y-84162809D01*
X67365619Y-84067571D01*
X67365619Y-83924714D01*
X67413238Y-83829476D01*
X67460857Y-83781857D01*
X67365619Y-83305666D02*
X68032285Y-83305666D01*
X67841809Y-83305666D02*
X67937047Y-83258047D01*
X67984666Y-83210428D01*
X68032285Y-83115190D01*
X68032285Y-83019952D01*
X68032285Y-82686619D02*
X67032285Y-82686619D01*
X67984666Y-82686619D02*
X68032285Y-82591380D01*
X68032285Y-82400904D01*
X67984666Y-82305666D01*
X67937047Y-82258047D01*
X67841809Y-82210428D01*
X67556095Y-82210428D01*
X67460857Y-82258047D01*
X67413238Y-82305666D01*
X67365619Y-82400904D01*
X67365619Y-82591380D01*
X67413238Y-82686619D01*
X67365619Y-81639000D02*
X67413238Y-81734238D01*
X67460857Y-81781857D01*
X67556095Y-81829476D01*
X67841809Y-81829476D01*
X67937047Y-81781857D01*
X67984666Y-81734238D01*
X68032285Y-81639000D01*
X68032285Y-81496142D01*
X67984666Y-81400904D01*
X67937047Y-81353285D01*
X67841809Y-81305666D01*
X67556095Y-81305666D01*
X67460857Y-81353285D01*
X67413238Y-81400904D01*
X67365619Y-81496142D01*
X67365619Y-81639000D01*
X67413238Y-80924714D02*
X67365619Y-80829476D01*
X67365619Y-80639000D01*
X67413238Y-80543761D01*
X67508476Y-80496142D01*
X67556095Y-80496142D01*
X67651333Y-80543761D01*
X67698952Y-80639000D01*
X67698952Y-80781857D01*
X67746571Y-80877095D01*
X67841809Y-80924714D01*
X67889428Y-80924714D01*
X67984666Y-80877095D01*
X68032285Y-80781857D01*
X68032285Y-80639000D01*
X67984666Y-80543761D01*
X67413238Y-79686619D02*
X67365619Y-79781857D01*
X67365619Y-79972333D01*
X67413238Y-80067571D01*
X67508476Y-80115190D01*
X67889428Y-80115190D01*
X67984666Y-80067571D01*
X68032285Y-79972333D01*
X68032285Y-79781857D01*
X67984666Y-79686619D01*
X67889428Y-79639000D01*
X67794190Y-79639000D01*
X67698952Y-80115190D01*
X67413238Y-79258047D02*
X67365619Y-79162809D01*
X67365619Y-78972333D01*
X67413238Y-78877095D01*
X67508476Y-78829476D01*
X67556095Y-78829476D01*
X67651333Y-78877095D01*
X67698952Y-78972333D01*
X67698952Y-79115190D01*
X67746571Y-79210428D01*
X67841809Y-79258047D01*
X67889428Y-79258047D01*
X67984666Y-79210428D01*
X68032285Y-79115190D01*
X68032285Y-78972333D01*
X67984666Y-78877095D01*
X65065619Y-115781857D02*
X64065619Y-115543761D01*
X64779904Y-115353285D01*
X64065619Y-115162809D01*
X65065619Y-114924714D01*
X64113238Y-114162809D02*
X64065619Y-114258047D01*
X64065619Y-114448523D01*
X64113238Y-114543761D01*
X64208476Y-114591380D01*
X64589428Y-114591380D01*
X64684666Y-114543761D01*
X64732285Y-114448523D01*
X64732285Y-114258047D01*
X64684666Y-114162809D01*
X64589428Y-114115190D01*
X64494190Y-114115190D01*
X64398952Y-114591380D01*
X64732285Y-113067571D02*
X64732285Y-112686619D01*
X65065619Y-112924714D02*
X64208476Y-112924714D01*
X64113238Y-112877095D01*
X64065619Y-112781857D01*
X64065619Y-112686619D01*
X64065619Y-111924714D02*
X64589428Y-111924714D01*
X64684666Y-111972333D01*
X64732285Y-112067571D01*
X64732285Y-112258047D01*
X64684666Y-112353285D01*
X64113238Y-111924714D02*
X64065619Y-112019952D01*
X64065619Y-112258047D01*
X64113238Y-112353285D01*
X64208476Y-112400904D01*
X64303714Y-112400904D01*
X64398952Y-112353285D01*
X64446571Y-112258047D01*
X64446571Y-112019952D01*
X64494190Y-111924714D01*
X64065619Y-111448523D02*
X65065619Y-111448523D01*
X64446571Y-111353285D02*
X64065619Y-111067571D01*
X64732285Y-111067571D02*
X64351333Y-111448523D01*
X64113238Y-110258047D02*
X64065619Y-110353285D01*
X64065619Y-110543761D01*
X64113238Y-110639000D01*
X64208476Y-110686619D01*
X64589428Y-110686619D01*
X64684666Y-110639000D01*
X64732285Y-110543761D01*
X64732285Y-110353285D01*
X64684666Y-110258047D01*
X64589428Y-110210428D01*
X64494190Y-110210428D01*
X64398952Y-110686619D01*
X64732285Y-109019952D02*
X64065619Y-109019952D01*
X64637047Y-109019952D02*
X64684666Y-108972333D01*
X64732285Y-108877095D01*
X64732285Y-108734238D01*
X64684666Y-108639000D01*
X64589428Y-108591380D01*
X64065619Y-108591380D01*
X64065619Y-107972333D02*
X64113238Y-108067571D01*
X64160857Y-108115190D01*
X64256095Y-108162809D01*
X64541809Y-108162809D01*
X64637047Y-108115190D01*
X64684666Y-108067571D01*
X64732285Y-107972333D01*
X64732285Y-107829476D01*
X64684666Y-107734238D01*
X64637047Y-107686619D01*
X64541809Y-107639000D01*
X64256095Y-107639000D01*
X64160857Y-107686619D01*
X64113238Y-107734238D01*
X64065619Y-107829476D01*
X64065619Y-107972333D01*
X64065619Y-106448523D02*
X64732285Y-106448523D01*
X64541809Y-106448523D02*
X64637047Y-106400904D01*
X64684666Y-106353285D01*
X64732285Y-106258047D01*
X64732285Y-106162809D01*
X64113238Y-105448523D02*
X64065619Y-105543761D01*
X64065619Y-105734238D01*
X64113238Y-105829476D01*
X64208476Y-105877095D01*
X64589428Y-105877095D01*
X64684666Y-105829476D01*
X64732285Y-105734238D01*
X64732285Y-105543761D01*
X64684666Y-105448523D01*
X64589428Y-105400904D01*
X64494190Y-105400904D01*
X64398952Y-105877095D01*
X64113238Y-105019952D02*
X64065619Y-104924714D01*
X64065619Y-104734238D01*
X64113238Y-104639000D01*
X64208476Y-104591380D01*
X64256095Y-104591380D01*
X64351333Y-104639000D01*
X64398952Y-104734238D01*
X64398952Y-104877095D01*
X64446571Y-104972333D01*
X64541809Y-105019952D01*
X64589428Y-105019952D01*
X64684666Y-104972333D01*
X64732285Y-104877095D01*
X64732285Y-104734238D01*
X64684666Y-104639000D01*
X64732285Y-104162809D02*
X63732285Y-104162809D01*
X64684666Y-104162809D02*
X64732285Y-104067571D01*
X64732285Y-103877095D01*
X64684666Y-103781857D01*
X64637047Y-103734238D01*
X64541809Y-103686619D01*
X64256095Y-103686619D01*
X64160857Y-103734238D01*
X64113238Y-103781857D01*
X64065619Y-103877095D01*
X64065619Y-104067571D01*
X64113238Y-104162809D01*
X64065619Y-103115190D02*
X64113238Y-103210428D01*
X64160857Y-103258047D01*
X64256095Y-103305666D01*
X64541809Y-103305666D01*
X64637047Y-103258047D01*
X64684666Y-103210428D01*
X64732285Y-103115190D01*
X64732285Y-102972333D01*
X64684666Y-102877095D01*
X64637047Y-102829476D01*
X64541809Y-102781857D01*
X64256095Y-102781857D01*
X64160857Y-102829476D01*
X64113238Y-102877095D01*
X64065619Y-102972333D01*
X64065619Y-103115190D01*
X64732285Y-102353285D02*
X64065619Y-102353285D01*
X64637047Y-102353285D02*
X64684666Y-102305666D01*
X64732285Y-102210428D01*
X64732285Y-102067571D01*
X64684666Y-101972333D01*
X64589428Y-101924714D01*
X64065619Y-101924714D01*
X64113238Y-101496142D02*
X64065619Y-101400904D01*
X64065619Y-101210428D01*
X64113238Y-101115190D01*
X64208476Y-101067571D01*
X64256095Y-101067571D01*
X64351333Y-101115190D01*
X64398952Y-101210428D01*
X64398952Y-101353285D01*
X64446571Y-101448523D01*
X64541809Y-101496142D01*
X64589428Y-101496142D01*
X64684666Y-101448523D01*
X64732285Y-101353285D01*
X64732285Y-101210428D01*
X64684666Y-101115190D01*
X64065619Y-100639000D02*
X64732285Y-100639000D01*
X65065619Y-100639000D02*
X65018000Y-100686619D01*
X64970380Y-100639000D01*
X65018000Y-100591380D01*
X65065619Y-100639000D01*
X64970380Y-100639000D01*
X64065619Y-100162809D02*
X65065619Y-100162809D01*
X64684666Y-100162809D02*
X64732285Y-100067571D01*
X64732285Y-99877095D01*
X64684666Y-99781857D01*
X64637047Y-99734238D01*
X64541809Y-99686619D01*
X64256095Y-99686619D01*
X64160857Y-99734238D01*
X64113238Y-99781857D01*
X64065619Y-99877095D01*
X64065619Y-100067571D01*
X64113238Y-100162809D01*
X64065619Y-99258047D02*
X64732285Y-99258047D01*
X65065619Y-99258047D02*
X65018000Y-99305666D01*
X64970380Y-99258047D01*
X65018000Y-99210428D01*
X65065619Y-99258047D01*
X64970380Y-99258047D01*
X64065619Y-98639000D02*
X64113238Y-98734238D01*
X64208476Y-98781857D01*
X65065619Y-98781857D01*
X64065619Y-98258047D02*
X64732285Y-98258047D01*
X65065619Y-98258047D02*
X65018000Y-98305666D01*
X64970380Y-98258047D01*
X65018000Y-98210428D01*
X65065619Y-98258047D01*
X64970380Y-98258047D01*
X64732285Y-97924714D02*
X64732285Y-97543761D01*
X65065619Y-97781857D02*
X64208476Y-97781857D01*
X64113238Y-97734238D01*
X64065619Y-97639000D01*
X64065619Y-97543761D01*
X64732285Y-97305666D02*
X64065619Y-97067571D01*
X64732285Y-96829476D02*
X64065619Y-97067571D01*
X63827523Y-97162809D01*
X63779904Y-97210428D01*
X63732285Y-97305666D01*
X64732285Y-95829476D02*
X64732285Y-95448523D01*
X64065619Y-95686619D02*
X64922761Y-95686619D01*
X65018000Y-95639000D01*
X65065619Y-95543761D01*
X65065619Y-95448523D01*
X64065619Y-94972333D02*
X64113238Y-95067571D01*
X64160857Y-95115190D01*
X64256095Y-95162809D01*
X64541809Y-95162809D01*
X64637047Y-95115190D01*
X64684666Y-95067571D01*
X64732285Y-94972333D01*
X64732285Y-94829476D01*
X64684666Y-94734238D01*
X64637047Y-94686619D01*
X64541809Y-94639000D01*
X64256095Y-94639000D01*
X64160857Y-94686619D01*
X64113238Y-94734238D01*
X64065619Y-94829476D01*
X64065619Y-94972333D01*
X64065619Y-94210428D02*
X64732285Y-94210428D01*
X64541809Y-94210428D02*
X64637047Y-94162809D01*
X64684666Y-94115190D01*
X64732285Y-94019952D01*
X64732285Y-93924714D01*
X64065619Y-92400904D02*
X64589428Y-92400904D01*
X64684666Y-92448523D01*
X64732285Y-92543761D01*
X64732285Y-92734238D01*
X64684666Y-92829476D01*
X64113238Y-92400904D02*
X64065619Y-92496142D01*
X64065619Y-92734238D01*
X64113238Y-92829476D01*
X64208476Y-92877095D01*
X64303714Y-92877095D01*
X64398952Y-92829476D01*
X64446571Y-92734238D01*
X64446571Y-92496142D01*
X64494190Y-92400904D01*
X64732285Y-91924714D02*
X64065619Y-91924714D01*
X64637047Y-91924714D02*
X64684666Y-91877095D01*
X64732285Y-91781857D01*
X64732285Y-91639000D01*
X64684666Y-91543761D01*
X64589428Y-91496142D01*
X64065619Y-91496142D01*
X64732285Y-91115190D02*
X64065619Y-90877095D01*
X64732285Y-90639000D02*
X64065619Y-90877095D01*
X63827523Y-90972333D01*
X63779904Y-91019952D01*
X63732285Y-91115190D01*
X64732285Y-90400904D02*
X64732285Y-90019952D01*
X65065619Y-90258047D02*
X64208476Y-90258047D01*
X64113238Y-90210428D01*
X64065619Y-90115190D01*
X64065619Y-90019952D01*
X64065619Y-89686619D02*
X65065619Y-89686619D01*
X64065619Y-89258047D02*
X64589428Y-89258047D01*
X64684666Y-89305666D01*
X64732285Y-89400904D01*
X64732285Y-89543761D01*
X64684666Y-89639000D01*
X64637047Y-89686619D01*
X64065619Y-88781857D02*
X64732285Y-88781857D01*
X65065619Y-88781857D02*
X65018000Y-88829476D01*
X64970380Y-88781857D01*
X65018000Y-88734238D01*
X65065619Y-88781857D01*
X64970380Y-88781857D01*
X64732285Y-88305666D02*
X64065619Y-88305666D01*
X64637047Y-88305666D02*
X64684666Y-88258047D01*
X64732285Y-88162809D01*
X64732285Y-88019952D01*
X64684666Y-87924714D01*
X64589428Y-87877095D01*
X64065619Y-87877095D01*
X64732285Y-86972333D02*
X63922761Y-86972333D01*
X63827523Y-87019952D01*
X63779904Y-87067571D01*
X63732285Y-87162809D01*
X63732285Y-87305666D01*
X63779904Y-87400904D01*
X64113238Y-86972333D02*
X64065619Y-87067571D01*
X64065619Y-87258047D01*
X64113238Y-87353285D01*
X64160857Y-87400904D01*
X64256095Y-87448523D01*
X64541809Y-87448523D01*
X64637047Y-87400904D01*
X64684666Y-87353285D01*
X64732285Y-87258047D01*
X64732285Y-87067571D01*
X64684666Y-86972333D01*
X64732285Y-85877095D02*
X64732285Y-85496142D01*
X65065619Y-85734238D02*
X64208476Y-85734238D01*
X64113238Y-85686619D01*
X64065619Y-85591380D01*
X64065619Y-85496142D01*
X64065619Y-85019952D02*
X64113238Y-85115190D01*
X64160857Y-85162809D01*
X64256095Y-85210428D01*
X64541809Y-85210428D01*
X64637047Y-85162809D01*
X64684666Y-85115190D01*
X64732285Y-85019952D01*
X64732285Y-84877095D01*
X64684666Y-84781857D01*
X64637047Y-84734238D01*
X64541809Y-84686619D01*
X64256095Y-84686619D01*
X64160857Y-84734238D01*
X64113238Y-84781857D01*
X64065619Y-84877095D01*
X64065619Y-85019952D01*
X64065619Y-83067571D02*
X65065619Y-83067571D01*
X64113238Y-83067571D02*
X64065619Y-83162809D01*
X64065619Y-83353285D01*
X64113238Y-83448523D01*
X64160857Y-83496142D01*
X64256095Y-83543761D01*
X64541809Y-83543761D01*
X64637047Y-83496142D01*
X64684666Y-83448523D01*
X64732285Y-83353285D01*
X64732285Y-83162809D01*
X64684666Y-83067571D01*
X64065619Y-82448523D02*
X64113238Y-82543761D01*
X64160857Y-82591380D01*
X64256095Y-82639000D01*
X64541809Y-82639000D01*
X64637047Y-82591380D01*
X64684666Y-82543761D01*
X64732285Y-82448523D01*
X64732285Y-82305666D01*
X64684666Y-82210428D01*
X64637047Y-82162809D01*
X64541809Y-82115190D01*
X64256095Y-82115190D01*
X64160857Y-82162809D01*
X64113238Y-82210428D01*
X64065619Y-82305666D01*
X64065619Y-82448523D01*
X64732285Y-81019952D02*
X64065619Y-80829476D01*
X64541809Y-80639000D01*
X64065619Y-80448523D01*
X64732285Y-80258047D01*
X64065619Y-79877095D02*
X64732285Y-79877095D01*
X65065619Y-79877095D02*
X65018000Y-79924714D01*
X64970380Y-79877095D01*
X65018000Y-79829476D01*
X65065619Y-79877095D01*
X64970380Y-79877095D01*
X64732285Y-79543761D02*
X64732285Y-79162809D01*
X65065619Y-79400904D02*
X64208476Y-79400904D01*
X64113238Y-79353285D01*
X64065619Y-79258047D01*
X64065619Y-79162809D01*
X64065619Y-78829476D02*
X65065619Y-78829476D01*
X64065619Y-78400904D02*
X64589428Y-78400904D01*
X64684666Y-78448523D01*
X64732285Y-78543761D01*
X64732285Y-78686619D01*
X64684666Y-78781857D01*
X64637047Y-78829476D01*
X64065619Y-77162809D02*
X64732285Y-77162809D01*
X65065619Y-77162809D02*
X65018000Y-77210428D01*
X64970380Y-77162809D01*
X65018000Y-77115190D01*
X65065619Y-77162809D01*
X64970380Y-77162809D01*
X64732285Y-76829476D02*
X64732285Y-76448523D01*
X65065619Y-76686619D02*
X64208476Y-76686619D01*
X64113238Y-76639000D01*
X64065619Y-76543761D01*
X64065619Y-76448523D01*
D11*
X92964000Y-64770000D02*
X92964000Y-128016000D01*
X46736000Y-64770000D02*
X92964000Y-64770000D01*
X46736000Y-128016000D02*
X46736000Y-64770000D01*
X92964000Y-128016000D02*
X46736000Y-128016000D01*
M02*
