%TF.GenerationSoftware,KiCad,Pcbnew,(5.1.5)-3*%
%TF.CreationDate,2020-04-11T16:30:29+01:00*%
%TF.ProjectId,EPCTest2,45504354-6573-4743-922e-6b696361645f,rev?*%
%TF.SameCoordinates,Original*%
%TF.FileFunction,Soldermask,Top*%
%TF.FilePolarity,Negative*%
%FSLAX46Y46*%
G04 Gerber Fmt 4.6, Leading zero omitted, Abs format (unit mm)*
G04 Created by KiCad (PCBNEW (5.1.5)-3) date 2020-04-11 16:30:29*
%MOMM*%
%LPD*%
G04 APERTURE LIST*
%TA.AperFunction,Profile*%
%ADD10C,0.100000*%
%TD*%
%ADD11C,0.150000*%
G04 APERTURE END LIST*
D10*
X92964000Y-64770000D02*
X92964000Y-128016000D01*
X46736000Y-64770000D02*
X92964000Y-64770000D01*
X46736000Y-128016000D02*
X46736000Y-64770000D01*
X92964000Y-128016000D02*
X46736000Y-128016000D01*
D11*
G36*
X49643512Y-124833927D02*
G01*
X49792812Y-124863624D01*
X49956784Y-124931544D01*
X50104354Y-125030147D01*
X50229853Y-125155646D01*
X50328456Y-125303216D01*
X50396376Y-125467188D01*
X50431000Y-125641259D01*
X50431000Y-125818741D01*
X50396376Y-125992812D01*
X50328456Y-126156784D01*
X50229853Y-126304354D01*
X50104354Y-126429853D01*
X49956784Y-126528456D01*
X49792812Y-126596376D01*
X49643512Y-126626073D01*
X49618742Y-126631000D01*
X49441258Y-126631000D01*
X49416488Y-126626073D01*
X49267188Y-126596376D01*
X49103216Y-126528456D01*
X48955646Y-126429853D01*
X48830147Y-126304354D01*
X48731544Y-126156784D01*
X48663624Y-125992812D01*
X48629000Y-125818741D01*
X48629000Y-125641259D01*
X48663624Y-125467188D01*
X48731544Y-125303216D01*
X48830147Y-125155646D01*
X48955646Y-125030147D01*
X49103216Y-124931544D01*
X49267188Y-124863624D01*
X49416488Y-124833927D01*
X49441258Y-124829000D01*
X49618742Y-124829000D01*
X49643512Y-124833927D01*
G37*
G36*
X49643512Y-122293927D02*
G01*
X49792812Y-122323624D01*
X49956784Y-122391544D01*
X50104354Y-122490147D01*
X50229853Y-122615646D01*
X50328456Y-122763216D01*
X50396376Y-122927188D01*
X50431000Y-123101259D01*
X50431000Y-123278741D01*
X50396376Y-123452812D01*
X50328456Y-123616784D01*
X50229853Y-123764354D01*
X50104354Y-123889853D01*
X49956784Y-123988456D01*
X49792812Y-124056376D01*
X49643512Y-124086073D01*
X49618742Y-124091000D01*
X49441258Y-124091000D01*
X49416488Y-124086073D01*
X49267188Y-124056376D01*
X49103216Y-123988456D01*
X48955646Y-123889853D01*
X48830147Y-123764354D01*
X48731544Y-123616784D01*
X48663624Y-123452812D01*
X48629000Y-123278741D01*
X48629000Y-123101259D01*
X48663624Y-122927188D01*
X48731544Y-122763216D01*
X48830147Y-122615646D01*
X48955646Y-122490147D01*
X49103216Y-122391544D01*
X49267188Y-122323624D01*
X49416488Y-122293927D01*
X49441258Y-122289000D01*
X49618742Y-122289000D01*
X49643512Y-122293927D01*
G37*
G36*
X49643512Y-119753927D02*
G01*
X49792812Y-119783624D01*
X49956784Y-119851544D01*
X50104354Y-119950147D01*
X50229853Y-120075646D01*
X50328456Y-120223216D01*
X50396376Y-120387188D01*
X50431000Y-120561259D01*
X50431000Y-120738741D01*
X50396376Y-120912812D01*
X50328456Y-121076784D01*
X50229853Y-121224354D01*
X50104354Y-121349853D01*
X49956784Y-121448456D01*
X49792812Y-121516376D01*
X49643512Y-121546073D01*
X49618742Y-121551000D01*
X49441258Y-121551000D01*
X49416488Y-121546073D01*
X49267188Y-121516376D01*
X49103216Y-121448456D01*
X48955646Y-121349853D01*
X48830147Y-121224354D01*
X48731544Y-121076784D01*
X48663624Y-120912812D01*
X48629000Y-120738741D01*
X48629000Y-120561259D01*
X48663624Y-120387188D01*
X48731544Y-120223216D01*
X48830147Y-120075646D01*
X48955646Y-119950147D01*
X49103216Y-119851544D01*
X49267188Y-119783624D01*
X49416488Y-119753927D01*
X49441258Y-119749000D01*
X49618742Y-119749000D01*
X49643512Y-119753927D01*
G37*
G36*
X58071000Y-120373000D02*
G01*
X56569000Y-120373000D01*
X56569000Y-119071000D01*
X58071000Y-119071000D01*
X58071000Y-120373000D01*
G37*
G36*
X60271000Y-120373000D02*
G01*
X58769000Y-120373000D01*
X58769000Y-119071000D01*
X60271000Y-119071000D01*
X60271000Y-120373000D01*
G37*
G36*
X61894000Y-120315000D02*
G01*
X61042000Y-120315000D01*
X61042000Y-119413000D01*
X61894000Y-119413000D01*
X61894000Y-120315000D01*
G37*
G36*
X55798000Y-120315000D02*
G01*
X54946000Y-120315000D01*
X54946000Y-119413000D01*
X55798000Y-119413000D01*
X55798000Y-120315000D01*
G37*
G36*
X54401000Y-119057000D02*
G01*
X53549000Y-119057000D01*
X53549000Y-118155000D01*
X54401000Y-118155000D01*
X54401000Y-119057000D01*
G37*
G36*
X49643512Y-117213927D02*
G01*
X49792812Y-117243624D01*
X49956784Y-117311544D01*
X50104354Y-117410147D01*
X50229853Y-117535646D01*
X50328456Y-117683216D01*
X50396376Y-117847188D01*
X50431000Y-118021259D01*
X50431000Y-118198741D01*
X50396376Y-118372812D01*
X50328456Y-118536784D01*
X50229853Y-118684354D01*
X50104354Y-118809853D01*
X49956784Y-118908456D01*
X49792812Y-118976376D01*
X49643512Y-119006073D01*
X49618742Y-119011000D01*
X49441258Y-119011000D01*
X49416488Y-119006073D01*
X49267188Y-118976376D01*
X49103216Y-118908456D01*
X48955646Y-118809853D01*
X48830147Y-118684354D01*
X48731544Y-118536784D01*
X48663624Y-118372812D01*
X48629000Y-118198741D01*
X48629000Y-118021259D01*
X48663624Y-117847188D01*
X48731544Y-117683216D01*
X48830147Y-117535646D01*
X48955646Y-117410147D01*
X49103216Y-117311544D01*
X49267188Y-117243624D01*
X49416488Y-117213927D01*
X49441258Y-117209000D01*
X49618742Y-117209000D01*
X49643512Y-117213927D01*
G37*
G36*
X61894000Y-118815000D02*
G01*
X61042000Y-118815000D01*
X61042000Y-117913000D01*
X61894000Y-117913000D01*
X61894000Y-118815000D01*
G37*
G36*
X55798000Y-118815000D02*
G01*
X54946000Y-118815000D01*
X54946000Y-117913000D01*
X55798000Y-117913000D01*
X55798000Y-118815000D01*
G37*
G36*
X60271000Y-118673000D02*
G01*
X58769000Y-118673000D01*
X58769000Y-117371000D01*
X60271000Y-117371000D01*
X60271000Y-118673000D01*
G37*
G36*
X58071000Y-118673000D02*
G01*
X56569000Y-118673000D01*
X56569000Y-117371000D01*
X58071000Y-117371000D01*
X58071000Y-118673000D01*
G37*
G36*
X54401000Y-117557000D02*
G01*
X53549000Y-117557000D01*
X53549000Y-116655000D01*
X54401000Y-116655000D01*
X54401000Y-117557000D01*
G37*
G36*
X62910000Y-117291000D02*
G01*
X62058000Y-117291000D01*
X62058000Y-116389000D01*
X62910000Y-116389000D01*
X62910000Y-117291000D01*
G37*
G36*
X49643512Y-114673927D02*
G01*
X49792812Y-114703624D01*
X49956784Y-114771544D01*
X50104354Y-114870147D01*
X50229853Y-114995646D01*
X50328456Y-115143216D01*
X50396376Y-115307188D01*
X50431000Y-115481259D01*
X50431000Y-115658741D01*
X50396376Y-115832812D01*
X50328456Y-115996784D01*
X50229853Y-116144354D01*
X50104354Y-116269853D01*
X49956784Y-116368456D01*
X49792812Y-116436376D01*
X49643512Y-116466073D01*
X49618742Y-116471000D01*
X49441258Y-116471000D01*
X49416488Y-116466073D01*
X49267188Y-116436376D01*
X49103216Y-116368456D01*
X48955646Y-116269853D01*
X48830147Y-116144354D01*
X48731544Y-115996784D01*
X48663624Y-115832812D01*
X48629000Y-115658741D01*
X48629000Y-115481259D01*
X48663624Y-115307188D01*
X48731544Y-115143216D01*
X48830147Y-114995646D01*
X48955646Y-114870147D01*
X49103216Y-114771544D01*
X49267188Y-114703624D01*
X49416488Y-114673927D01*
X49441258Y-114669000D01*
X49618742Y-114669000D01*
X49643512Y-114673927D01*
G37*
G36*
X62910000Y-115791000D02*
G01*
X62058000Y-115791000D01*
X62058000Y-114889000D01*
X62910000Y-114889000D01*
X62910000Y-115791000D01*
G37*
G36*
X70555000Y-115361000D02*
G01*
X69653000Y-115361000D01*
X69653000Y-114509000D01*
X70555000Y-114509000D01*
X70555000Y-115361000D01*
G37*
G36*
X72055000Y-115361000D02*
G01*
X71153000Y-115361000D01*
X71153000Y-114509000D01*
X72055000Y-114509000D01*
X72055000Y-115361000D01*
G37*
G36*
X55290000Y-115235000D02*
G01*
X54438000Y-115235000D01*
X54438000Y-114333000D01*
X55290000Y-114333000D01*
X55290000Y-115235000D01*
G37*
G36*
X68954000Y-115085000D02*
G01*
X67952000Y-115085000D01*
X67952000Y-114483000D01*
X68954000Y-114483000D01*
X68954000Y-115085000D01*
G37*
G36*
X85060549Y-112155116D02*
G01*
X85171734Y-112177232D01*
X85381203Y-112263997D01*
X85569720Y-112389960D01*
X85730040Y-112550280D01*
X85856003Y-112738797D01*
X85942768Y-112948266D01*
X85949491Y-112982066D01*
X85976678Y-113118741D01*
X85987000Y-113170636D01*
X85987000Y-113397364D01*
X85942768Y-113619734D01*
X85897155Y-113729853D01*
X85856313Y-113828456D01*
X85856003Y-113829203D01*
X85730040Y-114017720D01*
X85569720Y-114178040D01*
X85381203Y-114304003D01*
X85171734Y-114390768D01*
X85060549Y-114412884D01*
X84949365Y-114435000D01*
X84722635Y-114435000D01*
X84611451Y-114412884D01*
X84500266Y-114390768D01*
X84290797Y-114304003D01*
X84102280Y-114178040D01*
X83941960Y-114017720D01*
X83815997Y-113829203D01*
X83815688Y-113828456D01*
X83774845Y-113729853D01*
X83729232Y-113619734D01*
X83685000Y-113397364D01*
X83685000Y-113170636D01*
X83695323Y-113118741D01*
X83722509Y-112982066D01*
X83729232Y-112948266D01*
X83815997Y-112738797D01*
X83941960Y-112550280D01*
X84102280Y-112389960D01*
X84290797Y-112263997D01*
X84500266Y-112177232D01*
X84611451Y-112155116D01*
X84722635Y-112133000D01*
X84949365Y-112133000D01*
X85060549Y-112155116D01*
G37*
G36*
X90140549Y-112155116D02*
G01*
X90251734Y-112177232D01*
X90461203Y-112263997D01*
X90649720Y-112389960D01*
X90810040Y-112550280D01*
X90936003Y-112738797D01*
X91022768Y-112948266D01*
X91029491Y-112982066D01*
X91056678Y-113118741D01*
X91067000Y-113170636D01*
X91067000Y-113397364D01*
X91022768Y-113619734D01*
X90977155Y-113729853D01*
X90936313Y-113828456D01*
X90936003Y-113829203D01*
X90810040Y-114017720D01*
X90649720Y-114178040D01*
X90461203Y-114304003D01*
X90251734Y-114390768D01*
X90140549Y-114412884D01*
X90029365Y-114435000D01*
X89802635Y-114435000D01*
X89691451Y-114412884D01*
X89580266Y-114390768D01*
X89370797Y-114304003D01*
X89182280Y-114178040D01*
X89021960Y-114017720D01*
X88895997Y-113829203D01*
X88895688Y-113828456D01*
X88854845Y-113729853D01*
X88809232Y-113619734D01*
X88765000Y-113397364D01*
X88765000Y-113170636D01*
X88775323Y-113118741D01*
X88802509Y-112982066D01*
X88809232Y-112948266D01*
X88895997Y-112738797D01*
X89021960Y-112550280D01*
X89182280Y-112389960D01*
X89370797Y-112263997D01*
X89580266Y-112177232D01*
X89691451Y-112155116D01*
X89802635Y-112133000D01*
X90029365Y-112133000D01*
X90140549Y-112155116D01*
G37*
G36*
X82573000Y-114293000D02*
G01*
X81971000Y-114293000D01*
X81971000Y-113291000D01*
X82573000Y-113291000D01*
X82573000Y-114293000D01*
G37*
G36*
X81073000Y-114293000D02*
G01*
X80471000Y-114293000D01*
X80471000Y-113291000D01*
X81073000Y-113291000D01*
X81073000Y-114293000D01*
G37*
G36*
X79675000Y-114218000D02*
G01*
X78773000Y-114218000D01*
X78773000Y-113366000D01*
X79675000Y-113366000D01*
X79675000Y-114218000D01*
G37*
G36*
X73627000Y-114218000D02*
G01*
X72725000Y-114218000D01*
X72725000Y-113366000D01*
X73627000Y-113366000D01*
X73627000Y-114218000D01*
G37*
G36*
X78175000Y-114218000D02*
G01*
X77273000Y-114218000D01*
X77273000Y-113366000D01*
X78175000Y-113366000D01*
X78175000Y-114218000D01*
G37*
G36*
X75127000Y-114218000D02*
G01*
X74225000Y-114218000D01*
X74225000Y-113366000D01*
X75127000Y-113366000D01*
X75127000Y-114218000D01*
G37*
G36*
X59621000Y-110334001D02*
G01*
X59623402Y-110358387D01*
X59630515Y-110381836D01*
X59642066Y-110403447D01*
X59657611Y-110422389D01*
X59676553Y-110437934D01*
X59698164Y-110449485D01*
X59721613Y-110456598D01*
X59723242Y-110456758D01*
X59723402Y-110458387D01*
X59730515Y-110481836D01*
X59742066Y-110503447D01*
X59757611Y-110522389D01*
X59776553Y-110537934D01*
X59798164Y-110549485D01*
X59821613Y-110556598D01*
X59845999Y-110559000D01*
X60801000Y-110559000D01*
X60801000Y-112961000D01*
X59845999Y-112961000D01*
X59821613Y-112963402D01*
X59798164Y-112970515D01*
X59776553Y-112982066D01*
X59757611Y-112997611D01*
X59742066Y-113016553D01*
X59730515Y-113038164D01*
X59723402Y-113061613D01*
X59723242Y-113063242D01*
X59721613Y-113063402D01*
X59698164Y-113070515D01*
X59676553Y-113082066D01*
X59657611Y-113097611D01*
X59642066Y-113116553D01*
X59630515Y-113138164D01*
X59623402Y-113161613D01*
X59621000Y-113185999D01*
X59621000Y-114141000D01*
X57219000Y-114141000D01*
X57219000Y-113185999D01*
X57216598Y-113161613D01*
X57209485Y-113138164D01*
X57197934Y-113116553D01*
X57182389Y-113097611D01*
X57163447Y-113082066D01*
X57141836Y-113070515D01*
X57118387Y-113063402D01*
X57116758Y-113063242D01*
X57116598Y-113061613D01*
X57109485Y-113038164D01*
X57097934Y-113016553D01*
X57082389Y-112997611D01*
X57063447Y-112982066D01*
X57041836Y-112970515D01*
X57018387Y-112963402D01*
X56994001Y-112961000D01*
X56039000Y-112961000D01*
X56039000Y-110559000D01*
X56994001Y-110559000D01*
X57018387Y-110556598D01*
X57041836Y-110549485D01*
X57063447Y-110537934D01*
X57082389Y-110522389D01*
X57097934Y-110503447D01*
X57109485Y-110481836D01*
X57116598Y-110458387D01*
X57116758Y-110456758D01*
X57118387Y-110456598D01*
X57141836Y-110449485D01*
X57163447Y-110437934D01*
X57182389Y-110422389D01*
X57197934Y-110403447D01*
X57209485Y-110381836D01*
X57216598Y-110358387D01*
X57219000Y-110334001D01*
X57219000Y-109379000D01*
X59621000Y-109379000D01*
X59621000Y-110334001D01*
G37*
G36*
X64285000Y-114039000D02*
G01*
X63683000Y-114039000D01*
X63683000Y-113037000D01*
X64285000Y-113037000D01*
X64285000Y-114039000D01*
G37*
G36*
X62785000Y-114039000D02*
G01*
X62183000Y-114039000D01*
X62183000Y-113037000D01*
X62785000Y-113037000D01*
X62785000Y-114039000D01*
G37*
G36*
X49638851Y-112133000D02*
G01*
X49792812Y-112163624D01*
X49956784Y-112231544D01*
X50104354Y-112330147D01*
X50229853Y-112455646D01*
X50328456Y-112603216D01*
X50396376Y-112767188D01*
X50431000Y-112941259D01*
X50431000Y-113118741D01*
X50396376Y-113292812D01*
X50328456Y-113456784D01*
X50229853Y-113604354D01*
X50104354Y-113729853D01*
X49956784Y-113828456D01*
X49792812Y-113896376D01*
X49643512Y-113926073D01*
X49618742Y-113931000D01*
X49441258Y-113931000D01*
X49416488Y-113926073D01*
X49267188Y-113896376D01*
X49103216Y-113828456D01*
X48955646Y-113729853D01*
X48830147Y-113604354D01*
X48731544Y-113456784D01*
X48663624Y-113292812D01*
X48629000Y-113118741D01*
X48629000Y-112941259D01*
X48663624Y-112767188D01*
X48731544Y-112603216D01*
X48830147Y-112455646D01*
X48955646Y-112330147D01*
X49103216Y-112231544D01*
X49267188Y-112163624D01*
X49421149Y-112133000D01*
X49441258Y-112129000D01*
X49618742Y-112129000D01*
X49638851Y-112133000D01*
G37*
G36*
X55290000Y-113735000D02*
G01*
X54438000Y-113735000D01*
X54438000Y-112833000D01*
X55290000Y-112833000D01*
X55290000Y-113735000D01*
G37*
G36*
X66974000Y-113711000D02*
G01*
X66122000Y-113711000D01*
X66122000Y-112809000D01*
X66974000Y-112809000D01*
X66974000Y-113711000D01*
G37*
G36*
X72067000Y-113710000D02*
G01*
X71165000Y-113710000D01*
X71165000Y-112858000D01*
X72067000Y-112858000D01*
X72067000Y-113710000D01*
G37*
G36*
X70567000Y-113710000D02*
G01*
X69665000Y-113710000D01*
X69665000Y-112858000D01*
X70567000Y-112858000D01*
X70567000Y-113710000D01*
G37*
G36*
X68954000Y-113585000D02*
G01*
X67952000Y-113585000D01*
X67952000Y-112983000D01*
X68954000Y-112983000D01*
X68954000Y-113585000D01*
G37*
G36*
X73453000Y-112769000D02*
G01*
X72851000Y-112769000D01*
X72851000Y-111767000D01*
X73453000Y-111767000D01*
X73453000Y-112769000D01*
G37*
G36*
X74953000Y-112769000D02*
G01*
X74351000Y-112769000D01*
X74351000Y-111767000D01*
X74953000Y-111767000D01*
X74953000Y-112769000D01*
G37*
G36*
X76259000Y-112769000D02*
G01*
X75657000Y-112769000D01*
X75657000Y-111767000D01*
X76259000Y-111767000D01*
X76259000Y-112769000D01*
G37*
G36*
X77759000Y-112769000D02*
G01*
X77157000Y-112769000D01*
X77157000Y-111767000D01*
X77759000Y-111767000D01*
X77759000Y-112769000D01*
G37*
G36*
X79457000Y-112694000D02*
G01*
X78555000Y-112694000D01*
X78555000Y-111842000D01*
X79457000Y-111842000D01*
X79457000Y-112694000D01*
G37*
G36*
X80957000Y-112694000D02*
G01*
X80055000Y-112694000D01*
X80055000Y-111842000D01*
X80957000Y-111842000D01*
X80957000Y-112694000D01*
G37*
G36*
X70429000Y-112261000D02*
G01*
X69827000Y-112261000D01*
X69827000Y-111259000D01*
X70429000Y-111259000D01*
X70429000Y-112261000D01*
G37*
G36*
X65047000Y-112261000D02*
G01*
X64445000Y-112261000D01*
X64445000Y-111259000D01*
X65047000Y-111259000D01*
X65047000Y-112261000D01*
G37*
G36*
X71929000Y-112261000D02*
G01*
X71327000Y-112261000D01*
X71327000Y-111259000D01*
X71929000Y-111259000D01*
X71929000Y-112261000D01*
G37*
G36*
X63547000Y-112261000D02*
G01*
X62945000Y-112261000D01*
X62945000Y-111259000D01*
X63547000Y-111259000D01*
X63547000Y-112261000D01*
G37*
G36*
X66974000Y-112211000D02*
G01*
X66122000Y-112211000D01*
X66122000Y-111309000D01*
X66974000Y-111309000D01*
X66974000Y-112211000D01*
G37*
G36*
X68879000Y-112211000D02*
G01*
X68027000Y-112211000D01*
X68027000Y-111309000D01*
X68879000Y-111309000D01*
X68879000Y-112211000D01*
G37*
G36*
X87682564Y-109733389D02*
G01*
X87873833Y-109812615D01*
X87873835Y-109812616D01*
X88045973Y-109927635D01*
X88192365Y-110074027D01*
X88294705Y-110227189D01*
X88307385Y-110246167D01*
X88386611Y-110437436D01*
X88427000Y-110640484D01*
X88427000Y-110847516D01*
X88386611Y-111050564D01*
X88326784Y-111195000D01*
X88307384Y-111241835D01*
X88192365Y-111413973D01*
X88045973Y-111560365D01*
X87873835Y-111675384D01*
X87873834Y-111675385D01*
X87873833Y-111675385D01*
X87682564Y-111754611D01*
X87479516Y-111795000D01*
X87272484Y-111795000D01*
X87069436Y-111754611D01*
X86878167Y-111675385D01*
X86878166Y-111675385D01*
X86878165Y-111675384D01*
X86706027Y-111560365D01*
X86559635Y-111413973D01*
X86444616Y-111241835D01*
X86425216Y-111195000D01*
X86365389Y-111050564D01*
X86325000Y-110847516D01*
X86325000Y-110640484D01*
X86365389Y-110437436D01*
X86444615Y-110246167D01*
X86457296Y-110227189D01*
X86559635Y-110074027D01*
X86706027Y-109927635D01*
X86878165Y-109812616D01*
X86878167Y-109812615D01*
X87069436Y-109733389D01*
X87272484Y-109693000D01*
X87479516Y-109693000D01*
X87682564Y-109733389D01*
G37*
G36*
X49643512Y-109593927D02*
G01*
X49792812Y-109623624D01*
X49956784Y-109691544D01*
X50104354Y-109790147D01*
X50229853Y-109915646D01*
X50328456Y-110063216D01*
X50396376Y-110227188D01*
X50431000Y-110401259D01*
X50431000Y-110578741D01*
X50396376Y-110752812D01*
X50328456Y-110916784D01*
X50229853Y-111064354D01*
X50104354Y-111189853D01*
X49956784Y-111288456D01*
X49792812Y-111356376D01*
X49643512Y-111386073D01*
X49618742Y-111391000D01*
X49441258Y-111391000D01*
X49416488Y-111386073D01*
X49267188Y-111356376D01*
X49103216Y-111288456D01*
X48955646Y-111189853D01*
X48830147Y-111064354D01*
X48731544Y-110916784D01*
X48663624Y-110752812D01*
X48629000Y-110578741D01*
X48629000Y-110401259D01*
X48663624Y-110227188D01*
X48731544Y-110063216D01*
X48830147Y-109915646D01*
X48955646Y-109790147D01*
X49103216Y-109691544D01*
X49267188Y-109623624D01*
X49416488Y-109593927D01*
X49441258Y-109589000D01*
X49618742Y-109589000D01*
X49643512Y-109593927D01*
G37*
G36*
X62402000Y-111195000D02*
G01*
X61550000Y-111195000D01*
X61550000Y-110293000D01*
X62402000Y-110293000D01*
X62402000Y-111195000D01*
G37*
G36*
X68879000Y-110711000D02*
G01*
X68027000Y-110711000D01*
X68027000Y-109809000D01*
X68879000Y-109809000D01*
X68879000Y-110711000D01*
G37*
G36*
X52750000Y-110155000D02*
G01*
X51898000Y-110155000D01*
X51898000Y-109253000D01*
X52750000Y-109253000D01*
X52750000Y-110155000D01*
G37*
G36*
X62402000Y-109695000D02*
G01*
X61550000Y-109695000D01*
X61550000Y-108793000D01*
X62402000Y-108793000D01*
X62402000Y-109695000D01*
G37*
G36*
X85060549Y-107075116D02*
G01*
X85171734Y-107097232D01*
X85381203Y-107183997D01*
X85569720Y-107309960D01*
X85730040Y-107470280D01*
X85856003Y-107658797D01*
X85942768Y-107868266D01*
X85987000Y-108090636D01*
X85987000Y-108317364D01*
X85942768Y-108539734D01*
X85856003Y-108749203D01*
X85730040Y-108937720D01*
X85569720Y-109098040D01*
X85381203Y-109224003D01*
X85171734Y-109310768D01*
X85060549Y-109332884D01*
X84949365Y-109355000D01*
X84722635Y-109355000D01*
X84611451Y-109332884D01*
X84500266Y-109310768D01*
X84290797Y-109224003D01*
X84102280Y-109098040D01*
X83941960Y-108937720D01*
X83815997Y-108749203D01*
X83729232Y-108539734D01*
X83685000Y-108317364D01*
X83685000Y-108090636D01*
X83729232Y-107868266D01*
X83815997Y-107658797D01*
X83941960Y-107470280D01*
X84102280Y-107309960D01*
X84290797Y-107183997D01*
X84500266Y-107097232D01*
X84611451Y-107075116D01*
X84722635Y-107053000D01*
X84949365Y-107053000D01*
X85060549Y-107075116D01*
G37*
G36*
X90140549Y-107075116D02*
G01*
X90251734Y-107097232D01*
X90461203Y-107183997D01*
X90649720Y-107309960D01*
X90810040Y-107470280D01*
X90936003Y-107658797D01*
X91022768Y-107868266D01*
X91067000Y-108090636D01*
X91067000Y-108317364D01*
X91022768Y-108539734D01*
X90936003Y-108749203D01*
X90810040Y-108937720D01*
X90649720Y-109098040D01*
X90461203Y-109224003D01*
X90251734Y-109310768D01*
X90140549Y-109332884D01*
X90029365Y-109355000D01*
X89802635Y-109355000D01*
X89691451Y-109332884D01*
X89580266Y-109310768D01*
X89370797Y-109224003D01*
X89182280Y-109098040D01*
X89021960Y-108937720D01*
X88895997Y-108749203D01*
X88809232Y-108539734D01*
X88765000Y-108317364D01*
X88765000Y-108090636D01*
X88809232Y-107868266D01*
X88895997Y-107658797D01*
X89021960Y-107470280D01*
X89182280Y-107309960D01*
X89370797Y-107183997D01*
X89580266Y-107097232D01*
X89691451Y-107075116D01*
X89802635Y-107053000D01*
X90029365Y-107053000D01*
X90140549Y-107075116D01*
G37*
G36*
X50431000Y-108851000D02*
G01*
X48629000Y-108851000D01*
X48629000Y-107049000D01*
X50431000Y-107049000D01*
X50431000Y-108851000D01*
G37*
G36*
X52750000Y-108655000D02*
G01*
X51898000Y-108655000D01*
X51898000Y-107753000D01*
X52750000Y-107753000D01*
X52750000Y-108655000D01*
G37*
G36*
X60878000Y-108631000D02*
G01*
X60026000Y-108631000D01*
X60026000Y-107729000D01*
X60878000Y-107729000D01*
X60878000Y-108631000D01*
G37*
G36*
X82225500Y-108493000D02*
G01*
X81223500Y-108493000D01*
X81223500Y-107891000D01*
X82225500Y-107891000D01*
X82225500Y-108493000D01*
G37*
G36*
X59205000Y-107181000D02*
G01*
X58603000Y-107181000D01*
X58603000Y-106179000D01*
X59205000Y-106179000D01*
X59205000Y-107181000D01*
G37*
G36*
X57705000Y-107181000D02*
G01*
X57103000Y-107181000D01*
X57103000Y-106179000D01*
X57705000Y-106179000D01*
X57705000Y-107181000D01*
G37*
G36*
X60878000Y-107131000D02*
G01*
X60026000Y-107131000D01*
X60026000Y-106229000D01*
X60878000Y-106229000D01*
X60878000Y-107131000D01*
G37*
G36*
X82225500Y-106993000D02*
G01*
X81223500Y-106993000D01*
X81223500Y-106391000D01*
X82225500Y-106391000D01*
X82225500Y-106993000D01*
G37*
G36*
X49643512Y-103243927D02*
G01*
X49792812Y-103273624D01*
X49956784Y-103341544D01*
X50104354Y-103440147D01*
X50229853Y-103565646D01*
X50328456Y-103713216D01*
X50396376Y-103877188D01*
X50431000Y-104051259D01*
X50431000Y-104228741D01*
X50396376Y-104402812D01*
X50328456Y-104566784D01*
X50229853Y-104714354D01*
X50104354Y-104839853D01*
X49956784Y-104938456D01*
X49792812Y-105006376D01*
X49643512Y-105036073D01*
X49618742Y-105041000D01*
X49441258Y-105041000D01*
X49416488Y-105036073D01*
X49267188Y-105006376D01*
X49103216Y-104938456D01*
X48955646Y-104839853D01*
X48830147Y-104714354D01*
X48731544Y-104566784D01*
X48663624Y-104402812D01*
X48629000Y-104228741D01*
X48629000Y-104051259D01*
X48663624Y-103877188D01*
X48731544Y-103713216D01*
X48830147Y-103565646D01*
X48955646Y-103440147D01*
X49103216Y-103341544D01*
X49267188Y-103273624D01*
X49416488Y-103243927D01*
X49441258Y-103239000D01*
X49618742Y-103239000D01*
X49643512Y-103243927D01*
G37*
G36*
X54184000Y-104312000D02*
G01*
X53282000Y-104312000D01*
X53282000Y-103460000D01*
X54184000Y-103460000D01*
X54184000Y-104312000D01*
G37*
G36*
X55684000Y-104312000D02*
G01*
X54782000Y-104312000D01*
X54782000Y-103460000D01*
X55684000Y-103460000D01*
X55684000Y-104312000D01*
G37*
G36*
X49643512Y-100703927D02*
G01*
X49792812Y-100733624D01*
X49956784Y-100801544D01*
X50104354Y-100900147D01*
X50229853Y-101025646D01*
X50328456Y-101173216D01*
X50396376Y-101337188D01*
X50431000Y-101511259D01*
X50431000Y-101688741D01*
X50396376Y-101862812D01*
X50328456Y-102026784D01*
X50229853Y-102174354D01*
X50104354Y-102299853D01*
X49956784Y-102398456D01*
X49792812Y-102466376D01*
X49643512Y-102496073D01*
X49618742Y-102501000D01*
X49441258Y-102501000D01*
X49416488Y-102496073D01*
X49267188Y-102466376D01*
X49103216Y-102398456D01*
X48955646Y-102299853D01*
X48830147Y-102174354D01*
X48731544Y-102026784D01*
X48663624Y-101862812D01*
X48629000Y-101688741D01*
X48629000Y-101511259D01*
X48663624Y-101337188D01*
X48731544Y-101173216D01*
X48830147Y-101025646D01*
X48955646Y-100900147D01*
X49103216Y-100801544D01*
X49267188Y-100733624D01*
X49416488Y-100703927D01*
X49441258Y-100699000D01*
X49618742Y-100699000D01*
X49643512Y-100703927D01*
G37*
G36*
X85111349Y-99607516D02*
G01*
X85222534Y-99629632D01*
X85432003Y-99716397D01*
X85620520Y-99842360D01*
X85780840Y-100002680D01*
X85906803Y-100191197D01*
X85993568Y-100400666D01*
X86037800Y-100623036D01*
X86037800Y-100849764D01*
X85993568Y-101072134D01*
X85906803Y-101281603D01*
X85780840Y-101470120D01*
X85620520Y-101630440D01*
X85432003Y-101756403D01*
X85222534Y-101843168D01*
X85123782Y-101862811D01*
X85000165Y-101887400D01*
X84773435Y-101887400D01*
X84649818Y-101862811D01*
X84551066Y-101843168D01*
X84341597Y-101756403D01*
X84153080Y-101630440D01*
X83992760Y-101470120D01*
X83866797Y-101281603D01*
X83780032Y-101072134D01*
X83735800Y-100849764D01*
X83735800Y-100623036D01*
X83780032Y-100400666D01*
X83866797Y-100191197D01*
X83992760Y-100002680D01*
X84153080Y-99842360D01*
X84341597Y-99716397D01*
X84551066Y-99629632D01*
X84662251Y-99607516D01*
X84773435Y-99585400D01*
X85000165Y-99585400D01*
X85111349Y-99607516D01*
G37*
G36*
X90191349Y-99607516D02*
G01*
X90302534Y-99629632D01*
X90512003Y-99716397D01*
X90700520Y-99842360D01*
X90860840Y-100002680D01*
X90986803Y-100191197D01*
X91073568Y-100400666D01*
X91117800Y-100623036D01*
X91117800Y-100849764D01*
X91073568Y-101072134D01*
X90986803Y-101281603D01*
X90860840Y-101470120D01*
X90700520Y-101630440D01*
X90512003Y-101756403D01*
X90302534Y-101843168D01*
X90203782Y-101862811D01*
X90080165Y-101887400D01*
X89853435Y-101887400D01*
X89729818Y-101862811D01*
X89631066Y-101843168D01*
X89421597Y-101756403D01*
X89233080Y-101630440D01*
X89072760Y-101470120D01*
X88946797Y-101281603D01*
X88860032Y-101072134D01*
X88815800Y-100849764D01*
X88815800Y-100623036D01*
X88860032Y-100400666D01*
X88946797Y-100191197D01*
X89072760Y-100002680D01*
X89233080Y-99842360D01*
X89421597Y-99716397D01*
X89631066Y-99629632D01*
X89742251Y-99607516D01*
X89853435Y-99585400D01*
X90080165Y-99585400D01*
X90191349Y-99607516D01*
G37*
G36*
X49643512Y-98163927D02*
G01*
X49792812Y-98193624D01*
X49956784Y-98261544D01*
X50104354Y-98360147D01*
X50229853Y-98485646D01*
X50328456Y-98633216D01*
X50396376Y-98797188D01*
X50431000Y-98971259D01*
X50431000Y-99148741D01*
X50396376Y-99322812D01*
X50328456Y-99486784D01*
X50229853Y-99634354D01*
X50104354Y-99759853D01*
X49956784Y-99858456D01*
X49792812Y-99926376D01*
X49643512Y-99956073D01*
X49618742Y-99961000D01*
X49441258Y-99961000D01*
X49416488Y-99956073D01*
X49267188Y-99926376D01*
X49103216Y-99858456D01*
X48955646Y-99759853D01*
X48830147Y-99634354D01*
X48731544Y-99486784D01*
X48663624Y-99322812D01*
X48629000Y-99148741D01*
X48629000Y-98971259D01*
X48663624Y-98797188D01*
X48731544Y-98633216D01*
X48830147Y-98485646D01*
X48955646Y-98360147D01*
X49103216Y-98261544D01*
X49267188Y-98193624D01*
X49416488Y-98163927D01*
X49441258Y-98159000D01*
X49618742Y-98159000D01*
X49643512Y-98163927D01*
G37*
G36*
X59803512Y-98163927D02*
G01*
X59952812Y-98193624D01*
X60116784Y-98261544D01*
X60264354Y-98360147D01*
X60389853Y-98485646D01*
X60488456Y-98633216D01*
X60556376Y-98797188D01*
X60591000Y-98971259D01*
X60591000Y-99148741D01*
X60556376Y-99322812D01*
X60488456Y-99486784D01*
X60389853Y-99634354D01*
X60264354Y-99759853D01*
X60116784Y-99858456D01*
X59952812Y-99926376D01*
X59803512Y-99956073D01*
X59778742Y-99961000D01*
X59601258Y-99961000D01*
X59576488Y-99956073D01*
X59427188Y-99926376D01*
X59263216Y-99858456D01*
X59115646Y-99759853D01*
X58990147Y-99634354D01*
X58891544Y-99486784D01*
X58823624Y-99322812D01*
X58789000Y-99148741D01*
X58789000Y-98971259D01*
X58823624Y-98797188D01*
X58891544Y-98633216D01*
X58990147Y-98485646D01*
X59115646Y-98360147D01*
X59263216Y-98261544D01*
X59427188Y-98193624D01*
X59576488Y-98163927D01*
X59601258Y-98159000D01*
X59778742Y-98159000D01*
X59803512Y-98163927D01*
G37*
G36*
X87733364Y-97185789D02*
G01*
X87924633Y-97265015D01*
X87924635Y-97265016D01*
X88096773Y-97380035D01*
X88243165Y-97526427D01*
X88358185Y-97698567D01*
X88437411Y-97889836D01*
X88477800Y-98092884D01*
X88477800Y-98299916D01*
X88437411Y-98502964D01*
X88383459Y-98633216D01*
X88358184Y-98694235D01*
X88243165Y-98866373D01*
X88096773Y-99012765D01*
X87924635Y-99127784D01*
X87924634Y-99127785D01*
X87924633Y-99127785D01*
X87733364Y-99207011D01*
X87530316Y-99247400D01*
X87323284Y-99247400D01*
X87120236Y-99207011D01*
X86928967Y-99127785D01*
X86928966Y-99127785D01*
X86928965Y-99127784D01*
X86756827Y-99012765D01*
X86610435Y-98866373D01*
X86495416Y-98694235D01*
X86470141Y-98633216D01*
X86416189Y-98502964D01*
X86375800Y-98299916D01*
X86375800Y-98092884D01*
X86416189Y-97889836D01*
X86495415Y-97698567D01*
X86610435Y-97526427D01*
X86756827Y-97380035D01*
X86928965Y-97265016D01*
X86928967Y-97265015D01*
X87120236Y-97185789D01*
X87323284Y-97145400D01*
X87530316Y-97145400D01*
X87733364Y-97185789D01*
G37*
G36*
X59803512Y-95623927D02*
G01*
X59952812Y-95653624D01*
X60116784Y-95721544D01*
X60264354Y-95820147D01*
X60389853Y-95945646D01*
X60488456Y-96093216D01*
X60556376Y-96257188D01*
X60591000Y-96431259D01*
X60591000Y-96608741D01*
X60556376Y-96782812D01*
X60488456Y-96946784D01*
X60389853Y-97094354D01*
X60264354Y-97219853D01*
X60116784Y-97318456D01*
X59952812Y-97386376D01*
X59803512Y-97416073D01*
X59778742Y-97421000D01*
X59601258Y-97421000D01*
X59576488Y-97416073D01*
X59427188Y-97386376D01*
X59263216Y-97318456D01*
X59115646Y-97219853D01*
X58990147Y-97094354D01*
X58891544Y-96946784D01*
X58823624Y-96782812D01*
X58789000Y-96608741D01*
X58789000Y-96431259D01*
X58823624Y-96257188D01*
X58891544Y-96093216D01*
X58990147Y-95945646D01*
X59115646Y-95820147D01*
X59263216Y-95721544D01*
X59427188Y-95653624D01*
X59576488Y-95623927D01*
X59601258Y-95619000D01*
X59778742Y-95619000D01*
X59803512Y-95623927D01*
G37*
G36*
X49643512Y-95623927D02*
G01*
X49792812Y-95653624D01*
X49956784Y-95721544D01*
X50104354Y-95820147D01*
X50229853Y-95945646D01*
X50328456Y-96093216D01*
X50396376Y-96257188D01*
X50431000Y-96431259D01*
X50431000Y-96608741D01*
X50396376Y-96782812D01*
X50328456Y-96946784D01*
X50229853Y-97094354D01*
X50104354Y-97219853D01*
X49956784Y-97318456D01*
X49792812Y-97386376D01*
X49643512Y-97416073D01*
X49618742Y-97421000D01*
X49441258Y-97421000D01*
X49416488Y-97416073D01*
X49267188Y-97386376D01*
X49103216Y-97318456D01*
X48955646Y-97219853D01*
X48830147Y-97094354D01*
X48731544Y-96946784D01*
X48663624Y-96782812D01*
X48629000Y-96608741D01*
X48629000Y-96431259D01*
X48663624Y-96257188D01*
X48731544Y-96093216D01*
X48830147Y-95945646D01*
X48955646Y-95820147D01*
X49103216Y-95721544D01*
X49267188Y-95653624D01*
X49416488Y-95623927D01*
X49441258Y-95619000D01*
X49618742Y-95619000D01*
X49643512Y-95623927D01*
G37*
G36*
X85111349Y-94527516D02*
G01*
X85222534Y-94549632D01*
X85432003Y-94636397D01*
X85620520Y-94762360D01*
X85780840Y-94922680D01*
X85906803Y-95111197D01*
X85993568Y-95320666D01*
X86037800Y-95543036D01*
X86037800Y-95769764D01*
X85993568Y-95992134D01*
X85906803Y-96201603D01*
X85780840Y-96390120D01*
X85620520Y-96550440D01*
X85432003Y-96676403D01*
X85222534Y-96763168D01*
X85123782Y-96782811D01*
X85000165Y-96807400D01*
X84773435Y-96807400D01*
X84649818Y-96782811D01*
X84551066Y-96763168D01*
X84341597Y-96676403D01*
X84153080Y-96550440D01*
X83992760Y-96390120D01*
X83866797Y-96201603D01*
X83780032Y-95992134D01*
X83735800Y-95769764D01*
X83735800Y-95543036D01*
X83780032Y-95320666D01*
X83866797Y-95111197D01*
X83992760Y-94922680D01*
X84153080Y-94762360D01*
X84341597Y-94636397D01*
X84551066Y-94549632D01*
X84662251Y-94527516D01*
X84773435Y-94505400D01*
X85000165Y-94505400D01*
X85111349Y-94527516D01*
G37*
G36*
X90191349Y-94527516D02*
G01*
X90302534Y-94549632D01*
X90512003Y-94636397D01*
X90700520Y-94762360D01*
X90860840Y-94922680D01*
X90986803Y-95111197D01*
X91073568Y-95320666D01*
X91117800Y-95543036D01*
X91117800Y-95769764D01*
X91073568Y-95992134D01*
X90986803Y-96201603D01*
X90860840Y-96390120D01*
X90700520Y-96550440D01*
X90512003Y-96676403D01*
X90302534Y-96763168D01*
X90203782Y-96782811D01*
X90080165Y-96807400D01*
X89853435Y-96807400D01*
X89729818Y-96782811D01*
X89631066Y-96763168D01*
X89421597Y-96676403D01*
X89233080Y-96550440D01*
X89072760Y-96390120D01*
X88946797Y-96201603D01*
X88860032Y-95992134D01*
X88815800Y-95769764D01*
X88815800Y-95543036D01*
X88860032Y-95320666D01*
X88946797Y-95111197D01*
X89072760Y-94922680D01*
X89233080Y-94762360D01*
X89421597Y-94636397D01*
X89631066Y-94549632D01*
X89742251Y-94527516D01*
X89853435Y-94505400D01*
X90080165Y-94505400D01*
X90191349Y-94527516D01*
G37*
G36*
X59803512Y-93083927D02*
G01*
X59952812Y-93113624D01*
X60116784Y-93181544D01*
X60264354Y-93280147D01*
X60389853Y-93405646D01*
X60488456Y-93553216D01*
X60556376Y-93717188D01*
X60591000Y-93891259D01*
X60591000Y-94068741D01*
X60556376Y-94242812D01*
X60488456Y-94406784D01*
X60389853Y-94554354D01*
X60264354Y-94679853D01*
X60116784Y-94778456D01*
X59952812Y-94846376D01*
X59803512Y-94876073D01*
X59778742Y-94881000D01*
X59601258Y-94881000D01*
X59576488Y-94876073D01*
X59427188Y-94846376D01*
X59263216Y-94778456D01*
X59115646Y-94679853D01*
X58990147Y-94554354D01*
X58891544Y-94406784D01*
X58823624Y-94242812D01*
X58789000Y-94068741D01*
X58789000Y-93891259D01*
X58823624Y-93717188D01*
X58891544Y-93553216D01*
X58990147Y-93405646D01*
X59115646Y-93280147D01*
X59263216Y-93181544D01*
X59427188Y-93113624D01*
X59576488Y-93083927D01*
X59601258Y-93079000D01*
X59778742Y-93079000D01*
X59803512Y-93083927D01*
G37*
G36*
X49643512Y-93083927D02*
G01*
X49792812Y-93113624D01*
X49956784Y-93181544D01*
X50104354Y-93280147D01*
X50229853Y-93405646D01*
X50328456Y-93553216D01*
X50396376Y-93717188D01*
X50431000Y-93891259D01*
X50431000Y-94068741D01*
X50396376Y-94242812D01*
X50328456Y-94406784D01*
X50229853Y-94554354D01*
X50104354Y-94679853D01*
X49956784Y-94778456D01*
X49792812Y-94846376D01*
X49643512Y-94876073D01*
X49618742Y-94881000D01*
X49441258Y-94881000D01*
X49416488Y-94876073D01*
X49267188Y-94846376D01*
X49103216Y-94778456D01*
X48955646Y-94679853D01*
X48830147Y-94554354D01*
X48731544Y-94406784D01*
X48663624Y-94242812D01*
X48629000Y-94068741D01*
X48629000Y-93891259D01*
X48663624Y-93717188D01*
X48731544Y-93553216D01*
X48830147Y-93405646D01*
X48955646Y-93280147D01*
X49103216Y-93181544D01*
X49267188Y-93113624D01*
X49416488Y-93083927D01*
X49441258Y-93079000D01*
X49618742Y-93079000D01*
X49643512Y-93083927D01*
G37*
G36*
X60591000Y-92341000D02*
G01*
X58789000Y-92341000D01*
X58789000Y-90539000D01*
X60591000Y-90539000D01*
X60591000Y-92341000D01*
G37*
G36*
X49643512Y-90543927D02*
G01*
X49792812Y-90573624D01*
X49956784Y-90641544D01*
X50104354Y-90740147D01*
X50229853Y-90865646D01*
X50328456Y-91013216D01*
X50396376Y-91177188D01*
X50431000Y-91351259D01*
X50431000Y-91528741D01*
X50396376Y-91702812D01*
X50328456Y-91866784D01*
X50229853Y-92014354D01*
X50104354Y-92139853D01*
X49956784Y-92238456D01*
X49792812Y-92306376D01*
X49643512Y-92336073D01*
X49618742Y-92341000D01*
X49441258Y-92341000D01*
X49416488Y-92336073D01*
X49267188Y-92306376D01*
X49103216Y-92238456D01*
X48955646Y-92139853D01*
X48830147Y-92014354D01*
X48731544Y-91866784D01*
X48663624Y-91702812D01*
X48629000Y-91528741D01*
X48629000Y-91351259D01*
X48663624Y-91177188D01*
X48731544Y-91013216D01*
X48830147Y-90865646D01*
X48955646Y-90740147D01*
X49103216Y-90641544D01*
X49267188Y-90573624D01*
X49416488Y-90543927D01*
X49441258Y-90539000D01*
X49618742Y-90539000D01*
X49643512Y-90543927D01*
G37*
G36*
X85568549Y-88787116D02*
G01*
X85679734Y-88809232D01*
X85889203Y-88895997D01*
X86077720Y-89021960D01*
X86238040Y-89182280D01*
X86364003Y-89370797D01*
X86450768Y-89580266D01*
X86495000Y-89802636D01*
X86495000Y-90029364D01*
X86450768Y-90251734D01*
X86364003Y-90461203D01*
X86238040Y-90649720D01*
X86077720Y-90810040D01*
X85889203Y-90936003D01*
X85679734Y-91022768D01*
X85568549Y-91044884D01*
X85457365Y-91067000D01*
X85230635Y-91067000D01*
X85119451Y-91044884D01*
X85008266Y-91022768D01*
X84798797Y-90936003D01*
X84610280Y-90810040D01*
X84449960Y-90649720D01*
X84323997Y-90461203D01*
X84237232Y-90251734D01*
X84193000Y-90029364D01*
X84193000Y-89802636D01*
X84237232Y-89580266D01*
X84323997Y-89370797D01*
X84449960Y-89182280D01*
X84610280Y-89021960D01*
X84798797Y-88895997D01*
X85008266Y-88809232D01*
X85119451Y-88787116D01*
X85230635Y-88765000D01*
X85457365Y-88765000D01*
X85568549Y-88787116D01*
G37*
G36*
X80488549Y-88787116D02*
G01*
X80599734Y-88809232D01*
X80809203Y-88895997D01*
X80997720Y-89021960D01*
X81158040Y-89182280D01*
X81284003Y-89370797D01*
X81370768Y-89580266D01*
X81415000Y-89802636D01*
X81415000Y-90029364D01*
X81370768Y-90251734D01*
X81284003Y-90461203D01*
X81158040Y-90649720D01*
X80997720Y-90810040D01*
X80809203Y-90936003D01*
X80599734Y-91022768D01*
X80488549Y-91044884D01*
X80377365Y-91067000D01*
X80150635Y-91067000D01*
X80039451Y-91044884D01*
X79928266Y-91022768D01*
X79718797Y-90936003D01*
X79530280Y-90810040D01*
X79369960Y-90649720D01*
X79243997Y-90461203D01*
X79157232Y-90251734D01*
X79113000Y-90029364D01*
X79113000Y-89802636D01*
X79157232Y-89580266D01*
X79243997Y-89370797D01*
X79369960Y-89182280D01*
X79530280Y-89021960D01*
X79718797Y-88895997D01*
X79928266Y-88809232D01*
X80039451Y-88787116D01*
X80150635Y-88765000D01*
X80377365Y-88765000D01*
X80488549Y-88787116D01*
G37*
G36*
X50431000Y-89801000D02*
G01*
X48629000Y-89801000D01*
X48629000Y-87999000D01*
X50431000Y-87999000D01*
X50431000Y-89801000D01*
G37*
G36*
X52496000Y-88704000D02*
G01*
X51644000Y-88704000D01*
X51644000Y-87802000D01*
X52496000Y-87802000D01*
X52496000Y-88704000D01*
G37*
G36*
X83110564Y-86365389D02*
G01*
X83301833Y-86444615D01*
X83301835Y-86444616D01*
X83473973Y-86559635D01*
X83620365Y-86706027D01*
X83735385Y-86878167D01*
X83814611Y-87069436D01*
X83855000Y-87272484D01*
X83855000Y-87479516D01*
X83814611Y-87682564D01*
X83765139Y-87802000D01*
X83735384Y-87873835D01*
X83620365Y-88045973D01*
X83473973Y-88192365D01*
X83301835Y-88307384D01*
X83301834Y-88307385D01*
X83301833Y-88307385D01*
X83110564Y-88386611D01*
X82907516Y-88427000D01*
X82700484Y-88427000D01*
X82497436Y-88386611D01*
X82306167Y-88307385D01*
X82306166Y-88307385D01*
X82306165Y-88307384D01*
X82134027Y-88192365D01*
X81987635Y-88045973D01*
X81872616Y-87873835D01*
X81842861Y-87802000D01*
X81793389Y-87682564D01*
X81753000Y-87479516D01*
X81753000Y-87272484D01*
X81793389Y-87069436D01*
X81872615Y-86878167D01*
X81987635Y-86706027D01*
X82134027Y-86559635D01*
X82306165Y-86444616D01*
X82306167Y-86444615D01*
X82497436Y-86365389D01*
X82700484Y-86325000D01*
X82907516Y-86325000D01*
X83110564Y-86365389D01*
G37*
G36*
X52496000Y-87204000D02*
G01*
X51644000Y-87204000D01*
X51644000Y-86302000D01*
X52496000Y-86302000D01*
X52496000Y-87204000D01*
G37*
G36*
X49643512Y-84193927D02*
G01*
X49792812Y-84223624D01*
X49956784Y-84291544D01*
X50104354Y-84390147D01*
X50229853Y-84515646D01*
X50328456Y-84663216D01*
X50396376Y-84827188D01*
X50431000Y-85001259D01*
X50431000Y-85178741D01*
X50396376Y-85352812D01*
X50328456Y-85516784D01*
X50229853Y-85664354D01*
X50104354Y-85789853D01*
X49956784Y-85888456D01*
X49792812Y-85956376D01*
X49643512Y-85986073D01*
X49618742Y-85991000D01*
X49441258Y-85991000D01*
X49416488Y-85986073D01*
X49267188Y-85956376D01*
X49103216Y-85888456D01*
X48955646Y-85789853D01*
X48830147Y-85664354D01*
X48731544Y-85516784D01*
X48663624Y-85352812D01*
X48629000Y-85178741D01*
X48629000Y-85001259D01*
X48663624Y-84827188D01*
X48731544Y-84663216D01*
X48830147Y-84515646D01*
X48955646Y-84390147D01*
X49103216Y-84291544D01*
X49267188Y-84223624D01*
X49416488Y-84193927D01*
X49441258Y-84189000D01*
X49618742Y-84189000D01*
X49643512Y-84193927D01*
G37*
G36*
X80488549Y-83707116D02*
G01*
X80599734Y-83729232D01*
X80809203Y-83815997D01*
X80997720Y-83941960D01*
X81158040Y-84102280D01*
X81215984Y-84189000D01*
X81284004Y-84290799D01*
X81309416Y-84352150D01*
X81325156Y-84390148D01*
X81370768Y-84500267D01*
X81415000Y-84722635D01*
X81415000Y-84949365D01*
X81392884Y-85060549D01*
X81370768Y-85171734D01*
X81284003Y-85381203D01*
X81158040Y-85569720D01*
X80997720Y-85730040D01*
X80809203Y-85856003D01*
X80599734Y-85942768D01*
X80488549Y-85964884D01*
X80377365Y-85987000D01*
X80150635Y-85987000D01*
X80039451Y-85964884D01*
X79928266Y-85942768D01*
X79718797Y-85856003D01*
X79530280Y-85730040D01*
X79369960Y-85569720D01*
X79243997Y-85381203D01*
X79157232Y-85171734D01*
X79135116Y-85060549D01*
X79113000Y-84949365D01*
X79113000Y-84722635D01*
X79157232Y-84500267D01*
X79202845Y-84390148D01*
X79218584Y-84352150D01*
X79243996Y-84290799D01*
X79312016Y-84189000D01*
X79369960Y-84102280D01*
X79530280Y-83941960D01*
X79718797Y-83815997D01*
X79928266Y-83729232D01*
X80039451Y-83707116D01*
X80150635Y-83685000D01*
X80377365Y-83685000D01*
X80488549Y-83707116D01*
G37*
G36*
X85568549Y-83707116D02*
G01*
X85679734Y-83729232D01*
X85889203Y-83815997D01*
X86077720Y-83941960D01*
X86238040Y-84102280D01*
X86295984Y-84189000D01*
X86364004Y-84290799D01*
X86389416Y-84352150D01*
X86405156Y-84390148D01*
X86450768Y-84500267D01*
X86495000Y-84722635D01*
X86495000Y-84949365D01*
X86472884Y-85060549D01*
X86450768Y-85171734D01*
X86364003Y-85381203D01*
X86238040Y-85569720D01*
X86077720Y-85730040D01*
X85889203Y-85856003D01*
X85679734Y-85942768D01*
X85568549Y-85964884D01*
X85457365Y-85987000D01*
X85230635Y-85987000D01*
X85119451Y-85964884D01*
X85008266Y-85942768D01*
X84798797Y-85856003D01*
X84610280Y-85730040D01*
X84449960Y-85569720D01*
X84323997Y-85381203D01*
X84237232Y-85171734D01*
X84215116Y-85060549D01*
X84193000Y-84949365D01*
X84193000Y-84722635D01*
X84237232Y-84500267D01*
X84282845Y-84390148D01*
X84298584Y-84352150D01*
X84323996Y-84290799D01*
X84392016Y-84189000D01*
X84449960Y-84102280D01*
X84610280Y-83941960D01*
X84798797Y-83815997D01*
X85008266Y-83729232D01*
X85119451Y-83707116D01*
X85230635Y-83685000D01*
X85457365Y-83685000D01*
X85568549Y-83707116D01*
G37*
G36*
X49643512Y-81653927D02*
G01*
X49792812Y-81683624D01*
X49956784Y-81751544D01*
X50104354Y-81850147D01*
X50229853Y-81975646D01*
X50328456Y-82123216D01*
X50396376Y-82287188D01*
X50431000Y-82461259D01*
X50431000Y-82638741D01*
X50396376Y-82812812D01*
X50328456Y-82976784D01*
X50229853Y-83124354D01*
X50104354Y-83249853D01*
X49956784Y-83348456D01*
X49792812Y-83416376D01*
X49643512Y-83446073D01*
X49618742Y-83451000D01*
X49441258Y-83451000D01*
X49416488Y-83446073D01*
X49267188Y-83416376D01*
X49103216Y-83348456D01*
X48955646Y-83249853D01*
X48830147Y-83124354D01*
X48731544Y-82976784D01*
X48663624Y-82812812D01*
X48629000Y-82638741D01*
X48629000Y-82461259D01*
X48663624Y-82287188D01*
X48731544Y-82123216D01*
X48830147Y-81975646D01*
X48955646Y-81850147D01*
X49103216Y-81751544D01*
X49267188Y-81683624D01*
X49416488Y-81653927D01*
X49441258Y-81649000D01*
X49618742Y-81649000D01*
X49643512Y-81653927D01*
G37*
G36*
X83155800Y-81882600D02*
G01*
X82553800Y-81882600D01*
X82553800Y-80880600D01*
X83155800Y-80880600D01*
X83155800Y-81882600D01*
G37*
G36*
X81655800Y-81882600D02*
G01*
X81053800Y-81882600D01*
X81053800Y-80880600D01*
X81655800Y-80880600D01*
X81655800Y-81882600D01*
G37*
G36*
X84930600Y-81162600D02*
G01*
X83928600Y-81162600D01*
X83928600Y-80560600D01*
X84930600Y-80560600D01*
X84930600Y-81162600D01*
G37*
G36*
X49643512Y-79113927D02*
G01*
X49792812Y-79143624D01*
X49956784Y-79211544D01*
X50104354Y-79310147D01*
X50229853Y-79435646D01*
X50328456Y-79583216D01*
X50396376Y-79747188D01*
X50431000Y-79921259D01*
X50431000Y-80098741D01*
X50396376Y-80272812D01*
X50328456Y-80436784D01*
X50229853Y-80584354D01*
X50104354Y-80709853D01*
X49956784Y-80808456D01*
X49792812Y-80876376D01*
X49643512Y-80906073D01*
X49618742Y-80911000D01*
X49441258Y-80911000D01*
X49416488Y-80906073D01*
X49267188Y-80876376D01*
X49103216Y-80808456D01*
X48955646Y-80709853D01*
X48830147Y-80584354D01*
X48731544Y-80436784D01*
X48663624Y-80272812D01*
X48629000Y-80098741D01*
X48629000Y-79921259D01*
X48663624Y-79747188D01*
X48731544Y-79583216D01*
X48830147Y-79435646D01*
X48955646Y-79310147D01*
X49103216Y-79211544D01*
X49267188Y-79143624D01*
X49416488Y-79113927D01*
X49441258Y-79109000D01*
X49618742Y-79109000D01*
X49643512Y-79113927D01*
G37*
G36*
X60271000Y-79733000D02*
G01*
X58769000Y-79733000D01*
X58769000Y-78431000D01*
X60271000Y-78431000D01*
X60271000Y-79733000D01*
G37*
G36*
X58071000Y-79733000D02*
G01*
X56569000Y-79733000D01*
X56569000Y-78431000D01*
X58071000Y-78431000D01*
X58071000Y-79733000D01*
G37*
G36*
X61894000Y-79675000D02*
G01*
X61042000Y-79675000D01*
X61042000Y-78773000D01*
X61894000Y-78773000D01*
X61894000Y-79675000D01*
G37*
G36*
X55798000Y-79675000D02*
G01*
X54946000Y-79675000D01*
X54946000Y-78773000D01*
X55798000Y-78773000D01*
X55798000Y-79675000D01*
G37*
G36*
X84930600Y-79662600D02*
G01*
X83928600Y-79662600D01*
X83928600Y-79060600D01*
X84930600Y-79060600D01*
X84930600Y-79662600D01*
G37*
G36*
X82597000Y-79495000D02*
G01*
X81995000Y-79495000D01*
X81995000Y-78493000D01*
X82597000Y-78493000D01*
X82597000Y-79495000D01*
G37*
G36*
X81097000Y-79495000D02*
G01*
X80495000Y-79495000D01*
X80495000Y-78493000D01*
X81097000Y-78493000D01*
X81097000Y-79495000D01*
G37*
G36*
X54401000Y-78417000D02*
G01*
X53549000Y-78417000D01*
X53549000Y-77515000D01*
X54401000Y-77515000D01*
X54401000Y-78417000D01*
G37*
G36*
X49643512Y-76573927D02*
G01*
X49792812Y-76603624D01*
X49956784Y-76671544D01*
X50104354Y-76770147D01*
X50229853Y-76895646D01*
X50328456Y-77043216D01*
X50396376Y-77207188D01*
X50431000Y-77381259D01*
X50431000Y-77558741D01*
X50396376Y-77732812D01*
X50328456Y-77896784D01*
X50229853Y-78044354D01*
X50104354Y-78169853D01*
X49956784Y-78268456D01*
X49792812Y-78336376D01*
X49643512Y-78366073D01*
X49618742Y-78371000D01*
X49441258Y-78371000D01*
X49416488Y-78366073D01*
X49267188Y-78336376D01*
X49103216Y-78268456D01*
X48955646Y-78169853D01*
X48830147Y-78044354D01*
X48731544Y-77896784D01*
X48663624Y-77732812D01*
X48629000Y-77558741D01*
X48629000Y-77381259D01*
X48663624Y-77207188D01*
X48731544Y-77043216D01*
X48830147Y-76895646D01*
X48955646Y-76770147D01*
X49103216Y-76671544D01*
X49267188Y-76603624D01*
X49416488Y-76573927D01*
X49441258Y-76569000D01*
X49618742Y-76569000D01*
X49643512Y-76573927D01*
G37*
G36*
X55798000Y-78175000D02*
G01*
X54946000Y-78175000D01*
X54946000Y-77273000D01*
X55798000Y-77273000D01*
X55798000Y-78175000D01*
G37*
G36*
X61894000Y-78175000D02*
G01*
X61042000Y-78175000D01*
X61042000Y-77273000D01*
X61894000Y-77273000D01*
X61894000Y-78175000D01*
G37*
G36*
X60271000Y-78033000D02*
G01*
X58769000Y-78033000D01*
X58769000Y-76731000D01*
X60271000Y-76731000D01*
X60271000Y-78033000D01*
G37*
G36*
X58071000Y-78033000D02*
G01*
X56569000Y-78033000D01*
X56569000Y-76731000D01*
X58071000Y-76731000D01*
X58071000Y-78033000D01*
G37*
G36*
X82797000Y-77911400D02*
G01*
X81795000Y-77911400D01*
X81795000Y-77309400D01*
X82797000Y-77309400D01*
X82797000Y-77911400D01*
G37*
G36*
X54401000Y-76917000D02*
G01*
X53549000Y-76917000D01*
X53549000Y-76015000D01*
X54401000Y-76015000D01*
X54401000Y-76917000D01*
G37*
G36*
X62910000Y-76651000D02*
G01*
X62058000Y-76651000D01*
X62058000Y-75749000D01*
X62910000Y-75749000D01*
X62910000Y-76651000D01*
G37*
G36*
X82797000Y-76411400D02*
G01*
X81795000Y-76411400D01*
X81795000Y-75809400D01*
X82797000Y-75809400D01*
X82797000Y-76411400D01*
G37*
G36*
X49643512Y-74033927D02*
G01*
X49792812Y-74063624D01*
X49956784Y-74131544D01*
X50104354Y-74230147D01*
X50229853Y-74355646D01*
X50328456Y-74503216D01*
X50396376Y-74667188D01*
X50431000Y-74841259D01*
X50431000Y-75018741D01*
X50396376Y-75192812D01*
X50328456Y-75356784D01*
X50229853Y-75504354D01*
X50104354Y-75629853D01*
X49956784Y-75728456D01*
X49792812Y-75796376D01*
X49643512Y-75826073D01*
X49618742Y-75831000D01*
X49441258Y-75831000D01*
X49416488Y-75826073D01*
X49267188Y-75796376D01*
X49103216Y-75728456D01*
X48955646Y-75629853D01*
X48830147Y-75504354D01*
X48731544Y-75356784D01*
X48663624Y-75192812D01*
X48629000Y-75018741D01*
X48629000Y-74841259D01*
X48663624Y-74667188D01*
X48731544Y-74503216D01*
X48830147Y-74355646D01*
X48955646Y-74230147D01*
X49103216Y-74131544D01*
X49267188Y-74063624D01*
X49416488Y-74033927D01*
X49441258Y-74029000D01*
X49618742Y-74029000D01*
X49643512Y-74033927D01*
G37*
G36*
X62910000Y-75151000D02*
G01*
X62058000Y-75151000D01*
X62058000Y-74249000D01*
X62910000Y-74249000D01*
X62910000Y-75151000D01*
G37*
G36*
X70301000Y-74721000D02*
G01*
X69399000Y-74721000D01*
X69399000Y-73869000D01*
X70301000Y-73869000D01*
X70301000Y-74721000D01*
G37*
G36*
X71801000Y-74721000D02*
G01*
X70899000Y-74721000D01*
X70899000Y-73869000D01*
X71801000Y-73869000D01*
X71801000Y-74721000D01*
G37*
G36*
X55290000Y-74595000D02*
G01*
X54438000Y-74595000D01*
X54438000Y-73693000D01*
X55290000Y-73693000D01*
X55290000Y-74595000D01*
G37*
G36*
X68827000Y-74445000D02*
G01*
X67825000Y-74445000D01*
X67825000Y-73843000D01*
X68827000Y-73843000D01*
X68827000Y-74445000D01*
G37*
G36*
X90140549Y-71515116D02*
G01*
X90251734Y-71537232D01*
X90461203Y-71623997D01*
X90649720Y-71749960D01*
X90810040Y-71910280D01*
X90936003Y-72098797D01*
X91022768Y-72308266D01*
X91029491Y-72342066D01*
X91056678Y-72478741D01*
X91067000Y-72530636D01*
X91067000Y-72757364D01*
X91022768Y-72979734D01*
X90977155Y-73089853D01*
X90936313Y-73188456D01*
X90936003Y-73189203D01*
X90810040Y-73377720D01*
X90649720Y-73538040D01*
X90461203Y-73664003D01*
X90251734Y-73750768D01*
X90140549Y-73772884D01*
X90029365Y-73795000D01*
X89802635Y-73795000D01*
X89691451Y-73772884D01*
X89580266Y-73750768D01*
X89370797Y-73664003D01*
X89182280Y-73538040D01*
X89021960Y-73377720D01*
X88895997Y-73189203D01*
X88895688Y-73188456D01*
X88854845Y-73089853D01*
X88809232Y-72979734D01*
X88765000Y-72757364D01*
X88765000Y-72530636D01*
X88775323Y-72478741D01*
X88802509Y-72342066D01*
X88809232Y-72308266D01*
X88895997Y-72098797D01*
X89021960Y-71910280D01*
X89182280Y-71749960D01*
X89370797Y-71623997D01*
X89580266Y-71537232D01*
X89691451Y-71515116D01*
X89802635Y-71493000D01*
X90029365Y-71493000D01*
X90140549Y-71515116D01*
G37*
G36*
X85060549Y-71515116D02*
G01*
X85171734Y-71537232D01*
X85381203Y-71623997D01*
X85569720Y-71749960D01*
X85730040Y-71910280D01*
X85856003Y-72098797D01*
X85942768Y-72308266D01*
X85949491Y-72342066D01*
X85976678Y-72478741D01*
X85987000Y-72530636D01*
X85987000Y-72757364D01*
X85942768Y-72979734D01*
X85897155Y-73089853D01*
X85856313Y-73188456D01*
X85856003Y-73189203D01*
X85730040Y-73377720D01*
X85569720Y-73538040D01*
X85381203Y-73664003D01*
X85171734Y-73750768D01*
X85060549Y-73772884D01*
X84949365Y-73795000D01*
X84722635Y-73795000D01*
X84611451Y-73772884D01*
X84500266Y-73750768D01*
X84290797Y-73664003D01*
X84102280Y-73538040D01*
X83941960Y-73377720D01*
X83815997Y-73189203D01*
X83815688Y-73188456D01*
X83774845Y-73089853D01*
X83729232Y-72979734D01*
X83685000Y-72757364D01*
X83685000Y-72530636D01*
X83695323Y-72478741D01*
X83722509Y-72342066D01*
X83729232Y-72308266D01*
X83815997Y-72098797D01*
X83941960Y-71910280D01*
X84102280Y-71749960D01*
X84290797Y-71623997D01*
X84500266Y-71537232D01*
X84611451Y-71515116D01*
X84722635Y-71493000D01*
X84949365Y-71493000D01*
X85060549Y-71515116D01*
G37*
G36*
X81073000Y-73653000D02*
G01*
X80471000Y-73653000D01*
X80471000Y-72651000D01*
X81073000Y-72651000D01*
X81073000Y-73653000D01*
G37*
G36*
X82573000Y-73653000D02*
G01*
X81971000Y-73653000D01*
X81971000Y-72651000D01*
X82573000Y-72651000D01*
X82573000Y-73653000D01*
G37*
G36*
X75127000Y-73578000D02*
G01*
X74225000Y-73578000D01*
X74225000Y-72726000D01*
X75127000Y-72726000D01*
X75127000Y-73578000D01*
G37*
G36*
X79675000Y-73578000D02*
G01*
X78773000Y-73578000D01*
X78773000Y-72726000D01*
X79675000Y-72726000D01*
X79675000Y-73578000D01*
G37*
G36*
X73627000Y-73578000D02*
G01*
X72725000Y-73578000D01*
X72725000Y-72726000D01*
X73627000Y-72726000D01*
X73627000Y-73578000D01*
G37*
G36*
X78175000Y-73578000D02*
G01*
X77273000Y-73578000D01*
X77273000Y-72726000D01*
X78175000Y-72726000D01*
X78175000Y-73578000D01*
G37*
G36*
X59621000Y-69694001D02*
G01*
X59623402Y-69718387D01*
X59630515Y-69741836D01*
X59642066Y-69763447D01*
X59657611Y-69782389D01*
X59676553Y-69797934D01*
X59698164Y-69809485D01*
X59721613Y-69816598D01*
X59723242Y-69816758D01*
X59723402Y-69818387D01*
X59730515Y-69841836D01*
X59742066Y-69863447D01*
X59757611Y-69882389D01*
X59776553Y-69897934D01*
X59798164Y-69909485D01*
X59821613Y-69916598D01*
X59845999Y-69919000D01*
X60801000Y-69919000D01*
X60801000Y-72321000D01*
X59845999Y-72321000D01*
X59821613Y-72323402D01*
X59798164Y-72330515D01*
X59776553Y-72342066D01*
X59757611Y-72357611D01*
X59742066Y-72376553D01*
X59730515Y-72398164D01*
X59723402Y-72421613D01*
X59723242Y-72423242D01*
X59721613Y-72423402D01*
X59698164Y-72430515D01*
X59676553Y-72442066D01*
X59657611Y-72457611D01*
X59642066Y-72476553D01*
X59630515Y-72498164D01*
X59623402Y-72521613D01*
X59621000Y-72545999D01*
X59621000Y-73501000D01*
X57219000Y-73501000D01*
X57219000Y-72545999D01*
X57216598Y-72521613D01*
X57209485Y-72498164D01*
X57197934Y-72476553D01*
X57182389Y-72457611D01*
X57163447Y-72442066D01*
X57141836Y-72430515D01*
X57118387Y-72423402D01*
X57116758Y-72423242D01*
X57116598Y-72421613D01*
X57109485Y-72398164D01*
X57097934Y-72376553D01*
X57082389Y-72357611D01*
X57063447Y-72342066D01*
X57041836Y-72330515D01*
X57018387Y-72323402D01*
X56994001Y-72321000D01*
X56039000Y-72321000D01*
X56039000Y-69919000D01*
X56994001Y-69919000D01*
X57018387Y-69916598D01*
X57041836Y-69909485D01*
X57063447Y-69897934D01*
X57082389Y-69882389D01*
X57097934Y-69863447D01*
X57109485Y-69841836D01*
X57116598Y-69818387D01*
X57116758Y-69816758D01*
X57118387Y-69816598D01*
X57141836Y-69809485D01*
X57163447Y-69797934D01*
X57182389Y-69782389D01*
X57197934Y-69763447D01*
X57209485Y-69741836D01*
X57216598Y-69718387D01*
X57219000Y-69694001D01*
X57219000Y-68739000D01*
X59621000Y-68739000D01*
X59621000Y-69694001D01*
G37*
G36*
X62785000Y-73399000D02*
G01*
X62183000Y-73399000D01*
X62183000Y-72397000D01*
X62785000Y-72397000D01*
X62785000Y-73399000D01*
G37*
G36*
X64285000Y-73399000D02*
G01*
X63683000Y-73399000D01*
X63683000Y-72397000D01*
X64285000Y-72397000D01*
X64285000Y-73399000D01*
G37*
G36*
X49638851Y-71493000D02*
G01*
X49792812Y-71523624D01*
X49956784Y-71591544D01*
X50104354Y-71690147D01*
X50229853Y-71815646D01*
X50328456Y-71963216D01*
X50396376Y-72127188D01*
X50431000Y-72301259D01*
X50431000Y-72478741D01*
X50396376Y-72652812D01*
X50328456Y-72816784D01*
X50229853Y-72964354D01*
X50104354Y-73089853D01*
X49956784Y-73188456D01*
X49792812Y-73256376D01*
X49643512Y-73286073D01*
X49618742Y-73291000D01*
X49441258Y-73291000D01*
X49416488Y-73286073D01*
X49267188Y-73256376D01*
X49103216Y-73188456D01*
X48955646Y-73089853D01*
X48830147Y-72964354D01*
X48731544Y-72816784D01*
X48663624Y-72652812D01*
X48629000Y-72478741D01*
X48629000Y-72301259D01*
X48663624Y-72127188D01*
X48731544Y-71963216D01*
X48830147Y-71815646D01*
X48955646Y-71690147D01*
X49103216Y-71591544D01*
X49267188Y-71523624D01*
X49421149Y-71493000D01*
X49441258Y-71489000D01*
X49618742Y-71489000D01*
X49638851Y-71493000D01*
G37*
G36*
X55290000Y-73095000D02*
G01*
X54438000Y-73095000D01*
X54438000Y-72193000D01*
X55290000Y-72193000D01*
X55290000Y-73095000D01*
G37*
G36*
X66974000Y-73071000D02*
G01*
X66122000Y-73071000D01*
X66122000Y-72169000D01*
X66974000Y-72169000D01*
X66974000Y-73071000D01*
G37*
G36*
X70567000Y-73070000D02*
G01*
X69665000Y-73070000D01*
X69665000Y-72218000D01*
X70567000Y-72218000D01*
X70567000Y-73070000D01*
G37*
G36*
X72067000Y-73070000D02*
G01*
X71165000Y-73070000D01*
X71165000Y-72218000D01*
X72067000Y-72218000D01*
X72067000Y-73070000D01*
G37*
G36*
X68827000Y-72945000D02*
G01*
X67825000Y-72945000D01*
X67825000Y-72343000D01*
X68827000Y-72343000D01*
X68827000Y-72945000D01*
G37*
G36*
X74953000Y-72129000D02*
G01*
X74351000Y-72129000D01*
X74351000Y-71127000D01*
X74953000Y-71127000D01*
X74953000Y-72129000D01*
G37*
G36*
X73453000Y-72129000D02*
G01*
X72851000Y-72129000D01*
X72851000Y-71127000D01*
X73453000Y-71127000D01*
X73453000Y-72129000D01*
G37*
G36*
X76259000Y-72129000D02*
G01*
X75657000Y-72129000D01*
X75657000Y-71127000D01*
X76259000Y-71127000D01*
X76259000Y-72129000D01*
G37*
G36*
X77759000Y-72129000D02*
G01*
X77157000Y-72129000D01*
X77157000Y-71127000D01*
X77759000Y-71127000D01*
X77759000Y-72129000D01*
G37*
G36*
X80957000Y-72054000D02*
G01*
X80055000Y-72054000D01*
X80055000Y-71202000D01*
X80957000Y-71202000D01*
X80957000Y-72054000D01*
G37*
G36*
X79457000Y-72054000D02*
G01*
X78555000Y-72054000D01*
X78555000Y-71202000D01*
X79457000Y-71202000D01*
X79457000Y-72054000D01*
G37*
G36*
X63547000Y-71621000D02*
G01*
X62945000Y-71621000D01*
X62945000Y-70619000D01*
X63547000Y-70619000D01*
X63547000Y-71621000D01*
G37*
G36*
X71929000Y-71621000D02*
G01*
X71327000Y-71621000D01*
X71327000Y-70619000D01*
X71929000Y-70619000D01*
X71929000Y-71621000D01*
G37*
G36*
X65047000Y-71621000D02*
G01*
X64445000Y-71621000D01*
X64445000Y-70619000D01*
X65047000Y-70619000D01*
X65047000Y-71621000D01*
G37*
G36*
X70429000Y-71621000D02*
G01*
X69827000Y-71621000D01*
X69827000Y-70619000D01*
X70429000Y-70619000D01*
X70429000Y-71621000D01*
G37*
G36*
X66974000Y-71571000D02*
G01*
X66122000Y-71571000D01*
X66122000Y-70669000D01*
X66974000Y-70669000D01*
X66974000Y-71571000D01*
G37*
G36*
X68752000Y-71571000D02*
G01*
X67900000Y-71571000D01*
X67900000Y-70669000D01*
X68752000Y-70669000D01*
X68752000Y-71571000D01*
G37*
G36*
X87682564Y-69093389D02*
G01*
X87873833Y-69172615D01*
X87873835Y-69172616D01*
X88045973Y-69287635D01*
X88192365Y-69434027D01*
X88294705Y-69587189D01*
X88307385Y-69606167D01*
X88386611Y-69797436D01*
X88427000Y-70000484D01*
X88427000Y-70207516D01*
X88386611Y-70410564D01*
X88326784Y-70555000D01*
X88307384Y-70601835D01*
X88192365Y-70773973D01*
X88045973Y-70920365D01*
X87873835Y-71035384D01*
X87873834Y-71035385D01*
X87873833Y-71035385D01*
X87682564Y-71114611D01*
X87479516Y-71155000D01*
X87272484Y-71155000D01*
X87069436Y-71114611D01*
X86878167Y-71035385D01*
X86878166Y-71035385D01*
X86878165Y-71035384D01*
X86706027Y-70920365D01*
X86559635Y-70773973D01*
X86444616Y-70601835D01*
X86425216Y-70555000D01*
X86365389Y-70410564D01*
X86325000Y-70207516D01*
X86325000Y-70000484D01*
X86365389Y-69797436D01*
X86444615Y-69606167D01*
X86457296Y-69587189D01*
X86559635Y-69434027D01*
X86706027Y-69287635D01*
X86878165Y-69172616D01*
X86878167Y-69172615D01*
X87069436Y-69093389D01*
X87272484Y-69053000D01*
X87479516Y-69053000D01*
X87682564Y-69093389D01*
G37*
G36*
X49643512Y-68953927D02*
G01*
X49792812Y-68983624D01*
X49956784Y-69051544D01*
X50104354Y-69150147D01*
X50229853Y-69275646D01*
X50328456Y-69423216D01*
X50396376Y-69587188D01*
X50431000Y-69761259D01*
X50431000Y-69938741D01*
X50396376Y-70112812D01*
X50328456Y-70276784D01*
X50229853Y-70424354D01*
X50104354Y-70549853D01*
X49956784Y-70648456D01*
X49792812Y-70716376D01*
X49643512Y-70746073D01*
X49618742Y-70751000D01*
X49441258Y-70751000D01*
X49416488Y-70746073D01*
X49267188Y-70716376D01*
X49103216Y-70648456D01*
X48955646Y-70549853D01*
X48830147Y-70424354D01*
X48731544Y-70276784D01*
X48663624Y-70112812D01*
X48629000Y-69938741D01*
X48629000Y-69761259D01*
X48663624Y-69587188D01*
X48731544Y-69423216D01*
X48830147Y-69275646D01*
X48955646Y-69150147D01*
X49103216Y-69051544D01*
X49267188Y-68983624D01*
X49416488Y-68953927D01*
X49441258Y-68949000D01*
X49618742Y-68949000D01*
X49643512Y-68953927D01*
G37*
G36*
X62402000Y-70555000D02*
G01*
X61550000Y-70555000D01*
X61550000Y-69653000D01*
X62402000Y-69653000D01*
X62402000Y-70555000D01*
G37*
G36*
X68752000Y-70071000D02*
G01*
X67900000Y-70071000D01*
X67900000Y-69169000D01*
X68752000Y-69169000D01*
X68752000Y-70071000D01*
G37*
G36*
X52750000Y-69515000D02*
G01*
X51898000Y-69515000D01*
X51898000Y-68613000D01*
X52750000Y-68613000D01*
X52750000Y-69515000D01*
G37*
G36*
X62402000Y-69055000D02*
G01*
X61550000Y-69055000D01*
X61550000Y-68153000D01*
X62402000Y-68153000D01*
X62402000Y-69055000D01*
G37*
G36*
X85060549Y-66435116D02*
G01*
X85171734Y-66457232D01*
X85381203Y-66543997D01*
X85569720Y-66669960D01*
X85730040Y-66830280D01*
X85856003Y-67018797D01*
X85942768Y-67228266D01*
X85987000Y-67450636D01*
X85987000Y-67677364D01*
X85942768Y-67899734D01*
X85856003Y-68109203D01*
X85730040Y-68297720D01*
X85569720Y-68458040D01*
X85381203Y-68584003D01*
X85171734Y-68670768D01*
X85060549Y-68692884D01*
X84949365Y-68715000D01*
X84722635Y-68715000D01*
X84611451Y-68692884D01*
X84500266Y-68670768D01*
X84290797Y-68584003D01*
X84102280Y-68458040D01*
X83941960Y-68297720D01*
X83815997Y-68109203D01*
X83729232Y-67899734D01*
X83685000Y-67677364D01*
X83685000Y-67450636D01*
X83729232Y-67228266D01*
X83815997Y-67018797D01*
X83941960Y-66830280D01*
X84102280Y-66669960D01*
X84290797Y-66543997D01*
X84500266Y-66457232D01*
X84611451Y-66435116D01*
X84722635Y-66413000D01*
X84949365Y-66413000D01*
X85060549Y-66435116D01*
G37*
G36*
X90140549Y-66435116D02*
G01*
X90251734Y-66457232D01*
X90461203Y-66543997D01*
X90649720Y-66669960D01*
X90810040Y-66830280D01*
X90936003Y-67018797D01*
X91022768Y-67228266D01*
X91067000Y-67450636D01*
X91067000Y-67677364D01*
X91022768Y-67899734D01*
X90936003Y-68109203D01*
X90810040Y-68297720D01*
X90649720Y-68458040D01*
X90461203Y-68584003D01*
X90251734Y-68670768D01*
X90140549Y-68692884D01*
X90029365Y-68715000D01*
X89802635Y-68715000D01*
X89691451Y-68692884D01*
X89580266Y-68670768D01*
X89370797Y-68584003D01*
X89182280Y-68458040D01*
X89021960Y-68297720D01*
X88895997Y-68109203D01*
X88809232Y-67899734D01*
X88765000Y-67677364D01*
X88765000Y-67450636D01*
X88809232Y-67228266D01*
X88895997Y-67018797D01*
X89021960Y-66830280D01*
X89182280Y-66669960D01*
X89370797Y-66543997D01*
X89580266Y-66457232D01*
X89691451Y-66435116D01*
X89802635Y-66413000D01*
X90029365Y-66413000D01*
X90140549Y-66435116D01*
G37*
G36*
X50431000Y-68211000D02*
G01*
X48629000Y-68211000D01*
X48629000Y-66409000D01*
X50431000Y-66409000D01*
X50431000Y-68211000D01*
G37*
G36*
X52750000Y-68015000D02*
G01*
X51898000Y-68015000D01*
X51898000Y-67113000D01*
X52750000Y-67113000D01*
X52750000Y-68015000D01*
G37*
G36*
X60878000Y-67991000D02*
G01*
X60026000Y-67991000D01*
X60026000Y-67089000D01*
X60878000Y-67089000D01*
X60878000Y-67991000D01*
G37*
G36*
X60878000Y-66491000D02*
G01*
X60026000Y-66491000D01*
X60026000Y-65589000D01*
X60878000Y-65589000D01*
X60878000Y-66491000D01*
G37*
G36*
X57971000Y-66287000D02*
G01*
X57369000Y-66287000D01*
X57369000Y-65285000D01*
X57971000Y-65285000D01*
X57971000Y-66287000D01*
G37*
G36*
X59471000Y-66287000D02*
G01*
X58869000Y-66287000D01*
X58869000Y-65285000D01*
X59471000Y-65285000D01*
X59471000Y-66287000D01*
G37*
M02*
