M48
; DRILL file {KiCad (5.1.5)-3} date 11/04/2020 16:30:09
; FORMAT={-:-/ absolute / inch / decimal}
; #@! TF.CreationDate,2020-04-11T16:30:09+01:00
; #@! TF.GenerationSoftware,Kicad,Pcbnew,(5.1.5)-3
FMAT,2
INCH
T1C0.0118
T2C0.0157
T3C0.0394
T4C0.0591
T5C0.0669
%
G90
G05
T1
X2.1529Y-4.55
X2.16Y-2.95
X2.24Y-4.2
X2.245Y-2.6
X2.26Y-3.0025
X2.27Y-2.77
X2.27Y-2.83
X2.27Y-4.37
X2.27Y-4.43
X2.3Y-2.8
X2.3Y-4.4
X2.33Y-2.77
X2.33Y-2.83
X2.33Y-4.37
X2.33Y-4.43
X2.34Y-2.61
X2.34Y-4.21
X2.34Y-4.28
X2.52Y-4.34
X2.5375Y-4.5375
X2.58Y-4.35
X2.62Y-4.5
X3.142Y-3.11
X3.144Y-3.232
X3.182Y-4.294
X3.186Y-4.338
X3.198Y-3.428
X3.198Y-4.374
X3.2Y-3.484
X3.22Y-3.306
X3.222Y-3.376
X3.224Y-3.258
X3.258Y-3.942
X3.26Y-3.582
X3.26Y-3.826
X3.26Y-3.908
X3.26Y-4.302
X3.276Y-4.334
X3.28Y-3.54
X3.284Y-3.09
X3.298Y-3.372
X3.3Y-3.256
X3.3Y-3.336
X3.302Y-3.278
X3.31Y-3.496
X3.312Y-3.828
X3.314Y-3.902
X3.32Y-4.4
X3.324Y-4.328
X3.34Y-3.222
X3.356Y-3.09
X3.364Y-3.152
X3.368Y-3.828
X3.368Y-3.902
X3.374Y-4.328
X3.378Y-4.402
X3.43Y-4.25
X3.45Y-4.48
X3.55Y-4.36
T2
X1.877Y-2.96
X1.9928Y-3.6378
X2.024Y-3.6716
X2.04Y-3.31
X2.0407Y-4.7403
X2.0547Y-2.9407
X2.06Y-2.63
X2.06Y-2.76
X2.06Y-4.235
X2.06Y-4.3525
X2.06Y-4.7
X2.0614Y-4.5448
X2.062Y-3.155
X2.0638Y-3.118
X2.07Y-3.57
X2.07Y-4.09
X2.0706Y-2.8418
X2.0706Y-4.4418
X2.08Y-2.88
X2.08Y-3.615
X2.08Y-4.48
X2.12Y-2.8
X2.12Y-4.4
X2.125Y-3.12
X2.13Y-3.16
X2.1343Y-2.7258
X2.1343Y-4.3258
X2.1375Y-4.7575
X2.1678Y-2.7723
X2.1678Y-4.3723
X2.175Y-4.045
X2.21Y-2.6325
X2.2104Y-2.9304
X2.2104Y-4.5304
X2.2125Y-4.2375
X2.26Y-2.92
X2.26Y-2.96
X2.26Y-4.52
X2.26Y-4.56
X2.26Y-4.6
X2.34Y-2.68
X2.34Y-2.94
X2.34Y-4.54
X2.3475Y-3.16
X2.3475Y-4.76
X2.4Y-2.94
X2.4Y-4.54
X2.42Y-4.2
X2.425Y-2.6
X2.44Y-2.655
X2.44Y-4.2625
X2.495Y-3.0
X2.495Y-4.6
X2.645Y-2.74
X2.7425Y-4.34
X2.855Y-2.92
X2.8575Y-4.525
X2.86Y-2.78
X2.8975Y-4.515
X2.9Y-4.38
X2.915Y-2.925
X2.96Y-2.78
X2.96Y-4.38
X2.98Y-2.86
X2.98Y-4.46
X3.02Y-2.78
X3.02Y-2.86
X3.02Y-4.38
X3.02Y-4.46
X3.06Y-2.92
X3.06Y-4.52
X3.08Y-2.78
X3.08Y-4.32
X3.08Y-4.38
X3.12Y-2.78
X3.12Y-2.92
X3.12Y-4.38
X3.12Y-4.52
X3.14Y-4.34
X3.15Y-4.31
X3.16Y-2.78
X3.16Y-4.38
X3.18Y-3.635
X3.18Y-3.69
X3.18Y-3.735
X3.18Y-3.78
X3.18Y-3.825
X3.18Y-3.88
X3.18Y-3.935
X3.18Y-3.98
X3.18Y-4.025
X3.18Y-4.07
X3.18Y-4.11
X3.18Y-4.155
X3.2Y-4.52
X3.202Y-2.926
X3.202Y-2.97
X3.2125Y-2.7625
X3.225Y-2.71
X3.2575Y-3.635
X3.2575Y-3.69
X3.2575Y-3.735
X3.2575Y-3.78
X3.2575Y-3.98
X3.2575Y-4.025
X3.2575Y-4.07
X3.2575Y-4.11
X3.2575Y-4.155
X3.264Y-2.78
X3.2675Y-2.6875
X3.274Y-2.924
X3.276Y-2.972
X3.28Y-4.44
X3.28Y-4.52
X3.364Y-2.722
X3.376Y-2.798
X3.44Y-3.98
X3.45Y-3.76
T3
X1.95Y-4.25
X1.95Y-4.35
X1.95Y-4.45
X1.95Y-4.55
X1.95Y-4.65
X1.95Y-4.75
X1.95Y-4.85
X1.95Y-4.95
X2.35Y-3.6
X2.35Y-3.7
X2.35Y-3.8
X2.35Y-3.9
X1.95Y-3.5
X1.95Y-3.6
X1.95Y-3.7
X1.95Y-3.8
X1.95Y-3.9
X1.95Y-4.0
X1.95Y-4.1
X1.95Y-2.65
X1.95Y-2.75
X1.95Y-2.85
X1.95Y-2.95
X1.95Y-3.05
X1.95Y-3.15
X1.95Y-3.25
X1.95Y-3.35
T4
X3.44Y-4.36
X3.26Y-3.44
X3.442Y-3.866
X3.44Y-2.76
T5
X3.34Y-2.66
X3.34Y-2.86
X3.54Y-2.66
X3.54Y-2.86
X3.34Y-4.26
X3.34Y-4.46
X3.54Y-4.26
X3.54Y-4.46
X3.16Y-3.34
X3.16Y-3.54
X3.36Y-3.34
X3.36Y-3.54
X3.342Y-3.766
X3.342Y-3.966
X3.542Y-3.766
X3.542Y-3.966
T0
M30
