G04 #@! TF.GenerationSoftware,KiCad,Pcbnew,(5.1.5)-3*
G04 #@! TF.CreationDate,2021-08-20T13:05:58+01:00*
G04 #@! TF.ProjectId,Circulator,43697263-756c-4617-946f-722e6b696361,rev?*
G04 #@! TF.SameCoordinates,Original*
G04 #@! TF.FileFunction,Legend,Top*
G04 #@! TF.FilePolarity,Positive*
%FSLAX46Y46*%
G04 Gerber Fmt 4.6, Leading zero omitted, Abs format (unit mm)*
G04 Created by KiCad (PCBNEW (5.1.5)-3) date 2021-08-20 13:05:58*
%MOMM*%
%LPD*%
G04 APERTURE LIST*
%ADD10C,0.150000*%
%ADD11C,0.120000*%
%ADD12C,0.050000*%
G04 APERTURE END LIST*
D10*
X125302476Y-75209380D02*
X125302476Y-75923666D01*
X125254857Y-76066523D01*
X125159619Y-76161761D01*
X125016761Y-76209380D01*
X124921523Y-76209380D01*
X125778666Y-76209380D02*
X125778666Y-75209380D01*
X126112000Y-75923666D01*
X126445333Y-75209380D01*
X126445333Y-76209380D01*
X126778666Y-75209380D02*
X127350095Y-75209380D01*
X127064380Y-76209380D02*
X127064380Y-75209380D01*
X129016761Y-76114142D02*
X128969142Y-76161761D01*
X128826285Y-76209380D01*
X128731047Y-76209380D01*
X128588190Y-76161761D01*
X128492952Y-76066523D01*
X128445333Y-75971285D01*
X128397714Y-75780809D01*
X128397714Y-75637952D01*
X128445333Y-75447476D01*
X128492952Y-75352238D01*
X128588190Y-75257000D01*
X128731047Y-75209380D01*
X128826285Y-75209380D01*
X128969142Y-75257000D01*
X129016761Y-75304619D01*
X129445333Y-76209380D02*
X129445333Y-75542714D01*
X129445333Y-75209380D02*
X129397714Y-75257000D01*
X129445333Y-75304619D01*
X129492952Y-75257000D01*
X129445333Y-75209380D01*
X129445333Y-75304619D01*
X129921523Y-76209380D02*
X129921523Y-75542714D01*
X129921523Y-75733190D02*
X129969142Y-75637952D01*
X130016761Y-75590333D01*
X130112000Y-75542714D01*
X130207238Y-75542714D01*
X130969142Y-76161761D02*
X130873904Y-76209380D01*
X130683428Y-76209380D01*
X130588190Y-76161761D01*
X130540571Y-76114142D01*
X130492952Y-76018904D01*
X130492952Y-75733190D01*
X130540571Y-75637952D01*
X130588190Y-75590333D01*
X130683428Y-75542714D01*
X130873904Y-75542714D01*
X130969142Y-75590333D01*
X131826285Y-75542714D02*
X131826285Y-76209380D01*
X131397714Y-75542714D02*
X131397714Y-76066523D01*
X131445333Y-76161761D01*
X131540571Y-76209380D01*
X131683428Y-76209380D01*
X131778666Y-76161761D01*
X131826285Y-76114142D01*
X132445333Y-76209380D02*
X132350095Y-76161761D01*
X132302476Y-76066523D01*
X132302476Y-75209380D01*
X133254857Y-76209380D02*
X133254857Y-75685571D01*
X133207238Y-75590333D01*
X133112000Y-75542714D01*
X132921523Y-75542714D01*
X132826285Y-75590333D01*
X133254857Y-76161761D02*
X133159619Y-76209380D01*
X132921523Y-76209380D01*
X132826285Y-76161761D01*
X132778666Y-76066523D01*
X132778666Y-75971285D01*
X132826285Y-75876047D01*
X132921523Y-75828428D01*
X133159619Y-75828428D01*
X133254857Y-75780809D01*
X133588190Y-75542714D02*
X133969142Y-75542714D01*
X133731047Y-75209380D02*
X133731047Y-76066523D01*
X133778666Y-76161761D01*
X133873904Y-76209380D01*
X133969142Y-76209380D01*
X134445333Y-76209380D02*
X134350095Y-76161761D01*
X134302476Y-76114142D01*
X134254857Y-76018904D01*
X134254857Y-75733190D01*
X134302476Y-75637952D01*
X134350095Y-75590333D01*
X134445333Y-75542714D01*
X134588190Y-75542714D01*
X134683428Y-75590333D01*
X134731047Y-75637952D01*
X134778666Y-75733190D01*
X134778666Y-76018904D01*
X134731047Y-76114142D01*
X134683428Y-76161761D01*
X134588190Y-76209380D01*
X134445333Y-76209380D01*
X135207238Y-76209380D02*
X135207238Y-75542714D01*
X135207238Y-75733190D02*
X135254857Y-75637952D01*
X135302476Y-75590333D01*
X135397714Y-75542714D01*
X135492952Y-75542714D01*
X136588190Y-76209380D02*
X136588190Y-75209380D01*
X136969142Y-75209380D01*
X137064380Y-75257000D01*
X137112000Y-75304619D01*
X137159619Y-75399857D01*
X137159619Y-75542714D01*
X137112000Y-75637952D01*
X137064380Y-75685571D01*
X136969142Y-75733190D01*
X136588190Y-75733190D01*
X137588190Y-76209380D02*
X137588190Y-75542714D01*
X137588190Y-75733190D02*
X137635809Y-75637952D01*
X137683428Y-75590333D01*
X137778666Y-75542714D01*
X137873904Y-75542714D01*
X138350095Y-76209380D02*
X138254857Y-76161761D01*
X138207238Y-76114142D01*
X138159619Y-76018904D01*
X138159619Y-75733190D01*
X138207238Y-75637952D01*
X138254857Y-75590333D01*
X138350095Y-75542714D01*
X138492952Y-75542714D01*
X138588190Y-75590333D01*
X138635809Y-75637952D01*
X138683428Y-75733190D01*
X138683428Y-76018904D01*
X138635809Y-76114142D01*
X138588190Y-76161761D01*
X138492952Y-76209380D01*
X138350095Y-76209380D01*
X138969142Y-75542714D02*
X139350095Y-75542714D01*
X139112000Y-75209380D02*
X139112000Y-76066523D01*
X139159619Y-76161761D01*
X139254857Y-76209380D01*
X139350095Y-76209380D01*
X139826285Y-76209380D02*
X139731047Y-76161761D01*
X139683428Y-76114142D01*
X139635809Y-76018904D01*
X139635809Y-75733190D01*
X139683428Y-75637952D01*
X139731047Y-75590333D01*
X139826285Y-75542714D01*
X139969142Y-75542714D01*
X140064380Y-75590333D01*
X140112000Y-75637952D01*
X140159619Y-75733190D01*
X140159619Y-76018904D01*
X140112000Y-76114142D01*
X140064380Y-76161761D01*
X139969142Y-76209380D01*
X139826285Y-76209380D01*
X140445333Y-75542714D02*
X140826285Y-75542714D01*
X140588190Y-75209380D02*
X140588190Y-76066523D01*
X140635809Y-76161761D01*
X140731047Y-76209380D01*
X140826285Y-76209380D01*
X141064380Y-75542714D02*
X141302476Y-76209380D01*
X141540571Y-75542714D02*
X141302476Y-76209380D01*
X141207238Y-76447476D01*
X141159619Y-76495095D01*
X141064380Y-76542714D01*
X141921523Y-75542714D02*
X141921523Y-76542714D01*
X141921523Y-75590333D02*
X142016761Y-75542714D01*
X142207238Y-75542714D01*
X142302476Y-75590333D01*
X142350095Y-75637952D01*
X142397714Y-75733190D01*
X142397714Y-76018904D01*
X142350095Y-76114142D01*
X142302476Y-76161761D01*
X142207238Y-76209380D01*
X142016761Y-76209380D01*
X141921523Y-76161761D01*
X143207238Y-76161761D02*
X143112000Y-76209380D01*
X142921523Y-76209380D01*
X142826285Y-76161761D01*
X142778666Y-76066523D01*
X142778666Y-75685571D01*
X142826285Y-75590333D01*
X142921523Y-75542714D01*
X143112000Y-75542714D01*
X143207238Y-75590333D01*
X143254857Y-75685571D01*
X143254857Y-75780809D01*
X142778666Y-75876047D01*
X129231047Y-77335571D02*
X128897714Y-77335571D01*
X128897714Y-77859380D02*
X128897714Y-76859380D01*
X129373904Y-76859380D01*
X130326285Y-77859380D02*
X129992952Y-77383190D01*
X129754857Y-77859380D02*
X129754857Y-76859380D01*
X130135809Y-76859380D01*
X130231047Y-76907000D01*
X130278666Y-76954619D01*
X130326285Y-77049857D01*
X130326285Y-77192714D01*
X130278666Y-77287952D01*
X130231047Y-77335571D01*
X130135809Y-77383190D01*
X129754857Y-77383190D01*
X131183428Y-77192714D02*
X131183428Y-77859380D01*
X130945333Y-76811761D02*
X130707238Y-77526047D01*
X131326285Y-77526047D01*
X132469142Y-77859380D02*
X132469142Y-76859380D01*
X132469142Y-77335571D02*
X133040571Y-77335571D01*
X133040571Y-77859380D02*
X133040571Y-76859380D01*
X133516761Y-77335571D02*
X134278666Y-77335571D01*
X134278666Y-77621285D02*
X133516761Y-77621285D01*
X135278666Y-77859380D02*
X134707238Y-77859380D01*
X134992952Y-77859380D02*
X134992952Y-76859380D01*
X134897714Y-77002238D01*
X134802476Y-77097476D01*
X134707238Y-77145095D01*
X135707238Y-77764142D02*
X135754857Y-77811761D01*
X135707238Y-77859380D01*
X135659619Y-77811761D01*
X135707238Y-77764142D01*
X135707238Y-77859380D01*
X136612000Y-76859380D02*
X136421523Y-76859380D01*
X136326285Y-76907000D01*
X136278666Y-76954619D01*
X136183428Y-77097476D01*
X136135809Y-77287952D01*
X136135809Y-77668904D01*
X136183428Y-77764142D01*
X136231047Y-77811761D01*
X136326285Y-77859380D01*
X136516761Y-77859380D01*
X136612000Y-77811761D01*
X136659619Y-77764142D01*
X136707238Y-77668904D01*
X136707238Y-77430809D01*
X136659619Y-77335571D01*
X136612000Y-77287952D01*
X136516761Y-77240333D01*
X136326285Y-77240333D01*
X136231047Y-77287952D01*
X136183428Y-77335571D01*
X136135809Y-77430809D01*
X137135809Y-77859380D02*
X137135809Y-77192714D01*
X137135809Y-77287952D02*
X137183428Y-77240333D01*
X137278666Y-77192714D01*
X137421523Y-77192714D01*
X137516761Y-77240333D01*
X137564380Y-77335571D01*
X137564380Y-77859380D01*
X137564380Y-77335571D02*
X137612000Y-77240333D01*
X137707238Y-77192714D01*
X137850095Y-77192714D01*
X137945333Y-77240333D01*
X137992952Y-77335571D01*
X137992952Y-77859380D01*
X138469142Y-77859380D02*
X138469142Y-77192714D01*
X138469142Y-77287952D02*
X138516761Y-77240333D01*
X138612000Y-77192714D01*
X138754857Y-77192714D01*
X138850095Y-77240333D01*
X138897714Y-77335571D01*
X138897714Y-77859380D01*
X138897714Y-77335571D02*
X138945333Y-77240333D01*
X139040571Y-77192714D01*
X139183428Y-77192714D01*
X139278666Y-77240333D01*
X139326285Y-77335571D01*
X139326285Y-77859380D01*
X125112000Y-79509380D02*
X125112000Y-78509380D01*
X125540571Y-79461761D02*
X125635809Y-79509380D01*
X125826285Y-79509380D01*
X125921523Y-79461761D01*
X125969142Y-79366523D01*
X125969142Y-79318904D01*
X125921523Y-79223666D01*
X125826285Y-79176047D01*
X125683428Y-79176047D01*
X125588190Y-79128428D01*
X125540571Y-79033190D01*
X125540571Y-78985571D01*
X125588190Y-78890333D01*
X125683428Y-78842714D01*
X125826285Y-78842714D01*
X125921523Y-78890333D01*
X126540571Y-79509380D02*
X126445333Y-79461761D01*
X126397714Y-79414142D01*
X126350095Y-79318904D01*
X126350095Y-79033190D01*
X126397714Y-78937952D01*
X126445333Y-78890333D01*
X126540571Y-78842714D01*
X126683428Y-78842714D01*
X126778666Y-78890333D01*
X126826285Y-78937952D01*
X126873904Y-79033190D01*
X126873904Y-79318904D01*
X126826285Y-79414142D01*
X126778666Y-79461761D01*
X126683428Y-79509380D01*
X126540571Y-79509380D01*
X127445333Y-79509380D02*
X127350095Y-79461761D01*
X127302476Y-79366523D01*
X127302476Y-78509380D01*
X128254857Y-79509380D02*
X128254857Y-78985571D01*
X128207238Y-78890333D01*
X128112000Y-78842714D01*
X127921523Y-78842714D01*
X127826285Y-78890333D01*
X128254857Y-79461761D02*
X128159619Y-79509380D01*
X127921523Y-79509380D01*
X127826285Y-79461761D01*
X127778666Y-79366523D01*
X127778666Y-79271285D01*
X127826285Y-79176047D01*
X127921523Y-79128428D01*
X128159619Y-79128428D01*
X128254857Y-79080809D01*
X128588190Y-78842714D02*
X128969142Y-78842714D01*
X128731047Y-78509380D02*
X128731047Y-79366523D01*
X128778666Y-79461761D01*
X128873904Y-79509380D01*
X128969142Y-79509380D01*
X129683428Y-79461761D02*
X129588190Y-79509380D01*
X129397714Y-79509380D01*
X129302476Y-79461761D01*
X129254857Y-79366523D01*
X129254857Y-78985571D01*
X129302476Y-78890333D01*
X129397714Y-78842714D01*
X129588190Y-78842714D01*
X129683428Y-78890333D01*
X129731047Y-78985571D01*
X129731047Y-79080809D01*
X129254857Y-79176047D01*
X130921523Y-78842714D02*
X130159619Y-79128428D01*
X130921523Y-79414142D01*
X131397714Y-79128428D02*
X132159619Y-79128428D01*
X133064380Y-78842714D02*
X133064380Y-79509380D01*
X132826285Y-78461761D02*
X132588190Y-79176047D01*
X133207238Y-79176047D01*
X133778666Y-78509380D02*
X133873904Y-78509380D01*
X133969142Y-78557000D01*
X134016761Y-78604619D01*
X134064380Y-78699857D01*
X134112000Y-78890333D01*
X134112000Y-79128428D01*
X134064380Y-79318904D01*
X134016761Y-79414142D01*
X133969142Y-79461761D01*
X133873904Y-79509380D01*
X133778666Y-79509380D01*
X133683428Y-79461761D01*
X133635809Y-79414142D01*
X133588190Y-79318904D01*
X133540571Y-79128428D01*
X133540571Y-78890333D01*
X133588190Y-78699857D01*
X133635809Y-78604619D01*
X133683428Y-78557000D01*
X133778666Y-78509380D01*
X134969142Y-79509380D02*
X134969142Y-78509380D01*
X134969142Y-79461761D02*
X134873904Y-79509380D01*
X134683428Y-79509380D01*
X134588190Y-79461761D01*
X134540571Y-79414142D01*
X134492952Y-79318904D01*
X134492952Y-79033190D01*
X134540571Y-78937952D01*
X134588190Y-78890333D01*
X134683428Y-78842714D01*
X134873904Y-78842714D01*
X134969142Y-78890333D01*
X135778666Y-78985571D02*
X135921523Y-79033190D01*
X135969142Y-79080809D01*
X136016761Y-79176047D01*
X136016761Y-79318904D01*
X135969142Y-79414142D01*
X135921523Y-79461761D01*
X135826285Y-79509380D01*
X135445333Y-79509380D01*
X135445333Y-78509380D01*
X135778666Y-78509380D01*
X135873904Y-78557000D01*
X135921523Y-78604619D01*
X135969142Y-78699857D01*
X135969142Y-78795095D01*
X135921523Y-78890333D01*
X135873904Y-78937952D01*
X135778666Y-78985571D01*
X135445333Y-78985571D01*
X137064380Y-79033190D02*
X137016761Y-78985571D01*
X136921523Y-78937952D01*
X136826285Y-78937952D01*
X136731047Y-78985571D01*
X136683428Y-79033190D01*
X136635809Y-79128428D01*
X136635809Y-79223666D01*
X136683428Y-79318904D01*
X136731047Y-79366523D01*
X136826285Y-79414142D01*
X136921523Y-79414142D01*
X137016761Y-79366523D01*
X137064380Y-79318904D01*
X137064380Y-78937952D02*
X137064380Y-79318904D01*
X137112000Y-79366523D01*
X137159619Y-79366523D01*
X137254857Y-79318904D01*
X137302476Y-79223666D01*
X137302476Y-78985571D01*
X137207238Y-78842714D01*
X137064380Y-78747476D01*
X136873904Y-78699857D01*
X136683428Y-78747476D01*
X136540571Y-78842714D01*
X136445333Y-78985571D01*
X136397714Y-79176047D01*
X136445333Y-79366523D01*
X136540571Y-79509380D01*
X136683428Y-79604619D01*
X136873904Y-79652238D01*
X137064380Y-79604619D01*
X137207238Y-79509380D01*
X137873904Y-78937952D02*
X137778666Y-78890333D01*
X137731047Y-78842714D01*
X137683428Y-78747476D01*
X137683428Y-78699857D01*
X137731047Y-78604619D01*
X137778666Y-78557000D01*
X137873904Y-78509380D01*
X138064380Y-78509380D01*
X138159619Y-78557000D01*
X138207238Y-78604619D01*
X138254857Y-78699857D01*
X138254857Y-78747476D01*
X138207238Y-78842714D01*
X138159619Y-78890333D01*
X138064380Y-78937952D01*
X137873904Y-78937952D01*
X137778666Y-78985571D01*
X137731047Y-79033190D01*
X137683428Y-79128428D01*
X137683428Y-79318904D01*
X137731047Y-79414142D01*
X137778666Y-79461761D01*
X137873904Y-79509380D01*
X138064380Y-79509380D01*
X138159619Y-79461761D01*
X138207238Y-79414142D01*
X138254857Y-79318904D01*
X138254857Y-79128428D01*
X138207238Y-79033190D01*
X138159619Y-78985571D01*
X138064380Y-78937952D01*
X139112000Y-78509380D02*
X138921523Y-78509380D01*
X138826285Y-78557000D01*
X138778666Y-78604619D01*
X138683428Y-78747476D01*
X138635809Y-78937952D01*
X138635809Y-79318904D01*
X138683428Y-79414142D01*
X138731047Y-79461761D01*
X138826285Y-79509380D01*
X139016761Y-79509380D01*
X139112000Y-79461761D01*
X139159619Y-79414142D01*
X139207238Y-79318904D01*
X139207238Y-79080809D01*
X139159619Y-78985571D01*
X139112000Y-78937952D01*
X139016761Y-78890333D01*
X138826285Y-78890333D01*
X138731047Y-78937952D01*
X138683428Y-78985571D01*
X138635809Y-79080809D01*
X139778666Y-78937952D02*
X139683428Y-78890333D01*
X139635809Y-78842714D01*
X139588190Y-78747476D01*
X139588190Y-78699857D01*
X139635809Y-78604619D01*
X139683428Y-78557000D01*
X139778666Y-78509380D01*
X139969142Y-78509380D01*
X140064380Y-78557000D01*
X140112000Y-78604619D01*
X140159619Y-78699857D01*
X140159619Y-78747476D01*
X140112000Y-78842714D01*
X140064380Y-78890333D01*
X139969142Y-78937952D01*
X139778666Y-78937952D01*
X139683428Y-78985571D01*
X139635809Y-79033190D01*
X139588190Y-79128428D01*
X139588190Y-79318904D01*
X139635809Y-79414142D01*
X139683428Y-79461761D01*
X139778666Y-79509380D01*
X139969142Y-79509380D01*
X140064380Y-79461761D01*
X140112000Y-79414142D01*
X140159619Y-79318904D01*
X140159619Y-79128428D01*
X140112000Y-79033190D01*
X140064380Y-78985571D01*
X139969142Y-78937952D01*
X140588190Y-79509380D02*
X140588190Y-78509380D01*
X140921523Y-79223666D01*
X141254857Y-78509380D01*
X141254857Y-79509380D01*
X141731047Y-79509380D02*
X141731047Y-78509380D01*
X141731047Y-78985571D02*
X142302476Y-78985571D01*
X142302476Y-79509380D02*
X142302476Y-78509380D01*
X142683428Y-78842714D02*
X143207238Y-78842714D01*
X142683428Y-79509380D01*
X143207238Y-79509380D01*
X125659619Y-81064142D02*
X125612000Y-81111761D01*
X125469142Y-81159380D01*
X125373904Y-81159380D01*
X125231047Y-81111761D01*
X125135809Y-81016523D01*
X125088190Y-80921285D01*
X125040571Y-80730809D01*
X125040571Y-80587952D01*
X125088190Y-80397476D01*
X125135809Y-80302238D01*
X125231047Y-80207000D01*
X125373904Y-80159380D01*
X125469142Y-80159380D01*
X125612000Y-80207000D01*
X125659619Y-80254619D01*
X126231047Y-81159380D02*
X126135809Y-81111761D01*
X126088190Y-81064142D01*
X126040571Y-80968904D01*
X126040571Y-80683190D01*
X126088190Y-80587952D01*
X126135809Y-80540333D01*
X126231047Y-80492714D01*
X126373904Y-80492714D01*
X126469142Y-80540333D01*
X126516761Y-80587952D01*
X126564380Y-80683190D01*
X126564380Y-80968904D01*
X126516761Y-81064142D01*
X126469142Y-81111761D01*
X126373904Y-81159380D01*
X126231047Y-81159380D01*
X127421523Y-80492714D02*
X127421523Y-81159380D01*
X126992952Y-80492714D02*
X126992952Y-81016523D01*
X127040571Y-81111761D01*
X127135809Y-81159380D01*
X127278666Y-81159380D01*
X127373904Y-81111761D01*
X127421523Y-81064142D01*
X127897714Y-80492714D02*
X127897714Y-81492714D01*
X127897714Y-80540333D02*
X127992952Y-80492714D01*
X128183428Y-80492714D01*
X128278666Y-80540333D01*
X128326285Y-80587952D01*
X128373904Y-80683190D01*
X128373904Y-80968904D01*
X128326285Y-81064142D01*
X128278666Y-81111761D01*
X128183428Y-81159380D01*
X127992952Y-81159380D01*
X127897714Y-81111761D01*
X128945333Y-81159380D02*
X128850095Y-81111761D01*
X128802476Y-81016523D01*
X128802476Y-80159380D01*
X129707238Y-81111761D02*
X129612000Y-81159380D01*
X129421523Y-81159380D01*
X129326285Y-81111761D01*
X129278666Y-81016523D01*
X129278666Y-80635571D01*
X129326285Y-80540333D01*
X129421523Y-80492714D01*
X129612000Y-80492714D01*
X129707238Y-80540333D01*
X129754857Y-80635571D01*
X129754857Y-80730809D01*
X129278666Y-80826047D01*
X130183428Y-80492714D02*
X130945333Y-80778428D01*
X130183428Y-81064142D01*
X131421523Y-80778428D02*
X132183428Y-80778428D01*
X133183428Y-81159380D02*
X132612000Y-81159380D01*
X132897714Y-81159380D02*
X132897714Y-80159380D01*
X132802476Y-80302238D01*
X132707238Y-80397476D01*
X132612000Y-80445095D01*
X134088190Y-80159380D02*
X133612000Y-80159380D01*
X133564380Y-80635571D01*
X133612000Y-80587952D01*
X133707238Y-80540333D01*
X133945333Y-80540333D01*
X134040571Y-80587952D01*
X134088190Y-80635571D01*
X134135809Y-80730809D01*
X134135809Y-80968904D01*
X134088190Y-81064142D01*
X134040571Y-81111761D01*
X133945333Y-81159380D01*
X133707238Y-81159380D01*
X133612000Y-81111761D01*
X133564380Y-81064142D01*
X134992952Y-81159380D02*
X134992952Y-80159380D01*
X134992952Y-81111761D02*
X134897714Y-81159380D01*
X134707238Y-81159380D01*
X134612000Y-81111761D01*
X134564380Y-81064142D01*
X134516761Y-80968904D01*
X134516761Y-80683190D01*
X134564380Y-80587952D01*
X134612000Y-80540333D01*
X134707238Y-80492714D01*
X134897714Y-80492714D01*
X134992952Y-80540333D01*
X135802476Y-80635571D02*
X135945333Y-80683190D01*
X135992952Y-80730809D01*
X136040571Y-80826047D01*
X136040571Y-80968904D01*
X135992952Y-81064142D01*
X135945333Y-81111761D01*
X135850095Y-81159380D01*
X135469142Y-81159380D01*
X135469142Y-80159380D01*
X135802476Y-80159380D01*
X135897714Y-80207000D01*
X135945333Y-80254619D01*
X135992952Y-80349857D01*
X135992952Y-80445095D01*
X135945333Y-80540333D01*
X135897714Y-80587952D01*
X135802476Y-80635571D01*
X135469142Y-80635571D01*
X137088190Y-80683190D02*
X137040571Y-80635571D01*
X136945333Y-80587952D01*
X136850095Y-80587952D01*
X136754857Y-80635571D01*
X136707238Y-80683190D01*
X136659619Y-80778428D01*
X136659619Y-80873666D01*
X136707238Y-80968904D01*
X136754857Y-81016523D01*
X136850095Y-81064142D01*
X136945333Y-81064142D01*
X137040571Y-81016523D01*
X137088190Y-80968904D01*
X137088190Y-80587952D02*
X137088190Y-80968904D01*
X137135809Y-81016523D01*
X137183428Y-81016523D01*
X137278666Y-80968904D01*
X137326285Y-80873666D01*
X137326285Y-80635571D01*
X137231047Y-80492714D01*
X137088190Y-80397476D01*
X136897714Y-80349857D01*
X136707238Y-80397476D01*
X136564380Y-80492714D01*
X136469142Y-80635571D01*
X136421523Y-80826047D01*
X136469142Y-81016523D01*
X136564380Y-81159380D01*
X136707238Y-81254619D01*
X136897714Y-81302238D01*
X137088190Y-81254619D01*
X137231047Y-81159380D01*
X137897714Y-80587952D02*
X137802476Y-80540333D01*
X137754857Y-80492714D01*
X137707238Y-80397476D01*
X137707238Y-80349857D01*
X137754857Y-80254619D01*
X137802476Y-80207000D01*
X137897714Y-80159380D01*
X138088190Y-80159380D01*
X138183428Y-80207000D01*
X138231047Y-80254619D01*
X138278666Y-80349857D01*
X138278666Y-80397476D01*
X138231047Y-80492714D01*
X138183428Y-80540333D01*
X138088190Y-80587952D01*
X137897714Y-80587952D01*
X137802476Y-80635571D01*
X137754857Y-80683190D01*
X137707238Y-80778428D01*
X137707238Y-80968904D01*
X137754857Y-81064142D01*
X137802476Y-81111761D01*
X137897714Y-81159380D01*
X138088190Y-81159380D01*
X138183428Y-81111761D01*
X138231047Y-81064142D01*
X138278666Y-80968904D01*
X138278666Y-80778428D01*
X138231047Y-80683190D01*
X138183428Y-80635571D01*
X138088190Y-80587952D01*
X139135809Y-80159380D02*
X138945333Y-80159380D01*
X138850095Y-80207000D01*
X138802476Y-80254619D01*
X138707238Y-80397476D01*
X138659619Y-80587952D01*
X138659619Y-80968904D01*
X138707238Y-81064142D01*
X138754857Y-81111761D01*
X138850095Y-81159380D01*
X139040571Y-81159380D01*
X139135809Y-81111761D01*
X139183428Y-81064142D01*
X139231047Y-80968904D01*
X139231047Y-80730809D01*
X139183428Y-80635571D01*
X139135809Y-80587952D01*
X139040571Y-80540333D01*
X138850095Y-80540333D01*
X138754857Y-80587952D01*
X138707238Y-80635571D01*
X138659619Y-80730809D01*
X139802476Y-80587952D02*
X139707238Y-80540333D01*
X139659619Y-80492714D01*
X139612000Y-80397476D01*
X139612000Y-80349857D01*
X139659619Y-80254619D01*
X139707238Y-80207000D01*
X139802476Y-80159380D01*
X139992952Y-80159380D01*
X140088190Y-80207000D01*
X140135809Y-80254619D01*
X140183428Y-80349857D01*
X140183428Y-80397476D01*
X140135809Y-80492714D01*
X140088190Y-80540333D01*
X139992952Y-80587952D01*
X139802476Y-80587952D01*
X139707238Y-80635571D01*
X139659619Y-80683190D01*
X139612000Y-80778428D01*
X139612000Y-80968904D01*
X139659619Y-81064142D01*
X139707238Y-81111761D01*
X139802476Y-81159380D01*
X139992952Y-81159380D01*
X140088190Y-81111761D01*
X140135809Y-81064142D01*
X140183428Y-80968904D01*
X140183428Y-80778428D01*
X140135809Y-80683190D01*
X140088190Y-80635571D01*
X139992952Y-80587952D01*
X140612000Y-81159380D02*
X140612000Y-80159380D01*
X140945333Y-80873666D01*
X141278666Y-80159380D01*
X141278666Y-81159380D01*
X141754857Y-81159380D02*
X141754857Y-80159380D01*
X141754857Y-80635571D02*
X142326285Y-80635571D01*
X142326285Y-81159380D02*
X142326285Y-80159380D01*
X142707238Y-80492714D02*
X143231047Y-80492714D01*
X142707238Y-81159380D01*
X143231047Y-81159380D01*
D11*
X104883500Y-101671500D02*
X104883500Y-102671500D01*
X103523500Y-102671500D02*
X103523500Y-101671500D01*
X100903500Y-71898000D02*
X100903500Y-73898000D01*
X107503500Y-71898000D02*
X107503500Y-73898000D01*
X103203500Y-76198000D02*
X105203500Y-76198000D01*
X103203500Y-69598000D02*
X105203500Y-69598000D01*
X162449000Y-69598000D02*
X164449000Y-69598000D01*
X162449000Y-76198000D02*
X164449000Y-76198000D01*
X166749000Y-71898000D02*
X166749000Y-73898000D01*
X160149000Y-71898000D02*
X160149000Y-73898000D01*
X160149000Y-100600000D02*
X160149000Y-102600000D01*
X166749000Y-100600000D02*
X166749000Y-102600000D01*
X162449000Y-104900000D02*
X164449000Y-104900000D01*
X162449000Y-98300000D02*
X164449000Y-98300000D01*
D10*
X103205880Y-102266738D02*
X102729690Y-102600071D01*
X103205880Y-102838166D02*
X102205880Y-102838166D01*
X102205880Y-102457214D01*
X102253500Y-102361976D01*
X102301119Y-102314357D01*
X102396357Y-102266738D01*
X102539214Y-102266738D01*
X102634452Y-102314357D01*
X102682071Y-102361976D01*
X102729690Y-102457214D01*
X102729690Y-102838166D01*
X102539214Y-101933404D02*
X102539214Y-101409595D01*
X103205880Y-101933404D01*
X103205880Y-101409595D01*
D12*
X162967523Y-89345095D02*
X162967523Y-89095095D01*
X163050857Y-89273666D01*
X163134190Y-89095095D01*
X163134190Y-89345095D01*
X163241333Y-89333190D02*
X163277047Y-89345095D01*
X163336571Y-89345095D01*
X163360380Y-89333190D01*
X163372285Y-89321285D01*
X163384190Y-89297476D01*
X163384190Y-89273666D01*
X163372285Y-89249857D01*
X163360380Y-89237952D01*
X163336571Y-89226047D01*
X163288952Y-89214142D01*
X163265142Y-89202238D01*
X163253238Y-89190333D01*
X163241333Y-89166523D01*
X163241333Y-89142714D01*
X163253238Y-89118904D01*
X163265142Y-89107000D01*
X163288952Y-89095095D01*
X163348476Y-89095095D01*
X163384190Y-89107000D01*
X163622285Y-89345095D02*
X163479428Y-89345095D01*
X163550857Y-89345095D02*
X163550857Y-89095095D01*
X163527047Y-89130809D01*
X163503238Y-89154619D01*
X163479428Y-89166523D01*
X163836571Y-89095095D02*
X163788952Y-89095095D01*
X163765142Y-89107000D01*
X163753238Y-89118904D01*
X163729428Y-89154619D01*
X163717523Y-89202238D01*
X163717523Y-89297476D01*
X163729428Y-89321285D01*
X163741333Y-89333190D01*
X163765142Y-89345095D01*
X163812761Y-89345095D01*
X163836571Y-89333190D01*
X163848476Y-89321285D01*
X163860380Y-89297476D01*
X163860380Y-89237952D01*
X163848476Y-89214142D01*
X163836571Y-89202238D01*
X163812761Y-89190333D01*
X163765142Y-89190333D01*
X163741333Y-89202238D01*
X163729428Y-89214142D01*
X163717523Y-89237952D01*
X103767523Y-88345095D02*
X103767523Y-88095095D01*
X103850857Y-88273666D01*
X103934190Y-88095095D01*
X103934190Y-88345095D01*
X104041333Y-88333190D02*
X104077047Y-88345095D01*
X104136571Y-88345095D01*
X104160380Y-88333190D01*
X104172285Y-88321285D01*
X104184190Y-88297476D01*
X104184190Y-88273666D01*
X104172285Y-88249857D01*
X104160380Y-88237952D01*
X104136571Y-88226047D01*
X104088952Y-88214142D01*
X104065142Y-88202238D01*
X104053238Y-88190333D01*
X104041333Y-88166523D01*
X104041333Y-88142714D01*
X104053238Y-88118904D01*
X104065142Y-88107000D01*
X104088952Y-88095095D01*
X104148476Y-88095095D01*
X104184190Y-88107000D01*
X104422285Y-88345095D02*
X104279428Y-88345095D01*
X104350857Y-88345095D02*
X104350857Y-88095095D01*
X104327047Y-88130809D01*
X104303238Y-88154619D01*
X104279428Y-88166523D01*
X104648476Y-88095095D02*
X104529428Y-88095095D01*
X104517523Y-88214142D01*
X104529428Y-88202238D01*
X104553238Y-88190333D01*
X104612761Y-88190333D01*
X104636571Y-88202238D01*
X104648476Y-88214142D01*
X104660380Y-88237952D01*
X104660380Y-88297476D01*
X104648476Y-88321285D01*
X104636571Y-88333190D01*
X104612761Y-88345095D01*
X104553238Y-88345095D01*
X104529428Y-88333190D01*
X104517523Y-88321285D01*
X103767523Y-85595095D02*
X103767523Y-85345095D01*
X103850857Y-85523666D01*
X103934190Y-85345095D01*
X103934190Y-85595095D01*
X104041333Y-85583190D02*
X104077047Y-85595095D01*
X104136571Y-85595095D01*
X104160380Y-85583190D01*
X104172285Y-85571285D01*
X104184190Y-85547476D01*
X104184190Y-85523666D01*
X104172285Y-85499857D01*
X104160380Y-85487952D01*
X104136571Y-85476047D01*
X104088952Y-85464142D01*
X104065142Y-85452238D01*
X104053238Y-85440333D01*
X104041333Y-85416523D01*
X104041333Y-85392714D01*
X104053238Y-85368904D01*
X104065142Y-85357000D01*
X104088952Y-85345095D01*
X104148476Y-85345095D01*
X104184190Y-85357000D01*
X104422285Y-85595095D02*
X104279428Y-85595095D01*
X104350857Y-85595095D02*
X104350857Y-85345095D01*
X104327047Y-85380809D01*
X104303238Y-85404619D01*
X104279428Y-85416523D01*
X104505619Y-85345095D02*
X104660380Y-85345095D01*
X104577047Y-85440333D01*
X104612761Y-85440333D01*
X104636571Y-85452238D01*
X104648476Y-85464142D01*
X104660380Y-85487952D01*
X104660380Y-85547476D01*
X104648476Y-85571285D01*
X104636571Y-85583190D01*
X104612761Y-85595095D01*
X104541333Y-85595095D01*
X104517523Y-85583190D01*
X104505619Y-85571285D01*
X104386571Y-96705095D02*
X104386571Y-96455095D01*
X104469904Y-96633666D01*
X104553238Y-96455095D01*
X104553238Y-96705095D01*
X104660380Y-96693190D02*
X104696095Y-96705095D01*
X104755619Y-96705095D01*
X104779428Y-96693190D01*
X104791333Y-96681285D01*
X104803238Y-96657476D01*
X104803238Y-96633666D01*
X104791333Y-96609857D01*
X104779428Y-96597952D01*
X104755619Y-96586047D01*
X104708000Y-96574142D01*
X104684190Y-96562238D01*
X104672285Y-96550333D01*
X104660380Y-96526523D01*
X104660380Y-96502714D01*
X104672285Y-96478904D01*
X104684190Y-96467000D01*
X104708000Y-96455095D01*
X104767523Y-96455095D01*
X104803238Y-96467000D01*
X105017523Y-96455095D02*
X104969904Y-96455095D01*
X104946095Y-96467000D01*
X104934190Y-96478904D01*
X104910380Y-96514619D01*
X104898476Y-96562238D01*
X104898476Y-96657476D01*
X104910380Y-96681285D01*
X104922285Y-96693190D01*
X104946095Y-96705095D01*
X104993714Y-96705095D01*
X105017523Y-96693190D01*
X105029428Y-96681285D01*
X105041333Y-96657476D01*
X105041333Y-96597952D01*
X105029428Y-96574142D01*
X105017523Y-96562238D01*
X104993714Y-96550333D01*
X104946095Y-96550333D01*
X104922285Y-96562238D01*
X104910380Y-96574142D01*
X104898476Y-96597952D01*
X123822523Y-96805095D02*
X123822523Y-96555095D01*
X123905857Y-96733666D01*
X123989190Y-96555095D01*
X123989190Y-96805095D01*
X124096333Y-96793190D02*
X124132047Y-96805095D01*
X124191571Y-96805095D01*
X124215380Y-96793190D01*
X124227285Y-96781285D01*
X124239190Y-96757476D01*
X124239190Y-96733666D01*
X124227285Y-96709857D01*
X124215380Y-96697952D01*
X124191571Y-96686047D01*
X124143952Y-96674142D01*
X124120142Y-96662238D01*
X124108238Y-96650333D01*
X124096333Y-96626523D01*
X124096333Y-96602714D01*
X124108238Y-96578904D01*
X124120142Y-96567000D01*
X124143952Y-96555095D01*
X124203476Y-96555095D01*
X124239190Y-96567000D01*
X124477285Y-96805095D02*
X124334428Y-96805095D01*
X124405857Y-96805095D02*
X124405857Y-96555095D01*
X124382047Y-96590809D01*
X124358238Y-96614619D01*
X124334428Y-96626523D01*
X124620142Y-96662238D02*
X124596333Y-96650333D01*
X124584428Y-96638428D01*
X124572523Y-96614619D01*
X124572523Y-96602714D01*
X124584428Y-96578904D01*
X124596333Y-96567000D01*
X124620142Y-96555095D01*
X124667761Y-96555095D01*
X124691571Y-96567000D01*
X124703476Y-96578904D01*
X124715380Y-96602714D01*
X124715380Y-96614619D01*
X124703476Y-96638428D01*
X124691571Y-96650333D01*
X124667761Y-96662238D01*
X124620142Y-96662238D01*
X124596333Y-96674142D01*
X124584428Y-96686047D01*
X124572523Y-96709857D01*
X124572523Y-96757476D01*
X124584428Y-96781285D01*
X124596333Y-96793190D01*
X124620142Y-96805095D01*
X124667761Y-96805095D01*
X124691571Y-96793190D01*
X124703476Y-96781285D01*
X124715380Y-96757476D01*
X124715380Y-96709857D01*
X124703476Y-96686047D01*
X124691571Y-96674142D01*
X124667761Y-96662238D01*
X104386571Y-90295095D02*
X104386571Y-90045095D01*
X104469904Y-90223666D01*
X104553238Y-90045095D01*
X104553238Y-90295095D01*
X104660380Y-90283190D02*
X104696095Y-90295095D01*
X104755619Y-90295095D01*
X104779428Y-90283190D01*
X104791333Y-90271285D01*
X104803238Y-90247476D01*
X104803238Y-90223666D01*
X104791333Y-90199857D01*
X104779428Y-90187952D01*
X104755619Y-90176047D01*
X104708000Y-90164142D01*
X104684190Y-90152238D01*
X104672285Y-90140333D01*
X104660380Y-90116523D01*
X104660380Y-90092714D01*
X104672285Y-90068904D01*
X104684190Y-90057000D01*
X104708000Y-90045095D01*
X104767523Y-90045095D01*
X104803238Y-90057000D01*
X104886571Y-90045095D02*
X105041333Y-90045095D01*
X104958000Y-90140333D01*
X104993714Y-90140333D01*
X105017523Y-90152238D01*
X105029428Y-90164142D01*
X105041333Y-90187952D01*
X105041333Y-90247476D01*
X105029428Y-90271285D01*
X105017523Y-90283190D01*
X104993714Y-90295095D01*
X104922285Y-90295095D01*
X104898476Y-90283190D01*
X104886571Y-90271285D01*
X163586571Y-95945095D02*
X163586571Y-95695095D01*
X163669904Y-95873666D01*
X163753238Y-95695095D01*
X163753238Y-95945095D01*
X163860380Y-95933190D02*
X163896095Y-95945095D01*
X163955619Y-95945095D01*
X163979428Y-95933190D01*
X163991333Y-95921285D01*
X164003238Y-95897476D01*
X164003238Y-95873666D01*
X163991333Y-95849857D01*
X163979428Y-95837952D01*
X163955619Y-95826047D01*
X163908000Y-95814142D01*
X163884190Y-95802238D01*
X163872285Y-95790333D01*
X163860380Y-95766523D01*
X163860380Y-95742714D01*
X163872285Y-95718904D01*
X163884190Y-95707000D01*
X163908000Y-95695095D01*
X163967523Y-95695095D01*
X164003238Y-95707000D01*
X164217523Y-95778428D02*
X164217523Y-95945095D01*
X164158000Y-95683190D02*
X164098476Y-95861761D01*
X164253238Y-95861761D01*
X162967523Y-86595095D02*
X162967523Y-86345095D01*
X163050857Y-86523666D01*
X163134190Y-86345095D01*
X163134190Y-86595095D01*
X163241333Y-86583190D02*
X163277047Y-86595095D01*
X163336571Y-86595095D01*
X163360380Y-86583190D01*
X163372285Y-86571285D01*
X163384190Y-86547476D01*
X163384190Y-86523666D01*
X163372285Y-86499857D01*
X163360380Y-86487952D01*
X163336571Y-86476047D01*
X163288952Y-86464142D01*
X163265142Y-86452238D01*
X163253238Y-86440333D01*
X163241333Y-86416523D01*
X163241333Y-86392714D01*
X163253238Y-86368904D01*
X163265142Y-86357000D01*
X163288952Y-86345095D01*
X163348476Y-86345095D01*
X163384190Y-86357000D01*
X163622285Y-86595095D02*
X163479428Y-86595095D01*
X163550857Y-86595095D02*
X163550857Y-86345095D01*
X163527047Y-86380809D01*
X163503238Y-86404619D01*
X163479428Y-86416523D01*
X163836571Y-86428428D02*
X163836571Y-86595095D01*
X163777047Y-86333190D02*
X163717523Y-86511761D01*
X163872285Y-86511761D01*
X113867523Y-91600095D02*
X113867523Y-91350095D01*
X113950857Y-91528666D01*
X114034190Y-91350095D01*
X114034190Y-91600095D01*
X114141333Y-91588190D02*
X114177047Y-91600095D01*
X114236571Y-91600095D01*
X114260380Y-91588190D01*
X114272285Y-91576285D01*
X114284190Y-91552476D01*
X114284190Y-91528666D01*
X114272285Y-91504857D01*
X114260380Y-91492952D01*
X114236571Y-91481047D01*
X114188952Y-91469142D01*
X114165142Y-91457238D01*
X114153238Y-91445333D01*
X114141333Y-91421523D01*
X114141333Y-91397714D01*
X114153238Y-91373904D01*
X114165142Y-91362000D01*
X114188952Y-91350095D01*
X114248476Y-91350095D01*
X114284190Y-91362000D01*
X114522285Y-91600095D02*
X114379428Y-91600095D01*
X114450857Y-91600095D02*
X114450857Y-91350095D01*
X114427047Y-91385809D01*
X114403238Y-91409619D01*
X114379428Y-91421523D01*
X114760380Y-91600095D02*
X114617523Y-91600095D01*
X114688952Y-91600095D02*
X114688952Y-91350095D01*
X114665142Y-91385809D01*
X114641333Y-91409619D01*
X114617523Y-91421523D01*
X163586571Y-78995095D02*
X163586571Y-78745095D01*
X163669904Y-78923666D01*
X163753238Y-78745095D01*
X163753238Y-78995095D01*
X163860380Y-78983190D02*
X163896095Y-78995095D01*
X163955619Y-78995095D01*
X163979428Y-78983190D01*
X163991333Y-78971285D01*
X164003238Y-78947476D01*
X164003238Y-78923666D01*
X163991333Y-78899857D01*
X163979428Y-78887952D01*
X163955619Y-78876047D01*
X163908000Y-78864142D01*
X163884190Y-78852238D01*
X163872285Y-78840333D01*
X163860380Y-78816523D01*
X163860380Y-78792714D01*
X163872285Y-78768904D01*
X163884190Y-78757000D01*
X163908000Y-78745095D01*
X163967523Y-78745095D01*
X164003238Y-78757000D01*
X164229428Y-78745095D02*
X164110380Y-78745095D01*
X164098476Y-78864142D01*
X164110380Y-78852238D01*
X164134190Y-78840333D01*
X164193714Y-78840333D01*
X164217523Y-78852238D01*
X164229428Y-78864142D01*
X164241333Y-78887952D01*
X164241333Y-78947476D01*
X164229428Y-78971285D01*
X164217523Y-78983190D01*
X164193714Y-78995095D01*
X164134190Y-78995095D01*
X164110380Y-78983190D01*
X164098476Y-78971285D01*
X104267523Y-91100095D02*
X104267523Y-90850095D01*
X104350857Y-91028666D01*
X104434190Y-90850095D01*
X104434190Y-91100095D01*
X104541333Y-91088190D02*
X104577047Y-91100095D01*
X104636571Y-91100095D01*
X104660380Y-91088190D01*
X104672285Y-91076285D01*
X104684190Y-91052476D01*
X104684190Y-91028666D01*
X104672285Y-91004857D01*
X104660380Y-90992952D01*
X104636571Y-90981047D01*
X104588952Y-90969142D01*
X104565142Y-90957238D01*
X104553238Y-90945333D01*
X104541333Y-90921523D01*
X104541333Y-90897714D01*
X104553238Y-90873904D01*
X104565142Y-90862000D01*
X104588952Y-90850095D01*
X104648476Y-90850095D01*
X104684190Y-90862000D01*
X104922285Y-91100095D02*
X104779428Y-91100095D01*
X104850857Y-91100095D02*
X104850857Y-90850095D01*
X104827047Y-90885809D01*
X104803238Y-90909619D01*
X104779428Y-90921523D01*
X105005619Y-90850095D02*
X105172285Y-90850095D01*
X105065142Y-91100095D01*
X104386571Y-78995095D02*
X104386571Y-78745095D01*
X104469904Y-78923666D01*
X104553238Y-78745095D01*
X104553238Y-78995095D01*
X104660380Y-78983190D02*
X104696095Y-78995095D01*
X104755619Y-78995095D01*
X104779428Y-78983190D01*
X104791333Y-78971285D01*
X104803238Y-78947476D01*
X104803238Y-78923666D01*
X104791333Y-78899857D01*
X104779428Y-78887952D01*
X104755619Y-78876047D01*
X104708000Y-78864142D01*
X104684190Y-78852238D01*
X104672285Y-78840333D01*
X104660380Y-78816523D01*
X104660380Y-78792714D01*
X104672285Y-78768904D01*
X104684190Y-78757000D01*
X104708000Y-78745095D01*
X104767523Y-78745095D01*
X104803238Y-78757000D01*
X104898476Y-78768904D02*
X104910380Y-78757000D01*
X104934190Y-78745095D01*
X104993714Y-78745095D01*
X105017523Y-78757000D01*
X105029428Y-78768904D01*
X105041333Y-78792714D01*
X105041333Y-78816523D01*
X105029428Y-78852238D01*
X104886571Y-78995095D01*
X105041333Y-78995095D01*
X133486571Y-87970095D02*
X133486571Y-87720095D01*
X133569904Y-87898666D01*
X133653238Y-87720095D01*
X133653238Y-87970095D01*
X133760380Y-87958190D02*
X133796095Y-87970095D01*
X133855619Y-87970095D01*
X133879428Y-87958190D01*
X133891333Y-87946285D01*
X133903238Y-87922476D01*
X133903238Y-87898666D01*
X133891333Y-87874857D01*
X133879428Y-87862952D01*
X133855619Y-87851047D01*
X133808000Y-87839142D01*
X133784190Y-87827238D01*
X133772285Y-87815333D01*
X133760380Y-87791523D01*
X133760380Y-87767714D01*
X133772285Y-87743904D01*
X133784190Y-87732000D01*
X133808000Y-87720095D01*
X133867523Y-87720095D01*
X133903238Y-87732000D01*
X134141333Y-87970095D02*
X133998476Y-87970095D01*
X134069904Y-87970095D02*
X134069904Y-87720095D01*
X134046095Y-87755809D01*
X134022285Y-87779619D01*
X133998476Y-87791523D01*
X123322523Y-91600095D02*
X123322523Y-91350095D01*
X123405857Y-91528666D01*
X123489190Y-91350095D01*
X123489190Y-91600095D01*
X123596333Y-91588190D02*
X123632047Y-91600095D01*
X123691571Y-91600095D01*
X123715380Y-91588190D01*
X123727285Y-91576285D01*
X123739190Y-91552476D01*
X123739190Y-91528666D01*
X123727285Y-91504857D01*
X123715380Y-91492952D01*
X123691571Y-91481047D01*
X123643952Y-91469142D01*
X123620142Y-91457238D01*
X123608238Y-91445333D01*
X123596333Y-91421523D01*
X123596333Y-91397714D01*
X123608238Y-91373904D01*
X123620142Y-91362000D01*
X123643952Y-91350095D01*
X123703476Y-91350095D01*
X123739190Y-91362000D01*
X123977285Y-91600095D02*
X123834428Y-91600095D01*
X123905857Y-91600095D02*
X123905857Y-91350095D01*
X123882047Y-91385809D01*
X123858238Y-91409619D01*
X123834428Y-91421523D01*
X124096333Y-91600095D02*
X124143952Y-91600095D01*
X124167761Y-91588190D01*
X124179666Y-91576285D01*
X124203476Y-91540571D01*
X124215380Y-91492952D01*
X124215380Y-91397714D01*
X124203476Y-91373904D01*
X124191571Y-91362000D01*
X124167761Y-91350095D01*
X124120142Y-91350095D01*
X124096333Y-91362000D01*
X124084428Y-91373904D01*
X124072523Y-91397714D01*
X124072523Y-91457238D01*
X124084428Y-91481047D01*
X124096333Y-91492952D01*
X124120142Y-91504857D01*
X124167761Y-91504857D01*
X124191571Y-91492952D01*
X124203476Y-91481047D01*
X124215380Y-91457238D01*
D10*
X106346666Y-78192380D02*
X106346666Y-78906666D01*
X106299047Y-79049523D01*
X106203809Y-79144761D01*
X106060952Y-79192380D01*
X105965714Y-79192380D01*
X107346666Y-79192380D02*
X106775238Y-79192380D01*
X107060952Y-79192380D02*
X107060952Y-78192380D01*
X106965714Y-78335238D01*
X106870476Y-78430476D01*
X106775238Y-78478095D01*
X160194666Y-77684380D02*
X160194666Y-78398666D01*
X160147047Y-78541523D01*
X160051809Y-78636761D01*
X159908952Y-78684380D01*
X159813714Y-78684380D01*
X160623238Y-77779619D02*
X160670857Y-77732000D01*
X160766095Y-77684380D01*
X161004190Y-77684380D01*
X161099428Y-77732000D01*
X161147047Y-77779619D01*
X161194666Y-77874857D01*
X161194666Y-77970095D01*
X161147047Y-78112952D01*
X160575619Y-78684380D01*
X161194666Y-78684380D01*
X159686666Y-95464380D02*
X159686666Y-96178666D01*
X159639047Y-96321523D01*
X159543809Y-96416761D01*
X159400952Y-96464380D01*
X159305714Y-96464380D01*
X160067619Y-95464380D02*
X160686666Y-95464380D01*
X160353333Y-95845333D01*
X160496190Y-95845333D01*
X160591428Y-95892952D01*
X160639047Y-95940571D01*
X160686666Y-96035809D01*
X160686666Y-96273904D01*
X160639047Y-96369142D01*
X160591428Y-96416761D01*
X160496190Y-96464380D01*
X160210476Y-96464380D01*
X160115238Y-96416761D01*
X160067619Y-96369142D01*
M02*
