G04 #@! TF.GenerationSoftware,KiCad,Pcbnew,(5.1.5)-3*
G04 #@! TF.CreationDate,2021-08-20T13:05:58+01:00*
G04 #@! TF.ProjectId,Circulator,43697263-756c-4617-946f-722e6b696361,rev?*
G04 #@! TF.SameCoordinates,Original*
G04 #@! TF.FileFunction,Soldermask,Bot*
G04 #@! TF.FilePolarity,Negative*
%FSLAX46Y46*%
G04 Gerber Fmt 4.6, Leading zero omitted, Abs format (unit mm)*
G04 Created by KiCad (PCBNEW (5.1.5)-3) date 2021-08-20 13:05:58*
%MOMM*%
%LPD*%
G04 APERTURE LIST*
%ADD10C,0.100000*%
G04 APERTURE END LIST*
D10*
G36*
X161133549Y-103011116D02*
G01*
X161244734Y-103033232D01*
X161454203Y-103119997D01*
X161642720Y-103245960D01*
X161803040Y-103406280D01*
X161929003Y-103594797D01*
X162015768Y-103804266D01*
X162060000Y-104026636D01*
X162060000Y-104253364D01*
X162015768Y-104475734D01*
X161929003Y-104685203D01*
X161803040Y-104873720D01*
X161642720Y-105034040D01*
X161454203Y-105160003D01*
X161244734Y-105246768D01*
X161133549Y-105268884D01*
X161022365Y-105291000D01*
X160795635Y-105291000D01*
X160684451Y-105268884D01*
X160573266Y-105246768D01*
X160363797Y-105160003D01*
X160175280Y-105034040D01*
X160014960Y-104873720D01*
X159888997Y-104685203D01*
X159802232Y-104475734D01*
X159758000Y-104253364D01*
X159758000Y-104026636D01*
X159802232Y-103804266D01*
X159888997Y-103594797D01*
X160014960Y-103406280D01*
X160175280Y-103245960D01*
X160363797Y-103119997D01*
X160573266Y-103033232D01*
X160684451Y-103011116D01*
X160795635Y-102989000D01*
X161022365Y-102989000D01*
X161133549Y-103011116D01*
G37*
G36*
X166213549Y-103011116D02*
G01*
X166324734Y-103033232D01*
X166534203Y-103119997D01*
X166722720Y-103245960D01*
X166883040Y-103406280D01*
X167009003Y-103594797D01*
X167095768Y-103804266D01*
X167140000Y-104026636D01*
X167140000Y-104253364D01*
X167095768Y-104475734D01*
X167009003Y-104685203D01*
X166883040Y-104873720D01*
X166722720Y-105034040D01*
X166534203Y-105160003D01*
X166324734Y-105246768D01*
X166213549Y-105268884D01*
X166102365Y-105291000D01*
X165875635Y-105291000D01*
X165764451Y-105268884D01*
X165653266Y-105246768D01*
X165443797Y-105160003D01*
X165255280Y-105034040D01*
X165094960Y-104873720D01*
X164968997Y-104685203D01*
X164882232Y-104475734D01*
X164838000Y-104253364D01*
X164838000Y-104026636D01*
X164882232Y-103804266D01*
X164968997Y-103594797D01*
X165094960Y-103406280D01*
X165255280Y-103245960D01*
X165443797Y-103119997D01*
X165653266Y-103033232D01*
X165764451Y-103011116D01*
X165875635Y-102989000D01*
X166102365Y-102989000D01*
X166213549Y-103011116D01*
G37*
G36*
X163755564Y-100589389D02*
G01*
X163946833Y-100668615D01*
X163946835Y-100668616D01*
X164118973Y-100783635D01*
X164265365Y-100930027D01*
X164380385Y-101102167D01*
X164459611Y-101293436D01*
X164500000Y-101496484D01*
X164500000Y-101703516D01*
X164459611Y-101906564D01*
X164380385Y-102097833D01*
X164380384Y-102097835D01*
X164265365Y-102269973D01*
X164118973Y-102416365D01*
X163946835Y-102531384D01*
X163946834Y-102531385D01*
X163946833Y-102531385D01*
X163755564Y-102610611D01*
X163552516Y-102651000D01*
X163345484Y-102651000D01*
X163142436Y-102610611D01*
X162951167Y-102531385D01*
X162951166Y-102531385D01*
X162951165Y-102531384D01*
X162779027Y-102416365D01*
X162632635Y-102269973D01*
X162517616Y-102097835D01*
X162517615Y-102097833D01*
X162438389Y-101906564D01*
X162398000Y-101703516D01*
X162398000Y-101496484D01*
X162438389Y-101293436D01*
X162517615Y-101102167D01*
X162632635Y-100930027D01*
X162779027Y-100783635D01*
X162951165Y-100668616D01*
X162951167Y-100668615D01*
X163142436Y-100589389D01*
X163345484Y-100549000D01*
X163552516Y-100549000D01*
X163755564Y-100589389D01*
G37*
G36*
X161133549Y-97931116D02*
G01*
X161244734Y-97953232D01*
X161454203Y-98039997D01*
X161642720Y-98165960D01*
X161803040Y-98326280D01*
X161929003Y-98514797D01*
X162015768Y-98724266D01*
X162060000Y-98946636D01*
X162060000Y-99173364D01*
X162015768Y-99395734D01*
X161929003Y-99605203D01*
X161803040Y-99793720D01*
X161642720Y-99954040D01*
X161454203Y-100080003D01*
X161244734Y-100166768D01*
X161133549Y-100188884D01*
X161022365Y-100211000D01*
X160795635Y-100211000D01*
X160684451Y-100188884D01*
X160573266Y-100166768D01*
X160363797Y-100080003D01*
X160175280Y-99954040D01*
X160014960Y-99793720D01*
X159888997Y-99605203D01*
X159802232Y-99395734D01*
X159758000Y-99173364D01*
X159758000Y-98946636D01*
X159802232Y-98724266D01*
X159888997Y-98514797D01*
X160014960Y-98326280D01*
X160175280Y-98165960D01*
X160363797Y-98039997D01*
X160573266Y-97953232D01*
X160684451Y-97931116D01*
X160795635Y-97909000D01*
X161022365Y-97909000D01*
X161133549Y-97931116D01*
G37*
G36*
X166213549Y-97931116D02*
G01*
X166324734Y-97953232D01*
X166534203Y-98039997D01*
X166722720Y-98165960D01*
X166883040Y-98326280D01*
X167009003Y-98514797D01*
X167095768Y-98724266D01*
X167140000Y-98946636D01*
X167140000Y-99173364D01*
X167095768Y-99395734D01*
X167009003Y-99605203D01*
X166883040Y-99793720D01*
X166722720Y-99954040D01*
X166534203Y-100080003D01*
X166324734Y-100166768D01*
X166213549Y-100188884D01*
X166102365Y-100211000D01*
X165875635Y-100211000D01*
X165764451Y-100188884D01*
X165653266Y-100166768D01*
X165443797Y-100080003D01*
X165255280Y-99954040D01*
X165094960Y-99793720D01*
X164968997Y-99605203D01*
X164882232Y-99395734D01*
X164838000Y-99173364D01*
X164838000Y-98946636D01*
X164882232Y-98724266D01*
X164968997Y-98514797D01*
X165094960Y-98326280D01*
X165255280Y-98165960D01*
X165443797Y-98039997D01*
X165653266Y-97953232D01*
X165764451Y-97931116D01*
X165875635Y-97909000D01*
X166102365Y-97909000D01*
X166213549Y-97931116D01*
G37*
G36*
X101888049Y-74309116D02*
G01*
X101999234Y-74331232D01*
X102208703Y-74417997D01*
X102397220Y-74543960D01*
X102557540Y-74704280D01*
X102683503Y-74892797D01*
X102770268Y-75102266D01*
X102814500Y-75324636D01*
X102814500Y-75551364D01*
X102770268Y-75773734D01*
X102683503Y-75983203D01*
X102557540Y-76171720D01*
X102397220Y-76332040D01*
X102208703Y-76458003D01*
X101999234Y-76544768D01*
X101888049Y-76566884D01*
X101776865Y-76589000D01*
X101550135Y-76589000D01*
X101438951Y-76566884D01*
X101327766Y-76544768D01*
X101118297Y-76458003D01*
X100929780Y-76332040D01*
X100769460Y-76171720D01*
X100643497Y-75983203D01*
X100556732Y-75773734D01*
X100512500Y-75551364D01*
X100512500Y-75324636D01*
X100556732Y-75102266D01*
X100643497Y-74892797D01*
X100769460Y-74704280D01*
X100929780Y-74543960D01*
X101118297Y-74417997D01*
X101327766Y-74331232D01*
X101438951Y-74309116D01*
X101550135Y-74287000D01*
X101776865Y-74287000D01*
X101888049Y-74309116D01*
G37*
G36*
X166213549Y-74309116D02*
G01*
X166324734Y-74331232D01*
X166534203Y-74417997D01*
X166722720Y-74543960D01*
X166883040Y-74704280D01*
X167009003Y-74892797D01*
X167095768Y-75102266D01*
X167140000Y-75324636D01*
X167140000Y-75551364D01*
X167095768Y-75773734D01*
X167009003Y-75983203D01*
X166883040Y-76171720D01*
X166722720Y-76332040D01*
X166534203Y-76458003D01*
X166324734Y-76544768D01*
X166213549Y-76566884D01*
X166102365Y-76589000D01*
X165875635Y-76589000D01*
X165764451Y-76566884D01*
X165653266Y-76544768D01*
X165443797Y-76458003D01*
X165255280Y-76332040D01*
X165094960Y-76171720D01*
X164968997Y-75983203D01*
X164882232Y-75773734D01*
X164838000Y-75551364D01*
X164838000Y-75324636D01*
X164882232Y-75102266D01*
X164968997Y-74892797D01*
X165094960Y-74704280D01*
X165255280Y-74543960D01*
X165443797Y-74417997D01*
X165653266Y-74331232D01*
X165764451Y-74309116D01*
X165875635Y-74287000D01*
X166102365Y-74287000D01*
X166213549Y-74309116D01*
G37*
G36*
X161133549Y-74309116D02*
G01*
X161244734Y-74331232D01*
X161454203Y-74417997D01*
X161642720Y-74543960D01*
X161803040Y-74704280D01*
X161929003Y-74892797D01*
X162015768Y-75102266D01*
X162060000Y-75324636D01*
X162060000Y-75551364D01*
X162015768Y-75773734D01*
X161929003Y-75983203D01*
X161803040Y-76171720D01*
X161642720Y-76332040D01*
X161454203Y-76458003D01*
X161244734Y-76544768D01*
X161133549Y-76566884D01*
X161022365Y-76589000D01*
X160795635Y-76589000D01*
X160684451Y-76566884D01*
X160573266Y-76544768D01*
X160363797Y-76458003D01*
X160175280Y-76332040D01*
X160014960Y-76171720D01*
X159888997Y-75983203D01*
X159802232Y-75773734D01*
X159758000Y-75551364D01*
X159758000Y-75324636D01*
X159802232Y-75102266D01*
X159888997Y-74892797D01*
X160014960Y-74704280D01*
X160175280Y-74543960D01*
X160363797Y-74417997D01*
X160573266Y-74331232D01*
X160684451Y-74309116D01*
X160795635Y-74287000D01*
X161022365Y-74287000D01*
X161133549Y-74309116D01*
G37*
G36*
X106968049Y-74309116D02*
G01*
X107079234Y-74331232D01*
X107288703Y-74417997D01*
X107477220Y-74543960D01*
X107637540Y-74704280D01*
X107763503Y-74892797D01*
X107850268Y-75102266D01*
X107894500Y-75324636D01*
X107894500Y-75551364D01*
X107850268Y-75773734D01*
X107763503Y-75983203D01*
X107637540Y-76171720D01*
X107477220Y-76332040D01*
X107288703Y-76458003D01*
X107079234Y-76544768D01*
X106968049Y-76566884D01*
X106856865Y-76589000D01*
X106630135Y-76589000D01*
X106518951Y-76566884D01*
X106407766Y-76544768D01*
X106198297Y-76458003D01*
X106009780Y-76332040D01*
X105849460Y-76171720D01*
X105723497Y-75983203D01*
X105636732Y-75773734D01*
X105592500Y-75551364D01*
X105592500Y-75324636D01*
X105636732Y-75102266D01*
X105723497Y-74892797D01*
X105849460Y-74704280D01*
X106009780Y-74543960D01*
X106198297Y-74417997D01*
X106407766Y-74331232D01*
X106518951Y-74309116D01*
X106630135Y-74287000D01*
X106856865Y-74287000D01*
X106968049Y-74309116D01*
G37*
G36*
X163755564Y-71887389D02*
G01*
X163946833Y-71966615D01*
X163946835Y-71966616D01*
X164118973Y-72081635D01*
X164265365Y-72228027D01*
X164380385Y-72400167D01*
X164459611Y-72591436D01*
X164500000Y-72794484D01*
X164500000Y-73001516D01*
X164459611Y-73204564D01*
X164380385Y-73395833D01*
X164380384Y-73395835D01*
X164265365Y-73567973D01*
X164118973Y-73714365D01*
X163946835Y-73829384D01*
X163946834Y-73829385D01*
X163946833Y-73829385D01*
X163755564Y-73908611D01*
X163552516Y-73949000D01*
X163345484Y-73949000D01*
X163142436Y-73908611D01*
X162951167Y-73829385D01*
X162951166Y-73829385D01*
X162951165Y-73829384D01*
X162779027Y-73714365D01*
X162632635Y-73567973D01*
X162517616Y-73395835D01*
X162517615Y-73395833D01*
X162438389Y-73204564D01*
X162398000Y-73001516D01*
X162398000Y-72794484D01*
X162438389Y-72591436D01*
X162517615Y-72400167D01*
X162632635Y-72228027D01*
X162779027Y-72081635D01*
X162951165Y-71966616D01*
X162951167Y-71966615D01*
X163142436Y-71887389D01*
X163345484Y-71847000D01*
X163552516Y-71847000D01*
X163755564Y-71887389D01*
G37*
G36*
X104510064Y-71887389D02*
G01*
X104701333Y-71966615D01*
X104701335Y-71966616D01*
X104873473Y-72081635D01*
X105019865Y-72228027D01*
X105134885Y-72400167D01*
X105214111Y-72591436D01*
X105254500Y-72794484D01*
X105254500Y-73001516D01*
X105214111Y-73204564D01*
X105134885Y-73395833D01*
X105134884Y-73395835D01*
X105019865Y-73567973D01*
X104873473Y-73714365D01*
X104701335Y-73829384D01*
X104701334Y-73829385D01*
X104701333Y-73829385D01*
X104510064Y-73908611D01*
X104307016Y-73949000D01*
X104099984Y-73949000D01*
X103896936Y-73908611D01*
X103705667Y-73829385D01*
X103705666Y-73829385D01*
X103705665Y-73829384D01*
X103533527Y-73714365D01*
X103387135Y-73567973D01*
X103272116Y-73395835D01*
X103272115Y-73395833D01*
X103192889Y-73204564D01*
X103152500Y-73001516D01*
X103152500Y-72794484D01*
X103192889Y-72591436D01*
X103272115Y-72400167D01*
X103387135Y-72228027D01*
X103533527Y-72081635D01*
X103705665Y-71966616D01*
X103705667Y-71966615D01*
X103896936Y-71887389D01*
X104099984Y-71847000D01*
X104307016Y-71847000D01*
X104510064Y-71887389D01*
G37*
G36*
X106968049Y-69229116D02*
G01*
X107079234Y-69251232D01*
X107288703Y-69337997D01*
X107477220Y-69463960D01*
X107637540Y-69624280D01*
X107763503Y-69812797D01*
X107850268Y-70022266D01*
X107894500Y-70244636D01*
X107894500Y-70471364D01*
X107850268Y-70693734D01*
X107763503Y-70903203D01*
X107637540Y-71091720D01*
X107477220Y-71252040D01*
X107288703Y-71378003D01*
X107079234Y-71464768D01*
X106968049Y-71486884D01*
X106856865Y-71509000D01*
X106630135Y-71509000D01*
X106518951Y-71486884D01*
X106407766Y-71464768D01*
X106198297Y-71378003D01*
X106009780Y-71252040D01*
X105849460Y-71091720D01*
X105723497Y-70903203D01*
X105636732Y-70693734D01*
X105592500Y-70471364D01*
X105592500Y-70244636D01*
X105636732Y-70022266D01*
X105723497Y-69812797D01*
X105849460Y-69624280D01*
X106009780Y-69463960D01*
X106198297Y-69337997D01*
X106407766Y-69251232D01*
X106518951Y-69229116D01*
X106630135Y-69207000D01*
X106856865Y-69207000D01*
X106968049Y-69229116D01*
G37*
G36*
X101888049Y-69229116D02*
G01*
X101999234Y-69251232D01*
X102208703Y-69337997D01*
X102397220Y-69463960D01*
X102557540Y-69624280D01*
X102683503Y-69812797D01*
X102770268Y-70022266D01*
X102814500Y-70244636D01*
X102814500Y-70471364D01*
X102770268Y-70693734D01*
X102683503Y-70903203D01*
X102557540Y-71091720D01*
X102397220Y-71252040D01*
X102208703Y-71378003D01*
X101999234Y-71464768D01*
X101888049Y-71486884D01*
X101776865Y-71509000D01*
X101550135Y-71509000D01*
X101438951Y-71486884D01*
X101327766Y-71464768D01*
X101118297Y-71378003D01*
X100929780Y-71252040D01*
X100769460Y-71091720D01*
X100643497Y-70903203D01*
X100556732Y-70693734D01*
X100512500Y-70471364D01*
X100512500Y-70244636D01*
X100556732Y-70022266D01*
X100643497Y-69812797D01*
X100769460Y-69624280D01*
X100929780Y-69463960D01*
X101118297Y-69337997D01*
X101327766Y-69251232D01*
X101438951Y-69229116D01*
X101550135Y-69207000D01*
X101776865Y-69207000D01*
X101888049Y-69229116D01*
G37*
G36*
X161133549Y-69229116D02*
G01*
X161244734Y-69251232D01*
X161454203Y-69337997D01*
X161642720Y-69463960D01*
X161803040Y-69624280D01*
X161929003Y-69812797D01*
X162015768Y-70022266D01*
X162060000Y-70244636D01*
X162060000Y-70471364D01*
X162015768Y-70693734D01*
X161929003Y-70903203D01*
X161803040Y-71091720D01*
X161642720Y-71252040D01*
X161454203Y-71378003D01*
X161244734Y-71464768D01*
X161133549Y-71486884D01*
X161022365Y-71509000D01*
X160795635Y-71509000D01*
X160684451Y-71486884D01*
X160573266Y-71464768D01*
X160363797Y-71378003D01*
X160175280Y-71252040D01*
X160014960Y-71091720D01*
X159888997Y-70903203D01*
X159802232Y-70693734D01*
X159758000Y-70471364D01*
X159758000Y-70244636D01*
X159802232Y-70022266D01*
X159888997Y-69812797D01*
X160014960Y-69624280D01*
X160175280Y-69463960D01*
X160363797Y-69337997D01*
X160573266Y-69251232D01*
X160684451Y-69229116D01*
X160795635Y-69207000D01*
X161022365Y-69207000D01*
X161133549Y-69229116D01*
G37*
G36*
X166213549Y-69229116D02*
G01*
X166324734Y-69251232D01*
X166534203Y-69337997D01*
X166722720Y-69463960D01*
X166883040Y-69624280D01*
X167009003Y-69812797D01*
X167095768Y-70022266D01*
X167140000Y-70244636D01*
X167140000Y-70471364D01*
X167095768Y-70693734D01*
X167009003Y-70903203D01*
X166883040Y-71091720D01*
X166722720Y-71252040D01*
X166534203Y-71378003D01*
X166324734Y-71464768D01*
X166213549Y-71486884D01*
X166102365Y-71509000D01*
X165875635Y-71509000D01*
X165764451Y-71486884D01*
X165653266Y-71464768D01*
X165443797Y-71378003D01*
X165255280Y-71252040D01*
X165094960Y-71091720D01*
X164968997Y-70903203D01*
X164882232Y-70693734D01*
X164838000Y-70471364D01*
X164838000Y-70244636D01*
X164882232Y-70022266D01*
X164968997Y-69812797D01*
X165094960Y-69624280D01*
X165255280Y-69463960D01*
X165443797Y-69337997D01*
X165653266Y-69251232D01*
X165764451Y-69229116D01*
X165875635Y-69207000D01*
X166102365Y-69207000D01*
X166213549Y-69229116D01*
G37*
M02*
