G04 #@! TF.GenerationSoftware,KiCad,Pcbnew,(5.1.5)-3*
G04 #@! TF.CreationDate,2021-08-20T13:05:58+01:00*
G04 #@! TF.ProjectId,Circulator,43697263-756c-4617-946f-722e6b696361,rev?*
G04 #@! TF.SameCoordinates,Original*
G04 #@! TF.FileFunction,Copper,L1,Top*
G04 #@! TF.FilePolarity,Positive*
%FSLAX46Y46*%
G04 Gerber Fmt 4.6, Leading zero omitted, Abs format (unit mm)*
G04 Created by KiCad (PCBNEW (5.1.5)-3) date 2021-08-20 13:05:58*
%MOMM*%
%LPD*%
G04 APERTURE LIST*
%ADD10C,0.100000*%
%ADD11R,0.900000X1.200000*%
%ADD12C,2.000000*%
%ADD13C,2.200000*%
%ADD14C,0.800000*%
%ADD15C,0.250000*%
G04 APERTURE END LIST*
D10*
G36*
X162308000Y-89832000D02*
G01*
X164508000Y-89832000D01*
X162308000Y-87632000D01*
X162308000Y-89832000D01*
G37*
G36*
X105308000Y-89832000D02*
G01*
X103108000Y-89832000D01*
X105308000Y-87632000D01*
X105308000Y-89832000D01*
G37*
G36*
X105308000Y-84882000D02*
G01*
X103108000Y-84882000D01*
X105308000Y-87082000D01*
X105308000Y-84882000D01*
G37*
G36*
X105308000Y-101742000D02*
G01*
X105308000Y-91442000D01*
X103108000Y-91442000D01*
X103108000Y-101742000D01*
X105308000Y-101742000D01*
G37*
G36*
X124218000Y-101942000D02*
G01*
X124218000Y-91442000D01*
X123308000Y-91442000D01*
X123308000Y-101942000D01*
X124218000Y-101942000D01*
G37*
G36*
X105308000Y-90532000D02*
G01*
X105308000Y-89832000D01*
X103108000Y-89832000D01*
X103108000Y-90532000D01*
X105308000Y-90532000D01*
G37*
G36*
X164508000Y-101832000D02*
G01*
X164508000Y-89832000D01*
X162308000Y-89832000D01*
X162308000Y-101832000D01*
X164508000Y-101832000D01*
G37*
G36*
X162308000Y-84882000D02*
G01*
X164508000Y-84882000D01*
X162308000Y-87082000D01*
X162308000Y-84882000D01*
G37*
G36*
X105308000Y-91442000D02*
G01*
X123308000Y-91442000D01*
X123308000Y-90532000D01*
X105308000Y-90532000D01*
X105308000Y-91442000D01*
G37*
G36*
X164508000Y-84882000D02*
G01*
X164508000Y-72882000D01*
X162308000Y-72882000D01*
X162308000Y-84882000D01*
X164508000Y-84882000D01*
G37*
G36*
X105308000Y-91442000D02*
G01*
X105308000Y-90532000D01*
X103108000Y-90532000D01*
X103108000Y-90987000D01*
X103108000Y-91442000D01*
X105308000Y-91442000D01*
G37*
G36*
X105308000Y-84882000D02*
G01*
X105308000Y-72882000D01*
X103108000Y-72882000D01*
X103108000Y-84882000D01*
X105308000Y-84882000D01*
G37*
G36*
X105308000Y-87082000D02*
G01*
X162308000Y-87082000D01*
X162308000Y-84882000D01*
X105308000Y-84882000D01*
X105308000Y-87082000D01*
G37*
G36*
X105308000Y-89832000D02*
G01*
X162308000Y-89832000D01*
X162308000Y-87632000D01*
X105308000Y-87632000D01*
X105308000Y-89832000D01*
G37*
G36*
X123308000Y-91442000D02*
G01*
X124218000Y-91442000D01*
X123308000Y-90532000D01*
X123308000Y-91442000D01*
G37*
D11*
X104203500Y-103271500D03*
X104203500Y-101071500D03*
D12*
X104203500Y-72898000D03*
D13*
X106743500Y-75438000D03*
X106743500Y-70358000D03*
X101663500Y-70358000D03*
X101663500Y-75438000D03*
X160909000Y-75438000D03*
X160909000Y-70358000D03*
X165989000Y-70358000D03*
X165989000Y-75438000D03*
D12*
X163449000Y-72898000D03*
X163449000Y-101600000D03*
D13*
X165989000Y-104140000D03*
X165989000Y-99060000D03*
X160909000Y-99060000D03*
X160909000Y-104140000D03*
D14*
X123761500Y-101854000D03*
X104203500Y-104013000D03*
D15*
X104203500Y-103271500D02*
X104203500Y-104013000D01*
M02*
